<svg width="768" height="569" viewBox="0 0 768 569" fill="none" xmlns="http://www.w3.org/2000/svg">
<g opacity="0.15">
<circle cx="381.5" cy="-160.5" r="474.5" fill="#36536B"/>
<circle cx="381.5" cy="-160.5" r="474.5" fill="#36536B"/>
<mask id="mask0_705_15" style="mask-type:alpha" maskUnits="userSpaceOnUse" x="-87" y="-596" width="949" height="949">
<circle cx="387.5" cy="-121.5" r="474.5" fill="white"/>
</mask>
<g mask="url(#mask0_705_15)">
</g>
</g>
<g filter="url(#filter0_d_705_15)">
<path fill-rule="evenodd" clip-rule="evenodd" d="M324.629 164.342H440.241C451.329 164.342 460.318 172.883 460.318 183.419V444.581C460.318 455.117 451.329 463.658 440.241 463.658H324.629C313.541 463.658 304.552 455.117 304.552 444.581V183.419C304.552 172.883 313.541 164.342 324.629 164.342Z" fill="#213648"/>
</g>
<path opacity="0.595562" fill-rule="evenodd" clip-rule="evenodd" d="M440.688 164H324.113C318.67 164.329 313.651 166.794 309.055 171.394C312.011 168.834 317.283 165.407 324.253 165.407C324.253 165.407 435.901 165.407 440.548 165.407C447.519 165.407 452.791 168.834 455.747 171.394C451.15 166.794 446.131 164.329 440.688 164Z" fill="url(#paint0_linear_705_15)" fill-opacity="0.65"/>
<path opacity="0.75" fill-rule="evenodd" clip-rule="evenodd" d="M457.163 441.603V184.989C457.163 178.104 454.614 175.559 453.092 173.924C451.571 172.29 451.507 171.456 453.692 172.69C455.878 173.924 460.249 177.518 460.249 184.989V441.603C460.249 449.073 455.878 452.667 453.692 453.901C451.507 455.135 451.571 454.302 453.092 452.667C454.614 451.033 457.163 448.488 457.163 441.603Z" fill="url(#paint1_linear_705_15)"/>
<path opacity="0.75" fill-rule="evenodd" clip-rule="evenodd" d="M307.638 441.603V184.989C307.638 178.104 310.188 175.559 311.709 173.924C313.23 172.29 313.295 171.456 311.109 172.69C308.924 173.924 304.552 177.518 304.552 184.989V441.603C304.552 449.073 308.924 452.667 311.109 453.901C313.295 455.135 313.23 454.302 311.709 452.667C310.188 451.033 307.638 448.488 307.638 441.603Z" fill="url(#paint2_linear_705_15)"/>
<path fill-rule="evenodd" clip-rule="evenodd" d="M303 226.435C303 225.606 303.672 224.934 304.501 224.934V224.934C305.329 224.934 306.001 225.606 306.001 226.435V262.044C306.001 262.872 305.329 263.544 304.501 263.544V263.544C303.672 263.544 303 262.872 303 262.044V226.435Z" fill="#2E423C"/>
<path fill-rule="evenodd" clip-rule="evenodd" d="M458.696 257.927C458.696 257.098 459.368 256.426 460.197 256.426V256.426C461.026 256.426 461.698 257.098 461.698 257.927V283.095C461.698 283.924 461.026 284.596 460.197 284.596V284.596C459.368 284.596 458.696 283.924 458.696 283.095V257.927Z" fill="#2E423C"/>
<path fill-rule="evenodd" clip-rule="evenodd" d="M368.701 171.467L323.718 171.467C317.005 171.467 312.113 176.005 312.113 181.932V435.365C312.113 443.093 319.672 449.941 328.218 449.941H436.636C444.869 449.941 452.741 443.04 452.741 435.365V182.617C452.741 175.513 447.428 171.509 441.137 171.467L395.44 171.467C395.267 171.495 392.128 172.776 390.801 176.005C389.474 179.234 386.805 181.808 383.882 181.808H380.488C379.098 181.808 375.441 180.47 373.589 176.005C371.737 171.54 368.875 171.495 368.701 171.467Z" fill="white"/>
<mask id="mask1_705_15" style="mask-type:alpha" maskUnits="userSpaceOnUse" x="312" y="171" width="141" height="279">
<path fill-rule="evenodd" clip-rule="evenodd" d="M368.701 171.467L323.718 171.467C317.005 171.467 312.113 176.005 312.113 181.932V435.365C312.113 443.093 319.672 449.941 328.218 449.941H436.636C444.869 449.941 452.741 443.04 452.741 435.365V182.617C452.741 175.513 447.428 171.509 441.137 171.467L395.44 171.467C395.267 171.495 392.128 172.776 390.801 176.005C389.474 179.234 386.805 181.808 383.882 181.808H380.488C379.098 181.808 375.441 180.47 373.589 176.005C371.737 171.54 368.875 171.495 368.701 171.467Z" fill="white"/>
</mask>
<g mask="url(#mask1_705_15)">
<rect x="312" y="171" width="141" height="279" fill="url(#paint3_linear_705_15)"/>
<path fill-rule="evenodd" clip-rule="evenodd" d="M376.452 245.639V248H366.179V245.907C366.179 245.203 366.311 244.594 366.576 244.079C366.84 243.563 367.19 243.115 367.625 242.735C368.061 242.354 368.538 242.019 369.057 241.731C369.576 241.443 370.097 241.171 370.619 240.915C371.141 240.659 371.62 240.402 372.056 240.143C372.491 239.883 372.841 239.594 373.105 239.274C373.369 238.954 373.502 238.576 373.502 238.141C373.502 237.584 373.307 237.13 372.916 236.778C372.526 236.426 371.993 236.25 371.316 236.25C370.613 236.25 370.016 236.451 369.526 236.855C369.036 237.258 368.733 237.866 368.617 238.679H365.918C365.931 237.795 366.139 236.994 366.542 236.274C366.945 235.554 367.55 234.983 368.356 234.56C369.162 234.138 370.174 233.927 371.393 233.927C372.438 233.927 373.339 234.103 374.097 234.455C374.854 234.807 375.439 235.296 375.852 235.923C376.265 236.551 376.471 237.283 376.471 238.122C376.471 238.819 376.342 239.421 376.084 239.927C375.826 240.432 375.485 240.864 375.059 241.223C374.633 241.581 374.166 241.895 373.656 242.163C373.147 242.432 372.639 242.682 372.133 242.912C371.627 243.143 371.161 243.378 370.735 243.618C370.31 243.858 369.968 244.128 369.71 244.429C369.452 244.73 369.323 245.091 369.323 245.514V245.639H376.452ZM362.997 234.119V248H360.134V237.603H357.638V236.019C358.438 236.019 359.084 235.944 359.577 235.794C360.071 235.643 360.44 235.426 360.685 235.141C360.93 234.856 361.075 234.515 361.12 234.119H362.997ZM381.424 241.319V238.314H378.328V241.319H381.424ZM381.424 244.947V247.943H378.328V244.947H381.424ZM392.567 248V244.928H394.724V242.576H392.567V234.119H389.791L383.416 242.624V244.928H389.859L389.849 248H392.567ZM386.028 242.576H389.859V237.488L386.028 242.576ZM401.263 248.211C402.488 248.211 403.543 247.938 404.426 247.391C405.31 246.843 405.988 246.018 406.462 244.914C406.936 243.81 407.173 242.429 407.173 240.771C407.173 239.383 406.943 238.175 406.482 237.147C406.021 236.12 405.36 235.327 404.499 234.767C403.638 234.207 402.614 233.927 401.428 233.927C400.37 233.927 399.448 234.128 398.661 234.531C397.874 234.935 397.262 235.491 396.823 236.202C396.385 236.912 396.166 237.722 396.166 238.631C396.166 239.533 396.373 240.312 396.789 240.968C397.205 241.624 397.779 242.13 398.511 242.485C399.243 242.84 400.083 243.018 401.031 243.018C401.553 243.018 402.027 242.949 402.453 242.811C402.879 242.674 403.251 242.479 403.57 242.226C403.889 241.973 404.139 241.677 404.32 241.338C404.397 242.445 404.309 243.341 404.054 244.026C403.799 244.711 403.419 245.21 402.912 245.523C402.406 245.837 401.818 245.994 401.147 245.994C400.541 245.994 400.038 245.826 399.638 245.49C399.238 245.154 398.98 244.717 398.864 244.179H396.175C396.233 244.992 396.501 245.701 396.978 246.306C397.455 246.911 398.071 247.379 398.826 247.712C399.58 248.045 400.393 248.211 401.263 248.211ZM399.841 240.191C400.267 240.591 400.825 240.791 401.515 240.791C401.908 240.791 402.29 240.703 402.661 240.527C403.032 240.351 403.336 240.128 403.575 239.859C403.814 239.591 403.933 239.312 403.933 239.024C403.939 238.403 403.841 237.871 403.638 237.426C403.435 236.981 403.151 236.64 402.787 236.403C402.422 236.167 401.998 236.048 401.515 236.048C401.07 236.048 400.673 236.151 400.325 236.355C399.977 236.56 399.703 236.848 399.503 237.219C399.303 237.591 399.203 238.019 399.203 238.506C399.203 239.229 399.416 239.791 399.841 240.191Z" fill="white"/>
</g>
<g clip-path="url(#clip0_705_15)">
<g filter="url(#filter1_d_705_15)">
<rect x="315.805" y="264" width="131.255" height="53.1915" rx="5" fill="#FBFCFE"/>
</g>
<path fill-rule="evenodd" clip-rule="evenodd" d="M327.886 279.285V277.426L329.401 274.865H328.44L327.45 276.656L326.447 274.865H325.496L327.007 277.423V279.285H327.886ZM331.171 279.346C331.488 279.346 331.758 279.277 331.982 279.138C332.206 279 332.377 278.809 332.497 278.565C332.616 278.321 332.676 278.041 332.676 277.723C332.676 277.384 332.615 277.091 332.492 276.842C332.37 276.594 332.196 276.402 331.972 276.266C331.747 276.131 331.481 276.063 331.174 276.063C330.867 276.063 330.6 276.132 330.375 276.271C330.149 276.409 329.974 276.603 329.851 276.852C329.727 277.1 329.666 277.391 329.666 277.723C329.666 278.055 329.727 278.342 329.851 278.585C329.974 278.827 330.149 279.015 330.375 279.147C330.6 279.28 330.866 279.346 331.171 279.346ZM330.785 278.539C330.88 278.635 331.009 278.683 331.174 278.683C331.328 278.683 331.453 278.637 331.547 278.545C331.641 278.453 331.71 278.333 331.753 278.183C331.796 278.033 331.818 277.87 331.818 277.692C331.818 277.525 331.798 277.367 331.759 277.218C331.72 277.07 331.653 276.949 331.559 276.858C331.465 276.766 331.336 276.72 331.174 276.72C331.019 276.72 330.894 276.763 330.799 276.85C330.704 276.937 330.634 277.054 330.59 277.202C330.546 277.349 330.524 277.513 330.524 277.692C330.524 277.857 330.544 278.016 330.584 278.168C330.624 278.319 330.691 278.443 330.785 278.539ZM334.407 279.346C334.529 279.346 334.654 279.327 334.782 279.289C334.909 279.252 335.023 279.184 335.122 279.085C335.221 278.986 335.289 278.844 335.325 278.658L335.428 279.285H336.09V276.124H335.22V278.181C335.22 278.344 335.169 278.471 335.068 278.562C334.966 278.653 334.829 278.698 334.657 278.698C334.474 278.698 334.336 278.651 334.241 278.557C334.147 278.464 334.1 278.343 334.1 278.197V276.124H333.221V278.31C333.221 278.479 333.255 278.628 333.325 278.756C333.394 278.884 333.486 278.992 333.6 279.08C333.715 279.168 333.842 279.234 333.981 279.279C334.12 279.324 334.262 279.346 334.407 279.346ZM337.682 277.555V279.285H336.803V276.124H337.649V276.873C337.699 276.712 337.77 276.571 337.861 276.45C337.953 276.328 338.064 276.234 338.194 276.165C338.325 276.097 338.472 276.063 338.637 276.063C338.665 276.063 338.691 276.064 338.716 276.067C338.742 276.07 338.76 276.075 338.772 276.081V276.931C338.754 276.923 338.732 276.918 338.707 276.916C338.682 276.914 338.66 276.912 338.64 276.91C338.467 276.895 338.32 276.9 338.197 276.925C338.075 276.949 337.975 276.991 337.899 277.05C337.823 277.109 337.768 277.182 337.734 277.267C337.699 277.353 337.682 277.449 337.682 277.555ZM341.199 279.285L341.563 278.261H343.128L343.483 279.285H344.359L342.803 274.865H341.876L340.316 279.285H341.199ZM341.758 277.481H342.917L342.342 275.727L341.758 277.481ZM345.78 280.269V278.811C345.825 278.886 345.876 278.956 345.935 279.02C345.995 279.085 346.062 279.141 346.137 279.19C346.212 279.239 346.294 279.277 346.383 279.305C346.471 279.332 346.565 279.346 346.665 279.346C346.91 279.346 347.13 279.287 347.325 279.169C347.519 279.051 347.672 278.869 347.784 278.623C347.895 278.377 347.951 278.063 347.951 277.68C347.951 277.311 347.899 277.007 347.796 276.767C347.693 276.528 347.551 276.351 347.37 276.236C347.189 276.12 346.984 276.063 346.753 276.063C346.646 276.063 346.545 276.076 346.449 276.101C346.352 276.127 346.263 276.163 346.181 276.21C346.099 276.256 346.024 276.311 345.957 276.373C345.889 276.435 345.833 276.504 345.786 276.579L345.783 276.124H344.901V280.269H345.78ZM346.077 278.551C346.176 278.645 346.302 278.692 346.455 278.692C346.645 278.692 346.805 278.611 346.935 278.45C347.064 278.289 347.129 278.035 347.129 277.686C347.129 277.38 347.067 277.141 346.944 276.969C346.821 276.797 346.657 276.711 346.455 276.711C346.228 276.711 346.059 276.804 345.947 276.991C345.836 277.177 345.78 277.409 345.78 277.686C345.78 277.863 345.805 278.028 345.854 278.181C345.903 278.334 345.978 278.457 346.077 278.551ZM349.414 280.269V278.811C349.458 278.886 349.51 278.956 349.569 279.02C349.628 279.085 349.695 279.141 349.771 279.19C349.846 279.239 349.928 279.277 350.016 279.305C350.104 279.332 350.199 279.346 350.299 279.346C350.544 279.346 350.764 279.287 350.958 279.169C351.153 279.051 351.306 278.869 351.417 278.623C351.529 278.377 351.585 278.063 351.585 277.68C351.585 277.311 351.533 277.007 351.43 276.767C351.326 276.528 351.184 276.351 351.004 276.236C350.823 276.12 350.617 276.063 350.386 276.063C350.28 276.063 350.179 276.076 350.082 276.101C349.986 276.127 349.897 276.163 349.814 276.21C349.732 276.256 349.657 276.311 349.59 276.373C349.523 276.435 349.466 276.504 349.42 276.579L349.417 276.124H348.535V280.269H349.414ZM349.711 278.551C349.81 278.645 349.936 278.692 350.088 278.692C350.279 278.692 350.439 278.611 350.569 278.45C350.698 278.289 350.763 278.035 350.763 277.686C350.763 277.38 350.701 277.141 350.578 276.969C350.454 276.797 350.291 276.711 350.088 276.711C349.862 276.711 349.692 276.804 349.581 276.991C349.47 277.177 349.414 277.409 349.414 277.686C349.414 277.863 349.439 278.028 349.488 278.181C349.537 278.334 349.611 278.457 349.711 278.551Z" fill="#BA4270"/>
<path opacity="0.5" fill-rule="evenodd" clip-rule="evenodd" d="M413.691 279.218C413.558 279.303 413.369 279.346 413.124 279.346C412.969 279.346 412.824 279.328 412.689 279.291C412.553 279.254 412.463 279.227 412.419 279.208L412.458 278.667C412.521 278.69 412.592 278.718 412.674 278.751C412.755 278.785 412.856 278.802 412.976 278.802C413.173 278.802 413.308 278.747 413.381 278.637C413.454 278.527 413.491 278.341 413.491 278.08V274.865H414.048V278.242C414.048 278.477 414.022 278.677 413.97 278.842C413.918 279.007 413.825 279.132 413.691 279.218ZM416.524 279.28C416.397 279.326 416.26 279.348 416.113 279.346C415.951 279.344 415.798 279.32 415.654 279.274C415.511 279.228 415.384 279.161 415.273 279.071C415.163 278.981 415.076 278.87 415.013 278.736C414.95 278.603 414.918 278.447 414.918 278.27V276.124H415.475V278.212C415.475 278.418 415.538 278.585 415.663 278.713C415.788 278.842 415.978 278.906 416.231 278.906C416.459 278.906 416.643 278.845 416.783 278.724C416.922 278.603 416.992 278.422 416.992 278.181V276.124H417.546V279.285H417.104L417.046 278.68C417.008 278.839 416.943 278.967 416.852 279.065C416.761 279.163 416.651 279.234 416.524 279.28ZM419.521 279.346C419.774 279.346 419.989 279.308 420.167 279.231C420.344 279.155 420.481 279.047 420.576 278.907C420.671 278.768 420.719 278.601 420.719 278.408C420.719 278.33 420.708 278.249 420.684 278.165C420.661 278.08 420.622 277.999 420.567 277.921C420.512 277.844 420.438 277.774 420.344 277.711C420.251 277.647 420.132 277.596 419.988 277.558L419.364 277.399C419.192 277.356 419.061 277.302 418.973 277.238C418.885 277.174 418.841 277.086 418.841 276.974C418.841 276.805 418.903 276.68 419.027 276.599C419.152 276.519 419.313 276.479 419.512 276.479C419.703 276.479 419.855 276.523 419.968 276.612C420.081 276.7 420.148 276.82 420.168 276.971H420.659C420.651 276.673 420.543 276.448 420.335 276.294C420.128 276.14 419.855 276.063 419.518 276.063C419.255 276.063 419.035 276.104 418.859 276.185C418.682 276.267 418.55 276.378 418.461 276.518C418.373 276.659 418.33 276.822 418.332 277.007C418.332 277.242 418.407 277.424 418.558 277.555C418.708 277.685 418.909 277.781 419.16 277.842L419.804 278.004C419.944 278.037 420.048 278.088 420.115 278.158C420.183 278.229 420.216 278.322 420.216 278.438C420.216 278.603 420.152 278.725 420.024 278.805C419.895 278.884 419.727 278.924 419.518 278.924C419.387 278.924 419.267 278.903 419.157 278.862C419.046 278.82 418.954 278.758 418.881 278.675C418.808 278.592 418.757 278.489 418.729 278.365H418.223C418.256 278.591 418.333 278.777 418.455 278.923C418.578 279.068 418.732 279.175 418.917 279.244C419.103 279.312 419.304 279.346 419.521 279.346ZM422.963 279.285C422.886 279.295 422.79 279.3 422.676 279.3C422.461 279.3 422.295 279.271 422.176 279.212C422.058 279.152 421.975 279.065 421.928 278.949C421.881 278.832 421.857 278.69 421.857 278.521V276.537H421.351V276.124H421.872L422.008 275.204H422.417V276.121H423.118V276.537H422.417V278.502C422.417 278.614 422.429 278.696 422.452 278.748C422.475 278.8 422.514 278.833 422.569 278.848C422.624 278.862 422.7 278.869 422.796 278.869H423.136V279.248C423.098 279.262 423.041 279.275 422.963 279.285ZM425.978 279.285V275.8L428.314 279.285H428.811V274.865H428.254V278.301L425.954 274.865H425.421V279.285H425.978ZM431.862 279.14C431.652 279.277 431.393 279.346 431.084 279.346C430.797 279.346 430.546 279.283 430.331 279.158C430.117 279.033 429.95 278.849 429.832 278.606C429.713 278.364 429.654 278.067 429.654 277.717C429.654 277.387 429.709 277.097 429.82 276.848C429.93 276.6 430.092 276.407 430.306 276.269C430.52 276.132 430.779 276.063 431.084 276.063C431.371 276.063 431.62 276.127 431.832 276.254C432.044 276.381 432.208 276.568 432.324 276.815C432.441 277.061 432.499 277.362 432.499 277.717C432.499 278.039 432.445 278.322 432.338 278.567C432.23 278.811 432.072 279.002 431.862 279.14ZM431.084 278.9C430.877 278.9 430.71 278.847 430.581 278.741C430.453 278.635 430.359 278.491 430.298 278.31C430.238 278.128 430.208 277.927 430.208 277.704C430.208 277.454 430.242 277.239 430.309 277.059C430.376 276.88 430.475 276.743 430.605 276.648C430.736 276.553 430.895 276.506 431.084 276.506C431.289 276.506 431.455 276.559 431.582 276.665C431.71 276.771 431.803 276.914 431.861 277.095C431.919 277.275 431.948 277.478 431.948 277.704C431.948 277.951 431.915 278.164 431.849 278.343C431.782 278.523 431.685 278.66 431.557 278.756C431.428 278.852 431.271 278.9 431.084 278.9ZM435.124 276.952L434.45 279.285H433.905L432.944 276.124H433.459L434.173 278.554H434.221L434.922 276.124H435.344L436.072 278.548H436.12L436.804 276.124H437.325L436.382 279.285H435.834L435.124 276.952Z" fill="#36536B"/>
<path d="M325.15 286.353V285.8H328.705V286.353H327.272V290.5H326.667V286.353H325.15ZM329.357 290.5V285.67H329.942V287.633C329.998 287.54 330.074 287.454 330.169 287.373C330.264 287.291 330.38 287.225 330.517 287.175C330.653 287.123 330.812 287.097 330.991 287.097C331.21 287.097 331.408 287.138 331.586 287.221C331.764 287.301 331.905 287.416 332.009 287.565C332.113 287.715 332.165 287.892 332.165 288.098V290.5H331.563V288.218C331.563 288.017 331.494 287.862 331.355 287.754C331.219 287.643 331.04 287.588 330.819 287.588C330.67 287.588 330.529 287.613 330.397 287.663C330.264 287.71 330.157 287.784 330.075 287.884C329.995 287.981 329.955 288.106 329.955 288.257V290.5H329.357ZM333.531 288.959C333.531 289.172 333.565 289.365 333.635 289.538C333.706 289.709 333.813 289.846 333.956 289.947C334.102 290.049 334.283 290.1 334.499 290.1C334.714 290.1 334.898 290.05 335.052 289.951C335.208 289.851 335.307 289.707 335.351 289.518H335.919C335.878 289.746 335.787 289.938 335.646 290.094C335.506 290.25 335.336 290.368 335.136 290.448C334.937 290.526 334.729 290.565 334.512 290.565C334.198 290.565 333.922 290.497 333.683 290.36C333.445 290.224 333.259 290.028 333.124 289.772C332.99 289.516 332.923 289.21 332.923 288.852C332.923 288.499 332.984 288.189 333.105 287.923C333.226 287.656 333.402 287.448 333.631 287.299C333.863 287.149 334.142 287.074 334.467 287.074C334.783 287.074 335.051 287.143 335.269 287.279C335.488 287.416 335.654 287.609 335.767 287.858C335.882 288.105 335.939 288.398 335.939 288.738V288.959H333.531ZM333.534 288.553H335.36C335.36 288.36 335.328 288.187 335.263 288.033C335.198 287.877 335.098 287.755 334.964 287.666C334.832 287.575 334.665 287.529 334.463 287.529C334.253 287.529 334.079 287.58 333.94 287.682C333.804 287.782 333.701 287.911 333.631 288.069C333.564 288.225 333.532 288.386 333.534 288.553ZM338.218 291.547V287.139H338.816L338.822 287.724C338.861 287.655 338.911 287.583 338.972 287.507C339.035 287.431 339.111 287.36 339.199 287.295C339.29 287.23 339.396 287.177 339.515 287.136C339.636 287.095 339.774 287.074 339.927 287.074C340.196 287.074 340.432 287.136 340.636 287.26C340.842 287.381 341.002 287.567 341.117 287.819C341.232 288.07 341.289 288.389 341.289 288.774C341.289 289.16 341.233 289.486 341.12 289.752C341.01 290.017 340.849 290.218 340.639 290.357C340.429 290.496 340.176 290.565 339.879 290.565C339.729 290.565 339.596 290.543 339.479 290.5C339.364 290.459 339.263 290.405 339.177 290.337C339.092 290.268 339.021 290.194 338.962 290.116C338.906 290.038 338.859 289.964 338.822 289.892V291.547H338.218ZM339.765 290.097C340.042 290.097 340.269 289.992 340.444 289.782C340.62 289.569 340.707 289.24 340.707 288.794C340.707 288.41 340.627 288.106 340.467 287.88C340.307 287.655 340.073 287.542 339.765 287.542C339.453 287.542 339.217 287.658 339.056 287.89C338.896 288.12 338.816 288.421 338.816 288.794C338.816 289.034 338.852 289.253 338.923 289.45C338.995 289.647 339.101 289.804 339.242 289.921C339.383 290.038 339.557 290.097 339.765 290.097ZM342.962 290.565C342.746 290.565 342.554 290.527 342.387 290.451C342.22 290.373 342.089 290.262 341.994 290.116C341.901 289.971 341.854 289.796 341.854 289.59C341.854 289.217 341.984 288.94 342.244 288.758C342.504 288.576 342.921 288.478 343.495 288.465L344.097 288.449V288.186C344.097 287.98 344.035 287.818 343.911 287.698C343.788 287.577 343.596 287.516 343.336 287.516C343.143 287.519 342.973 287.564 342.826 287.653C342.681 287.742 342.586 287.887 342.543 288.088H342.013C342.026 287.87 342.088 287.685 342.199 287.536C342.309 287.384 342.463 287.269 342.66 287.191C342.859 287.113 343.095 287.074 343.365 287.074C343.658 287.074 343.901 287.116 344.093 287.198C344.288 287.28 344.434 287.402 344.529 287.562C344.626 287.722 344.675 287.919 344.675 288.153V290.5H344.162L344.119 289.869C343.989 290.132 343.824 290.314 343.622 290.415C343.423 290.515 343.203 290.565 342.962 290.565ZM343.144 290.133C343.257 290.133 343.369 290.112 343.479 290.071C343.592 290.03 343.695 289.975 343.788 289.905C343.881 289.834 343.955 289.755 344.009 289.668C344.065 289.579 344.094 289.488 344.097 289.395V288.82L343.596 288.83C343.34 288.834 343.126 288.86 342.953 288.907C342.781 288.955 342.653 289.03 342.566 289.132C342.481 289.234 342.439 289.367 342.439 289.531C342.439 289.72 342.504 289.867 342.634 289.973C342.766 290.08 342.936 290.133 343.144 290.133ZM345.925 291.573C345.728 291.573 345.593 291.558 345.519 291.53C345.446 291.502 345.409 291.488 345.409 291.488V291.098L345.75 291.105C345.876 291.109 345.98 291.1 346.062 291.079C346.144 291.057 346.21 291.028 346.26 290.991C346.31 290.954 346.348 290.913 346.374 290.867C346.402 290.822 346.425 290.778 346.442 290.737L346.559 290.419L345.246 287.139H345.854L346.845 289.733L347.83 287.139H348.418L347.001 290.754C346.915 290.966 346.817 291.132 346.709 291.251C346.603 291.37 346.483 291.453 346.351 291.501C346.221 291.549 346.079 291.573 345.925 291.573ZM349.06 290.5V287.139H349.638V287.627C349.731 287.48 349.859 287.351 350.022 287.24C350.184 287.13 350.396 287.074 350.656 287.074C350.777 287.074 350.9 287.095 351.026 287.136C351.154 287.177 351.271 287.239 351.377 287.321C351.483 287.404 351.566 287.505 351.624 287.624C351.728 287.459 351.869 287.327 352.047 287.227C352.224 287.125 352.425 287.074 352.648 287.074C352.765 287.074 352.887 287.093 353.015 287.13C353.143 287.164 353.261 287.227 353.369 287.318C353.48 287.407 353.57 287.532 353.639 287.692C353.708 287.85 353.743 288.054 353.743 288.303V290.5H353.139V288.361C353.139 288.158 353.106 288.001 353.041 287.89C352.976 287.778 352.89 287.698 352.784 287.653C352.68 287.607 352.569 287.585 352.45 287.585C352.346 287.585 352.235 287.605 352.118 287.646C352.001 287.688 351.901 287.757 351.819 287.854C351.737 287.952 351.696 288.085 351.696 288.254V290.5H351.098V288.186C351.098 288.054 351.062 287.943 350.99 287.854C350.921 287.766 350.833 287.698 350.727 287.653C350.623 287.607 350.519 287.585 350.415 287.585C350.3 287.585 350.184 287.607 350.067 287.653C349.952 287.698 349.855 287.771 349.775 287.871C349.697 287.968 349.658 288.096 349.658 288.254V290.5H349.06ZM355.113 288.959C355.113 289.172 355.147 289.365 355.217 289.538C355.288 289.709 355.396 289.846 355.539 289.947C355.684 290.049 355.865 290.1 356.081 290.1C356.296 290.1 356.48 290.05 356.634 289.951C356.79 289.851 356.889 289.707 356.933 289.518H357.502C357.46 289.746 357.369 289.938 357.229 290.094C357.088 290.25 356.918 290.368 356.718 290.448C356.519 290.526 356.311 290.565 356.094 290.565C355.78 290.565 355.504 290.497 355.266 290.36C355.027 290.224 354.841 290.028 354.707 289.772C354.572 289.516 354.505 289.21 354.505 288.852C354.505 288.499 354.566 288.189 354.687 287.923C354.808 287.656 354.984 287.448 355.214 287.299C355.445 287.149 355.724 287.074 356.049 287.074C356.365 287.074 356.633 287.143 356.852 287.279C357.07 287.416 357.236 287.609 357.349 287.858C357.464 288.105 357.521 288.398 357.521 288.738V288.959H355.113ZM355.116 288.553H356.943C356.943 288.36 356.91 288.187 356.845 288.033C356.78 287.877 356.68 287.755 356.546 287.666C356.414 287.575 356.247 287.529 356.046 287.529C355.835 287.529 355.661 287.58 355.522 287.682C355.386 287.782 355.283 287.911 355.214 288.069C355.146 288.225 355.114 288.386 355.116 288.553ZM358.346 290.5V287.139H358.928V287.627C358.982 287.534 359.057 287.446 359.152 287.364C359.25 287.281 359.367 287.215 359.503 287.165C359.642 287.116 359.801 287.091 359.981 287.091C360.193 287.091 360.388 287.133 360.566 287.218C360.746 287.302 360.889 287.434 360.995 287.614C361.103 287.792 361.158 288.021 361.158 288.303V290.5H360.556V288.361C360.556 288.099 360.487 287.905 360.348 287.78C360.212 287.652 360.034 287.588 359.815 287.588C359.664 287.588 359.522 287.613 359.39 287.663C359.257 287.71 359.15 287.784 359.068 287.884C358.986 287.981 358.944 288.105 358.944 288.254V290.5H358.346ZM363.646 287.578H362.889V289.668C362.889 289.787 362.901 289.875 362.925 289.931C362.951 289.985 362.993 290.02 363.052 290.035C363.112 290.05 363.195 290.058 363.299 290.058H363.666V290.461C363.625 290.476 363.562 290.489 363.477 290.5C363.395 290.511 363.292 290.516 363.169 290.516C362.937 290.516 362.757 290.485 362.629 290.422C362.501 290.359 362.411 290.266 362.359 290.142C362.31 290.019 362.285 289.867 362.285 289.688V287.578H361.739V287.139H362.301L362.447 286.161H362.889V287.136H363.646V287.578ZM366.008 290.5V285.67H366.593V287.633C366.649 287.54 366.725 287.454 366.82 287.373C366.916 287.291 367.032 287.225 367.168 287.175C367.305 287.123 367.463 287.097 367.643 287.097C367.862 287.097 368.06 287.138 368.237 287.221C368.415 287.301 368.556 287.416 368.66 287.565C368.764 287.715 368.816 287.892 368.816 288.098V290.5H368.215V288.218C368.215 288.017 368.145 287.862 368.007 287.754C367.87 287.643 367.691 287.588 367.47 287.588C367.321 287.588 367.18 287.613 367.048 287.663C366.916 287.71 366.809 287.784 366.726 287.884C366.646 287.981 366.606 288.106 366.606 288.257V290.5H366.008ZM370.67 290.565C370.453 290.565 370.261 290.527 370.095 290.451C369.928 290.373 369.797 290.262 369.701 290.116C369.608 289.971 369.562 289.796 369.562 289.59C369.562 289.217 369.692 288.94 369.952 288.758C370.212 288.576 370.629 288.478 371.203 288.465L371.804 288.449V288.186C371.804 287.98 371.742 287.818 371.619 287.698C371.495 287.577 371.304 287.516 371.044 287.516C370.851 287.519 370.681 287.564 370.533 287.653C370.388 287.742 370.294 287.887 370.251 288.088H369.721C369.734 287.87 369.796 287.685 369.906 287.536C370.017 287.384 370.17 287.269 370.368 287.191C370.567 287.113 370.802 287.074 371.073 287.074C371.365 287.074 371.608 287.116 371.801 287.198C371.996 287.28 372.141 287.402 372.236 287.562C372.334 287.722 372.383 287.919 372.383 288.153V290.5H371.869L371.827 289.869C371.697 290.132 371.531 290.314 371.33 290.415C371.13 290.515 370.91 290.565 370.67 290.565ZM370.852 290.133C370.965 290.133 371.076 290.112 371.187 290.071C371.299 290.03 371.402 289.975 371.495 289.905C371.589 289.834 371.662 289.755 371.716 289.668C371.773 289.579 371.802 289.488 371.804 289.395V288.82L371.304 288.83C371.048 288.834 370.833 288.86 370.66 288.907C370.489 288.955 370.36 289.03 370.273 289.132C370.189 289.234 370.147 289.367 370.147 289.531C370.147 289.72 370.212 289.867 370.342 289.973C370.474 290.08 370.644 290.133 370.852 290.133ZM374.545 290.565C374.311 290.565 374.093 290.529 373.892 290.458C373.692 290.384 373.527 290.27 373.394 290.116C373.262 289.96 373.179 289.762 373.144 289.522H373.69C373.721 289.654 373.775 289.764 373.853 289.853C373.933 289.94 374.033 290.006 374.152 290.051C374.271 290.095 374.401 290.116 374.542 290.116C374.767 290.116 374.949 290.074 375.088 289.99C375.226 289.905 375.296 289.775 375.296 289.6C375.296 289.476 375.259 289.378 375.185 289.304C375.114 289.228 375.002 289.173 374.85 289.138L374.155 288.966C373.884 288.901 373.667 288.799 373.505 288.66C373.342 288.522 373.261 288.328 373.261 288.079C373.259 287.882 373.306 287.708 373.401 287.559C373.496 287.409 373.639 287.291 373.83 287.204C374.021 287.118 374.258 287.074 374.542 287.074C374.906 287.074 375.199 287.157 375.422 287.321C375.648 287.484 375.765 287.723 375.773 288.04H375.244C375.222 287.879 375.149 287.753 375.026 287.659C374.905 287.564 374.741 287.516 374.535 287.516C374.321 287.516 374.146 287.56 374.012 287.646C373.878 287.731 373.81 287.863 373.81 288.043C373.81 288.162 373.858 288.256 373.953 288.326C374.049 288.393 374.19 288.449 374.376 288.495L375.049 288.664C375.205 288.705 375.333 288.759 375.432 288.826C375.534 288.893 375.614 288.968 375.673 289.05C375.733 289.133 375.776 289.219 375.799 289.31C375.825 289.399 375.838 289.485 375.838 289.567C375.838 289.773 375.786 289.951 375.682 290.1C375.581 290.248 375.433 290.362 375.24 290.445C375.05 290.525 374.818 290.565 374.545 290.565ZM379.812 290.565C379.615 290.565 379.448 290.539 379.311 290.487C379.177 290.435 379.066 290.369 378.98 290.289C378.893 290.206 378.826 290.123 378.778 290.038C378.731 289.952 378.696 289.876 378.674 289.811L378.609 290.5H378.151V285.67H378.756V287.672C378.784 287.616 378.826 287.554 378.882 287.487C378.941 287.42 379.016 287.355 379.107 287.292C379.198 287.229 379.305 287.177 379.428 287.136C379.554 287.095 379.697 287.074 379.857 287.074C380.278 287.074 380.611 287.221 380.858 287.513C381.107 287.806 381.232 288.237 381.232 288.807C381.232 289.16 381.179 289.469 381.073 289.733C380.967 289.995 380.808 290.2 380.598 290.347C380.388 290.492 380.126 290.565 379.812 290.565ZM379.705 290.103C379.978 290.103 380.2 289.998 380.371 289.788C380.542 289.576 380.628 289.239 380.628 288.777C380.628 288.385 380.547 288.082 380.387 287.867C380.229 287.651 379.997 287.542 379.692 287.542C379.468 287.542 379.289 287.591 379.152 287.689C379.018 287.784 378.918 287.924 378.853 288.108C378.79 288.292 378.758 288.515 378.756 288.777C378.756 289.248 378.828 289.587 378.973 289.795C379.121 290.001 379.364 290.103 379.705 290.103ZM382.446 288.959C382.446 289.172 382.48 289.365 382.55 289.538C382.621 289.709 382.729 289.846 382.872 289.947C383.017 290.049 383.198 290.1 383.414 290.1C383.629 290.1 383.813 290.05 383.967 289.951C384.123 289.851 384.222 289.707 384.266 289.518H384.835C384.793 289.746 384.702 289.938 384.562 290.094C384.421 290.25 384.251 290.368 384.051 290.448C383.852 290.526 383.644 290.565 383.427 290.565C383.113 290.565 382.837 290.497 382.599 290.36C382.36 290.224 382.174 290.028 382.04 289.772C381.905 289.516 381.838 289.21 381.838 288.852C381.838 288.499 381.899 288.189 382.02 287.923C382.141 287.656 382.317 287.448 382.547 287.299C382.778 287.149 383.057 287.074 383.382 287.074C383.698 287.074 383.966 287.143 384.185 287.279C384.403 287.416 384.569 287.609 384.682 287.858C384.797 288.105 384.854 288.398 384.854 288.738V288.959H382.446ZM382.449 288.553H384.276C384.276 288.36 384.243 288.187 384.178 288.033C384.113 287.877 384.013 287.755 383.879 287.666C383.747 287.575 383.58 287.529 383.379 287.529C383.168 287.529 382.994 287.58 382.855 287.682C382.719 287.782 382.616 287.911 382.547 288.069C382.479 288.225 382.447 288.386 382.449 288.553ZM386.108 288.959C386.108 289.172 386.143 289.365 386.212 289.538C386.284 289.709 386.391 289.846 386.534 289.947C386.679 290.049 386.86 290.1 387.077 290.1C387.291 290.1 387.476 290.05 387.629 289.951C387.785 289.851 387.885 289.707 387.928 289.518H388.497C388.456 289.746 388.365 289.938 388.224 290.094C388.083 290.25 387.913 290.368 387.714 290.448C387.515 290.526 387.307 290.565 387.09 290.565C386.776 290.565 386.499 290.497 386.261 290.36C386.023 290.224 385.836 290.028 385.702 289.772C385.568 289.516 385.501 289.21 385.501 288.852C385.501 288.499 385.561 288.189 385.683 287.923C385.804 287.656 385.979 287.448 386.209 287.299C386.441 287.149 386.719 287.074 387.044 287.074C387.361 287.074 387.628 287.143 387.847 287.279C388.066 287.416 388.232 287.609 388.344 287.858C388.459 288.105 388.517 288.398 388.517 288.738V288.959H386.108ZM386.112 288.553H387.938C387.938 288.36 387.906 288.187 387.841 288.033C387.776 287.877 387.676 287.755 387.542 287.666C387.409 287.575 387.243 287.529 387.041 287.529C386.831 287.529 386.657 287.58 386.518 287.682C386.381 287.782 386.278 287.911 386.209 288.069C386.142 288.225 386.109 288.386 386.112 288.553ZM389.342 290.5V287.139H389.924V287.627C389.978 287.534 390.053 287.446 390.148 287.364C390.245 287.281 390.362 287.215 390.499 287.165C390.638 287.116 390.797 287.091 390.977 287.091C391.189 287.091 391.384 287.133 391.562 287.218C391.742 287.302 391.885 287.434 391.991 287.614C392.099 287.792 392.153 288.021 392.153 288.303V290.5H391.552V288.361C391.552 288.099 391.483 287.905 391.344 287.78C391.207 287.652 391.03 287.588 390.811 287.588C390.659 287.588 390.517 287.613 390.385 287.663C390.253 287.71 390.146 287.784 390.063 287.884C389.981 287.981 389.94 288.105 389.94 288.254V290.5H389.342ZM394.591 291.547V287.139H395.189L395.196 287.724C395.235 287.655 395.285 287.583 395.345 287.507C395.408 287.431 395.484 287.36 395.573 287.295C395.664 287.23 395.769 287.177 395.888 287.136C396.01 287.095 396.147 287.074 396.301 287.074C396.57 287.074 396.806 287.136 397.009 287.26C397.215 287.381 397.376 287.567 397.49 287.819C397.605 288.07 397.663 288.389 397.663 288.774C397.663 289.16 397.606 289.486 397.494 289.752C397.383 290.017 397.223 290.218 397.013 290.357C396.803 290.496 396.549 290.565 396.252 290.565C396.103 290.565 395.969 290.543 395.852 290.5C395.738 290.459 395.637 290.405 395.55 290.337C395.466 290.268 395.394 290.194 395.336 290.116C395.279 290.038 395.233 289.964 395.196 289.892V291.547H394.591ZM396.138 290.097C396.416 290.097 396.642 289.992 396.818 289.782C396.993 289.569 397.081 289.24 397.081 288.794C397.081 288.41 397.001 288.106 396.84 287.88C396.68 287.655 396.446 287.542 396.138 287.542C395.826 287.542 395.59 287.658 395.43 287.89C395.27 288.12 395.189 288.421 395.189 288.794C395.189 289.034 395.225 289.253 395.297 289.45C395.368 289.647 395.474 289.804 395.615 289.921C395.756 290.038 395.93 290.097 396.138 290.097ZM398.451 290.5V287.139H399.023V287.786C399.079 287.626 399.158 287.494 399.26 287.39C399.362 287.284 399.478 287.204 399.608 287.152C399.74 287.1 399.877 287.074 400.017 287.074C400.067 287.074 400.116 287.078 400.164 287.084C400.211 287.091 400.248 287.102 400.274 287.117V287.698C400.242 287.683 400.199 287.674 400.147 287.669C400.098 287.663 400.055 287.659 400.021 287.659C399.886 287.651 399.761 287.659 399.644 287.685C399.527 287.709 399.424 287.752 399.335 287.812C399.246 287.873 399.176 287.953 399.124 288.053C399.074 288.15 399.049 288.269 399.049 288.41V290.5H398.451ZM402.23 290.565C401.921 290.565 401.65 290.499 401.418 290.367C401.186 290.232 401.006 290.036 400.878 289.778C400.751 289.521 400.687 289.205 400.687 288.833C400.687 288.482 400.746 288.174 400.865 287.91C400.985 287.645 401.159 287.441 401.389 287.295C401.621 287.148 401.901 287.074 402.23 287.074C402.54 287.074 402.809 287.143 403.036 287.279C403.266 287.414 403.444 287.612 403.569 287.874C403.695 288.136 403.758 288.456 403.758 288.833C403.758 289.175 403.699 289.476 403.582 289.736C403.468 289.996 403.296 290.2 403.069 290.347C402.844 290.492 402.564 290.565 402.23 290.565ZM402.23 290.09C402.432 290.09 402.602 290.04 402.741 289.938C402.879 289.836 402.984 289.69 403.056 289.499C403.127 289.308 403.163 289.082 403.163 288.82C403.163 288.579 403.132 288.364 403.069 288.173C403.006 287.98 402.905 287.827 402.767 287.715C402.63 287.602 402.451 287.546 402.23 287.546C402.027 287.546 401.855 287.597 401.714 287.698C401.573 287.798 401.466 287.943 401.392 288.134C401.32 288.325 401.285 288.553 401.285 288.82C401.285 289.056 401.317 289.27 401.382 289.463C401.447 289.656 401.549 289.809 401.688 289.921C401.826 290.034 402.007 290.09 402.23 290.09ZM405.884 287.074C406.124 287.074 406.341 287.121 406.534 287.214C406.726 287.305 406.884 287.435 407.005 287.604C407.128 287.773 407.205 287.973 407.236 288.202H406.703C406.683 288.085 406.638 287.978 406.566 287.88C406.497 287.783 406.405 287.705 406.29 287.646C406.175 287.588 406.041 287.559 405.887 287.559C405.599 287.559 405.365 287.663 405.185 287.871C405.005 288.079 404.915 288.397 404.915 288.826C404.915 289.214 404.997 289.525 405.162 289.759C405.329 289.991 405.574 290.107 405.897 290.107C406.05 290.107 406.184 290.077 406.296 290.019C406.411 289.958 406.503 289.879 406.573 289.782C406.642 289.682 406.686 289.576 406.706 289.463H407.229C407.201 289.689 407.125 289.884 407.002 290.048C406.878 290.213 406.72 290.341 406.527 290.432C406.336 290.521 406.122 290.565 405.884 290.565C405.582 290.565 405.315 290.499 405.081 290.367C404.849 290.235 404.667 290.04 404.535 289.782C404.403 289.524 404.337 289.208 404.337 288.833C404.337 288.482 404.396 288.175 404.515 287.913C404.637 287.649 404.812 287.443 405.042 287.295C405.274 287.148 405.554 287.074 405.884 287.074ZM408.478 288.959C408.478 289.172 408.512 289.365 408.582 289.538C408.653 289.709 408.76 289.846 408.903 289.947C409.048 290.049 409.229 290.1 409.446 290.1C409.661 290.1 409.845 290.05 409.999 289.951C410.155 289.851 410.254 289.707 410.298 289.518H410.866C410.825 289.746 410.734 289.938 410.593 290.094C410.452 290.25 410.282 290.368 410.083 290.448C409.884 290.526 409.676 290.565 409.459 290.565C409.145 290.565 408.869 290.497 408.63 290.36C408.392 290.224 408.206 290.028 408.071 289.772C407.937 289.516 407.87 289.21 407.87 288.852C407.87 288.499 407.93 288.189 408.052 287.923C408.173 287.656 408.349 287.448 408.578 287.299C408.81 287.149 409.089 287.074 409.414 287.074C409.73 287.074 409.997 287.143 410.216 287.279C410.435 287.416 410.601 287.609 410.714 287.858C410.828 288.105 410.886 288.398 410.886 288.738V288.959H408.478ZM408.481 288.553H410.307C410.307 288.36 410.275 288.187 410.21 288.033C410.145 287.877 410.045 287.755 409.911 287.666C409.779 287.575 409.612 287.529 409.41 287.529C409.2 287.529 409.026 287.58 408.887 287.682C408.751 287.782 408.648 287.911 408.578 288.069C408.511 288.225 408.479 288.386 408.481 288.553ZM412.878 290.565C412.644 290.565 412.427 290.529 412.225 290.458C412.026 290.384 411.86 290.27 411.728 290.116C411.596 289.96 411.512 289.762 411.478 289.522H412.024C412.054 289.654 412.108 289.764 412.186 289.853C412.266 289.94 412.366 290.006 412.485 290.051C412.604 290.095 412.734 290.116 412.875 290.116C413.101 290.116 413.283 290.074 413.421 289.99C413.56 289.905 413.629 289.775 413.629 289.6C413.629 289.476 413.592 289.378 413.519 289.304C413.447 289.228 413.336 289.173 413.184 289.138L412.488 288.966C412.218 288.901 412.001 288.799 411.838 288.66C411.676 288.522 411.595 288.328 411.595 288.079C411.593 287.882 411.639 287.708 411.734 287.559C411.83 287.409 411.973 287.291 412.163 287.204C412.354 287.118 412.591 287.074 412.875 287.074C413.239 287.074 413.533 287.157 413.756 287.321C413.981 287.484 414.098 287.723 414.107 288.04H413.577C413.556 287.879 413.483 287.753 413.359 287.659C413.238 287.564 413.075 287.516 412.869 287.516C412.654 287.516 412.48 287.56 412.345 287.646C412.211 287.731 412.144 287.863 412.144 288.043C412.144 288.162 412.192 288.256 412.287 288.326C412.382 288.393 412.523 288.449 412.709 288.495L413.382 288.664C413.538 288.705 413.666 288.759 413.766 288.826C413.868 288.893 413.948 288.968 414.006 289.05C414.067 289.133 414.109 289.219 414.133 289.31C414.159 289.399 414.172 289.485 414.172 289.567C414.172 289.773 414.12 289.951 414.016 290.1C413.914 290.248 413.767 290.362 413.574 290.445C413.383 290.525 413.151 290.565 412.878 290.565ZM416.148 290.565C415.914 290.565 415.696 290.529 415.494 290.458C415.295 290.384 415.129 290.27 414.997 290.116C414.865 289.96 414.781 289.762 414.747 289.522H415.293C415.323 289.654 415.377 289.764 415.455 289.853C415.535 289.94 415.635 290.006 415.754 290.051C415.873 290.095 416.003 290.116 416.144 290.116C416.37 290.116 416.552 290.074 416.69 289.99C416.829 289.905 416.898 289.775 416.898 289.6C416.898 289.476 416.861 289.378 416.788 289.304C416.716 289.228 416.605 289.173 416.453 289.138L415.758 288.966C415.487 288.901 415.27 288.799 415.108 288.66C414.945 288.522 414.864 288.328 414.864 288.079C414.862 287.882 414.908 287.708 415.004 287.559C415.099 287.409 415.242 287.291 415.433 287.204C415.623 287.118 415.86 287.074 416.144 287.074C416.508 287.074 416.802 287.157 417.025 287.321C417.25 287.484 417.367 287.723 417.376 288.04H416.846C416.825 287.879 416.752 287.753 416.629 287.659C416.507 287.564 416.344 287.516 416.138 287.516C415.923 287.516 415.749 287.56 415.615 287.646C415.48 287.731 415.413 287.863 415.413 288.043C415.413 288.162 415.461 288.256 415.556 288.326C415.651 288.393 415.792 288.449 415.979 288.495L416.651 288.664C416.807 288.705 416.935 288.759 417.035 288.826C417.137 288.893 417.217 288.968 417.275 289.05C417.336 289.133 417.378 289.219 417.402 289.31C417.428 289.399 417.441 289.485 417.441 289.567C417.441 289.773 417.389 289.951 417.285 290.1C417.183 290.248 417.036 290.362 416.843 290.445C416.652 290.525 416.421 290.565 416.148 290.565ZM418.71 288.959C418.71 289.172 418.745 289.365 418.814 289.538C418.885 289.709 418.993 289.846 419.136 289.947C419.281 290.049 419.462 290.1 419.678 290.1C419.893 290.1 420.077 290.05 420.231 289.951C420.387 289.851 420.487 289.707 420.53 289.518H421.099C421.058 289.746 420.967 289.938 420.826 290.094C420.685 290.25 420.515 290.368 420.315 290.448C420.116 290.526 419.908 290.565 419.691 290.565C419.377 290.565 419.101 290.497 418.863 290.36C418.624 290.224 418.438 290.028 418.304 289.772C418.169 289.516 418.102 289.21 418.102 288.852C418.102 288.499 418.163 288.189 418.284 287.923C418.406 287.656 418.581 287.448 418.811 287.299C419.043 287.149 419.321 287.074 419.646 287.074C419.962 287.074 420.23 287.143 420.449 287.279C420.668 287.416 420.833 287.609 420.946 287.858C421.061 288.105 421.118 288.398 421.118 288.738V288.959H418.71ZM418.713 288.553H420.54C420.54 288.36 420.507 288.187 420.442 288.033C420.377 287.877 420.278 287.755 420.143 287.666C420.011 287.575 419.844 287.529 419.643 287.529C419.433 287.529 419.258 287.58 419.119 287.682C418.983 287.782 418.88 287.911 418.811 288.069C418.744 288.225 418.711 288.386 418.713 288.553ZM423.156 290.565C422.72 290.565 422.375 290.415 422.119 290.116C421.863 289.817 421.736 289.381 421.736 288.807C421.736 288.458 421.786 288.153 421.888 287.893C421.992 287.633 422.146 287.432 422.35 287.289C422.553 287.146 422.807 287.074 423.11 287.074C423.271 287.074 423.413 287.095 423.536 287.136C423.662 287.177 423.77 287.229 423.861 287.292C423.952 287.355 424.026 287.42 424.082 287.487C424.141 287.554 424.184 287.616 424.212 287.672V285.67H424.817V290.5H424.358L424.293 289.811C424.272 289.876 424.237 289.952 424.189 290.038C424.142 290.123 424.074 290.206 423.988 290.289C423.901 290.369 423.79 290.435 423.653 290.487C423.519 290.539 423.353 290.565 423.156 290.565ZM423.263 290.103C423.603 290.103 423.846 290.001 423.991 289.795C424.138 289.587 424.212 289.248 424.212 288.777C424.21 288.515 424.176 288.292 424.111 288.108C424.048 287.924 423.949 287.784 423.812 287.689C423.678 287.591 423.499 287.542 423.276 287.542C422.999 287.542 422.773 287.641 422.6 287.838C422.427 288.035 422.34 288.348 422.34 288.777C422.34 289.198 422.418 289.524 422.574 289.756C422.732 289.988 422.962 290.103 423.263 290.103ZM425.67 290.5V289.733H426.385V290.5H425.67ZM325.15 294.353V293.8H328.705V294.353H327.272V298.5H326.667V294.353H325.15ZM329.357 298.5V293.67H329.942V295.633C329.998 295.54 330.074 295.454 330.169 295.373C330.264 295.291 330.38 295.225 330.517 295.175C330.653 295.123 330.812 295.097 330.991 295.097C331.21 295.097 331.408 295.138 331.586 295.221C331.764 295.301 331.905 295.416 332.009 295.565C332.113 295.715 332.165 295.892 332.165 296.098V298.5H331.563V296.218C331.563 296.017 331.494 295.862 331.355 295.754C331.219 295.643 331.04 295.588 330.819 295.588C330.67 295.588 330.529 295.613 330.397 295.663C330.264 295.71 330.157 295.784 330.075 295.884C329.995 295.981 329.955 296.106 329.955 296.257V298.5H329.357ZM333.531 296.959C333.531 297.172 333.565 297.365 333.635 297.538C333.706 297.709 333.813 297.846 333.956 297.947C334.102 298.049 334.283 298.1 334.499 298.1C334.714 298.1 334.898 298.05 335.052 297.951C335.208 297.851 335.307 297.707 335.351 297.518H335.919C335.878 297.746 335.787 297.938 335.646 298.094C335.506 298.25 335.336 298.368 335.136 298.448C334.937 298.526 334.729 298.565 334.512 298.565C334.198 298.565 333.922 298.497 333.683 298.36C333.445 298.224 333.259 298.028 333.124 297.772C332.99 297.516 332.923 297.21 332.923 296.852C332.923 296.499 332.984 296.189 333.105 295.923C333.226 295.656 333.402 295.448 333.631 295.299C333.863 295.149 334.142 295.074 334.467 295.074C334.783 295.074 335.051 295.143 335.269 295.279C335.488 295.416 335.654 295.609 335.767 295.858C335.882 296.105 335.939 296.398 335.939 296.738V296.959H333.531ZM333.534 296.553H335.36C335.36 296.36 335.328 296.187 335.263 296.033C335.198 295.877 335.098 295.755 334.964 295.666C334.832 295.575 334.665 295.529 334.463 295.529C334.253 295.529 334.079 295.58 333.94 295.682C333.804 295.782 333.701 295.911 333.631 296.069C333.564 296.225 333.532 296.386 333.534 296.553ZM339.925 295.578H339.168V297.668C339.168 297.787 339.18 297.875 339.204 297.931C339.23 297.985 339.272 298.02 339.331 298.035C339.391 298.05 339.474 298.058 339.578 298.058H339.945V298.461C339.904 298.476 339.841 298.489 339.756 298.5C339.674 298.511 339.571 298.516 339.448 298.516C339.216 298.516 339.036 298.485 338.908 298.422C338.78 298.359 338.69 298.266 338.638 298.142C338.588 298.019 338.564 297.867 338.564 297.688V295.578H338.018V295.139H338.58L338.726 294.161H339.168V295.136H339.925V295.578ZM342.036 298.565C341.726 298.565 341.455 298.499 341.223 298.367C340.991 298.232 340.811 298.036 340.684 297.778C340.556 297.521 340.492 297.205 340.492 296.833C340.492 296.482 340.551 296.174 340.671 295.91C340.79 295.645 340.964 295.441 341.194 295.295C341.426 295.148 341.706 295.074 342.036 295.074C342.345 295.074 342.614 295.143 342.842 295.279C343.071 295.414 343.249 295.612 343.375 295.874C343.5 296.136 343.563 296.456 343.563 296.833C343.563 297.175 343.505 297.476 343.388 297.736C343.273 297.996 343.102 298.2 342.874 298.347C342.649 298.492 342.369 298.565 342.036 298.565ZM342.036 298.09C342.237 298.09 342.407 298.04 342.546 297.938C342.685 297.836 342.79 297.69 342.861 297.499C342.933 297.308 342.968 297.082 342.968 296.82C342.968 296.579 342.937 296.364 342.874 296.173C342.811 295.98 342.711 295.827 342.572 295.715C342.435 295.602 342.257 295.546 342.036 295.546C341.832 295.546 341.66 295.597 341.519 295.698C341.378 295.798 341.271 295.943 341.197 296.134C341.126 296.325 341.09 296.553 341.09 296.82C341.09 297.056 341.122 297.27 341.187 297.463C341.252 297.656 341.354 297.809 341.493 297.921C341.632 298.034 341.812 298.09 342.036 298.09ZM345.949 295.578H345.192V297.668C345.192 297.787 345.204 297.875 345.228 297.931C345.254 297.985 345.296 298.02 345.354 298.035C345.415 298.05 345.497 298.058 345.601 298.058H345.969V298.461C345.928 298.476 345.865 298.489 345.78 298.5C345.698 298.511 345.595 298.516 345.471 298.516C345.24 298.516 345.06 298.485 344.932 298.422C344.804 298.359 344.714 298.266 344.662 298.142C344.612 298.019 344.587 297.867 344.587 297.688V295.578H344.041V295.139H344.604L344.75 294.161H345.192V295.136H345.949V295.578ZM347.717 298.565C347.5 298.565 347.308 298.527 347.142 298.451C346.975 298.373 346.844 298.262 346.748 298.116C346.655 297.971 346.609 297.796 346.609 297.59C346.609 297.217 346.739 296.94 346.999 296.758C347.259 296.576 347.676 296.478 348.25 296.465L348.851 296.449V296.186C348.851 295.98 348.789 295.818 348.666 295.698C348.542 295.577 348.351 295.516 348.091 295.516C347.898 295.519 347.728 295.564 347.58 295.653C347.435 295.742 347.341 295.887 347.298 296.088H346.768C346.781 295.87 346.843 295.685 346.953 295.536C347.064 295.384 347.217 295.269 347.415 295.191C347.614 295.113 347.849 295.074 348.12 295.074C348.412 295.074 348.655 295.116 348.848 295.198C349.043 295.28 349.188 295.402 349.283 295.562C349.381 295.722 349.43 295.919 349.43 296.153V298.5H348.916L348.874 297.869C348.744 298.132 348.578 298.314 348.377 298.415C348.177 298.515 347.957 298.565 347.717 298.565ZM347.899 298.133C348.011 298.133 348.123 298.112 348.234 298.071C348.346 298.03 348.449 297.975 348.542 297.905C348.635 297.834 348.709 297.755 348.763 297.668C348.82 297.579 348.849 297.488 348.851 297.395V296.82L348.351 296.83C348.095 296.834 347.88 296.86 347.707 296.907C347.536 296.955 347.407 297.03 347.32 297.132C347.236 297.234 347.194 297.367 347.194 297.531C347.194 297.72 347.259 297.867 347.389 297.973C347.521 298.08 347.691 298.133 347.899 298.133ZM351.304 298.542C351.122 298.542 350.975 298.517 350.862 298.467C350.752 298.418 350.666 298.35 350.606 298.266C350.547 298.181 350.507 298.085 350.485 297.977C350.466 297.866 350.456 297.752 350.456 297.635V293.67H351.048V297.577C351.048 297.746 351.08 297.873 351.145 297.957C351.212 298.042 351.306 298.088 351.425 298.097L351.607 298.1V298.49C351.557 298.505 351.505 298.517 351.451 298.526C351.397 298.537 351.348 298.542 351.304 298.542ZM354.82 298.565C354.603 298.565 354.411 298.527 354.245 298.451C354.078 298.373 353.947 298.262 353.851 298.116C353.758 297.971 353.712 297.796 353.712 297.59C353.712 297.217 353.842 296.94 354.102 296.758C354.362 296.576 354.779 296.478 355.353 296.465L355.954 296.449V296.186C355.954 295.98 355.892 295.818 355.769 295.698C355.645 295.577 355.454 295.516 355.194 295.516C355.001 295.519 354.831 295.564 354.683 295.653C354.538 295.742 354.444 295.887 354.401 296.088H353.871C353.884 295.87 353.946 295.685 354.056 295.536C354.167 295.384 354.32 295.269 354.518 295.191C354.717 295.113 354.952 295.074 355.223 295.074C355.515 295.074 355.758 295.116 355.951 295.198C356.146 295.28 356.291 295.402 356.386 295.562C356.484 295.722 356.533 295.919 356.533 296.153V298.5H356.019L355.977 297.869C355.847 298.132 355.681 298.314 355.48 298.415C355.28 298.515 355.06 298.565 354.82 298.565ZM355.002 298.133C355.114 298.133 355.226 298.112 355.337 298.071C355.449 298.03 355.552 297.975 355.645 297.905C355.738 297.834 355.812 297.755 355.866 297.668C355.923 297.579 355.952 297.488 355.954 297.395V296.82L355.454 296.83C355.198 296.834 354.983 296.86 354.81 296.907C354.639 296.955 354.51 297.03 354.423 297.132C354.339 297.234 354.297 297.367 354.297 297.531C354.297 297.72 354.362 297.867 354.492 297.973C354.624 298.08 354.794 298.133 355.002 298.133ZM357.559 298.5V295.139H358.138V295.627C358.231 295.48 358.359 295.351 358.521 295.24C358.684 295.13 358.895 295.074 359.155 295.074C359.276 295.074 359.4 295.095 359.526 295.136C359.653 295.177 359.77 295.239 359.877 295.321C359.983 295.404 360.065 295.505 360.124 295.624C360.228 295.459 360.368 295.327 360.546 295.227C360.724 295.125 360.924 295.074 361.147 295.074C361.264 295.074 361.387 295.093 361.515 295.13C361.642 295.164 361.76 295.227 361.869 295.318C361.979 295.407 362.069 295.532 362.139 295.692C362.208 295.85 362.243 296.054 362.243 296.303V298.5H361.638V296.361C361.638 296.158 361.606 296.001 361.541 295.89C361.476 295.778 361.39 295.698 361.284 295.653C361.18 295.607 361.068 295.585 360.949 295.585C360.845 295.585 360.735 295.605 360.618 295.646C360.501 295.688 360.401 295.757 360.319 295.854C360.236 295.952 360.195 296.085 360.195 296.254V298.5H359.597V296.186C359.597 296.054 359.561 295.943 359.49 295.854C359.42 295.766 359.333 295.698 359.227 295.653C359.123 295.607 359.019 295.585 358.915 295.585C358.8 295.585 358.684 295.607 358.567 295.653C358.452 295.698 358.354 295.771 358.274 295.871C358.196 295.968 358.157 296.096 358.157 296.254V298.5H357.559ZM364.519 298.565C364.209 298.565 363.938 298.499 363.707 298.367C363.475 298.232 363.295 298.036 363.167 297.778C363.039 297.521 362.975 297.205 362.975 296.833C362.975 296.482 363.035 296.174 363.154 295.91C363.273 295.645 363.448 295.441 363.677 295.295C363.909 295.148 364.19 295.074 364.519 295.074C364.829 295.074 365.098 295.143 365.325 295.279C365.555 295.414 365.732 295.612 365.858 295.874C365.984 296.136 366.047 296.456 366.047 296.833C366.047 297.175 365.988 297.476 365.871 297.736C365.756 297.996 365.585 298.2 365.358 298.347C365.132 298.492 364.853 298.565 364.519 298.565ZM364.519 298.09C364.721 298.09 364.891 298.04 365.029 297.938C365.168 297.836 365.273 297.69 365.345 297.499C365.416 297.308 365.452 297.082 365.452 296.82C365.452 296.579 365.42 296.364 365.358 296.173C365.295 295.98 365.194 295.827 365.055 295.715C364.919 295.602 364.74 295.546 364.519 295.546C364.315 295.546 364.143 295.597 364.002 295.698C363.861 295.798 363.754 295.943 363.681 296.134C363.609 296.325 363.573 296.553 363.573 296.82C363.573 297.056 363.606 297.27 363.671 297.463C363.736 297.656 363.838 297.809 363.976 297.921C364.115 298.034 364.296 298.09 364.519 298.09ZM368.011 298.565C367.836 298.563 367.67 298.538 367.514 298.49C367.36 298.44 367.223 298.368 367.104 298.272C366.985 298.177 366.891 298.059 366.822 297.918C366.754 297.775 366.721 297.609 366.721 297.421V295.139H367.322V297.359C367.322 297.578 367.389 297.756 367.524 297.892C367.66 298.029 367.865 298.097 368.138 298.097C368.385 298.097 368.583 298.033 368.733 297.905C368.884 297.775 368.96 297.582 368.96 297.327V295.139H369.558V298.5H369.08L369.019 297.856C368.977 298.025 368.907 298.162 368.807 298.266C368.71 298.37 368.592 298.447 368.453 298.497C368.317 298.544 368.169 298.567 368.011 298.565ZM370.54 298.5V295.139H371.122V295.627C371.176 295.534 371.251 295.446 371.346 295.364C371.444 295.281 371.561 295.215 371.697 295.165C371.836 295.116 371.995 295.091 372.175 295.091C372.387 295.091 372.582 295.133 372.76 295.218C372.94 295.302 373.083 295.434 373.189 295.614C373.297 295.792 373.351 296.021 373.351 296.303V298.5H372.75V296.361C372.75 296.099 372.681 295.905 372.542 295.78C372.406 295.652 372.228 295.588 372.009 295.588C371.858 295.588 371.716 295.613 371.583 295.663C371.451 295.71 371.344 295.784 371.262 295.884C371.179 295.981 371.138 296.105 371.138 296.254V298.5H370.54ZM375.84 295.578H375.083V297.668C375.083 297.787 375.095 297.875 375.119 297.931C375.145 297.985 375.187 298.02 375.246 298.035C375.306 298.05 375.389 298.058 375.493 298.058H375.86V298.461C375.819 298.476 375.756 298.489 375.671 298.5C375.589 298.511 375.486 298.516 375.363 298.516C375.131 298.516 374.951 298.485 374.823 298.422C374.695 298.359 374.605 298.266 374.553 298.142C374.503 298.019 374.479 297.867 374.479 297.688V295.578H373.933V295.139H374.495L374.641 294.161H375.083V295.136H375.84V295.578ZM379.332 298.565C378.896 298.565 378.55 298.415 378.295 298.116C378.039 297.817 377.911 297.381 377.911 296.807C377.911 296.458 377.962 296.153 378.064 295.893C378.168 295.633 378.322 295.432 378.526 295.289C378.729 295.146 378.983 295.074 379.286 295.074C379.446 295.074 379.588 295.095 379.712 295.136C379.837 295.177 379.946 295.229 380.037 295.292C380.128 295.355 380.201 295.42 380.258 295.487C380.316 295.554 380.36 295.616 380.388 295.672V293.67H380.992V298.5H380.534L380.469 297.811C380.447 297.876 380.413 297.952 380.365 298.038C380.317 298.123 380.25 298.206 380.164 298.289C380.077 298.369 379.965 298.435 379.829 298.487C379.694 298.539 379.529 298.565 379.332 298.565ZM379.439 298.103C379.779 298.103 380.022 298.001 380.167 297.795C380.314 297.587 380.388 297.248 380.388 296.777C380.386 296.515 380.352 296.292 380.287 296.108C380.224 295.924 380.125 295.784 379.988 295.689C379.854 295.591 379.675 295.542 379.452 295.542C379.174 295.542 378.949 295.641 378.776 295.838C378.602 296.035 378.516 296.348 378.516 296.777C378.516 297.198 378.594 297.524 378.75 297.756C378.908 297.988 379.138 298.103 379.439 298.103ZM382.414 296.959C382.414 297.172 382.449 297.365 382.518 297.538C382.59 297.709 382.697 297.846 382.84 297.947C382.985 298.049 383.166 298.1 383.383 298.1C383.597 298.1 383.781 298.05 383.935 297.951C384.091 297.851 384.191 297.707 384.234 297.518H384.803C384.762 297.746 384.671 297.938 384.53 298.094C384.389 298.25 384.219 298.368 384.02 298.448C383.82 298.526 383.612 298.565 383.396 298.565C383.081 298.565 382.805 298.497 382.567 298.36C382.328 298.224 382.142 298.028 382.008 297.772C381.873 297.516 381.806 297.21 381.806 296.852C381.806 296.499 381.867 296.189 381.988 295.923C382.11 295.656 382.285 295.448 382.515 295.299C382.747 295.149 383.025 295.074 383.35 295.074C383.666 295.074 383.934 295.143 384.153 295.279C384.372 295.416 384.537 295.609 384.65 295.858C384.765 296.105 384.822 296.398 384.822 296.738V296.959H382.414ZM382.417 296.553H384.244C384.244 296.36 384.211 296.187 384.146 296.033C384.081 295.877 383.982 295.755 383.847 295.666C383.715 295.575 383.548 295.529 383.347 295.529C383.137 295.529 382.962 295.58 382.824 295.682C382.687 295.782 382.584 295.911 382.515 296.069C382.448 296.225 382.415 296.386 382.417 296.553ZM386.86 298.565C386.424 298.565 386.079 298.415 385.823 298.116C385.567 297.817 385.44 297.381 385.44 296.807C385.44 296.458 385.491 296.153 385.592 295.893C385.696 295.633 385.85 295.432 386.054 295.289C386.258 295.146 386.511 295.074 386.814 295.074C386.975 295.074 387.117 295.095 387.24 295.136C387.366 295.177 387.474 295.229 387.565 295.292C387.656 295.355 387.73 295.42 387.786 295.487C387.845 295.554 387.888 295.616 387.916 295.672V293.67H388.521V298.5H388.062L387.997 297.811C387.976 297.876 387.941 297.952 387.893 298.038C387.846 298.123 387.779 298.206 387.692 298.289C387.605 298.369 387.494 298.435 387.357 298.487C387.223 298.539 387.057 298.565 386.86 298.565ZM386.967 298.103C387.307 298.103 387.55 298.001 387.695 297.795C387.842 297.587 387.916 297.248 387.916 296.777C387.914 296.515 387.88 296.292 387.815 296.108C387.753 295.924 387.653 295.784 387.516 295.689C387.382 295.591 387.203 295.542 386.98 295.542C386.703 295.542 386.477 295.641 386.304 295.838C386.131 296.035 386.044 296.348 386.044 296.777C386.044 297.198 386.122 297.524 386.278 297.756C386.436 297.988 386.666 298.103 386.967 298.103ZM390.748 298.565C390.573 298.563 390.407 298.538 390.251 298.49C390.097 298.44 389.961 298.368 389.842 298.272C389.722 298.177 389.628 298.059 389.559 297.918C389.492 297.775 389.458 297.609 389.458 297.421V295.139H390.059V297.359C390.059 297.578 390.127 297.756 390.261 297.892C390.397 298.029 390.602 298.097 390.875 298.097C391.122 298.097 391.32 298.033 391.47 297.905C391.622 297.775 391.697 297.582 391.697 297.327V295.139H392.295V298.5H391.818L391.756 297.856C391.715 298.025 391.644 298.162 391.545 298.266C391.447 298.37 391.329 298.447 391.19 298.497C391.054 298.544 390.907 298.567 390.748 298.565ZM394.572 295.074C394.813 295.074 395.029 295.121 395.222 295.214C395.415 295.305 395.572 295.435 395.693 295.604C395.817 295.773 395.894 295.973 395.924 296.202H395.391C395.372 296.085 395.326 295.978 395.255 295.88C395.185 295.783 395.093 295.705 394.978 295.646C394.864 295.588 394.729 295.559 394.575 295.559C394.287 295.559 394.053 295.663 393.873 295.871C393.694 296.079 393.604 296.397 393.604 296.826C393.604 297.214 393.686 297.525 393.851 297.759C394.017 297.991 394.262 298.107 394.585 298.107C394.739 298.107 394.872 298.077 394.985 298.019C395.1 297.958 395.192 297.879 395.261 297.782C395.33 297.682 395.375 297.576 395.394 297.463H395.918C395.889 297.689 395.814 297.884 395.69 298.048C395.567 298.213 395.408 298.341 395.216 298.432C395.025 298.521 394.81 298.565 394.572 298.565C394.271 298.565 394.003 298.499 393.769 298.367C393.538 298.235 393.356 298.04 393.223 297.782C393.091 297.524 393.025 297.208 393.025 296.833C393.025 296.482 393.085 296.175 393.204 295.913C393.325 295.649 393.501 295.443 393.73 295.295C393.962 295.148 394.243 295.074 394.572 295.074ZM398.336 295.578H397.579V297.668C397.579 297.787 397.591 297.875 397.615 297.931C397.641 297.985 397.683 298.02 397.742 298.035C397.802 298.05 397.885 298.058 397.989 298.058H398.356V298.461C398.315 298.476 398.252 298.489 398.167 298.5C398.085 298.511 397.982 298.516 397.859 298.516C397.627 298.516 397.447 298.485 397.319 298.422C397.191 298.359 397.101 298.266 397.049 298.142C397 298.019 396.975 297.867 396.975 297.688V295.578H396.429V295.139H396.991L397.137 294.161H397.579V295.136H398.336V295.578ZM399.54 296.959C399.54 297.172 399.575 297.365 399.644 297.538C399.716 297.709 399.823 297.846 399.966 297.947C400.111 298.049 400.292 298.1 400.509 298.1C400.723 298.1 400.907 298.05 401.061 297.951C401.217 297.851 401.317 297.707 401.36 297.518H401.929C401.888 297.746 401.797 297.938 401.656 298.094C401.515 298.25 401.345 298.368 401.146 298.448C400.946 298.526 400.738 298.565 400.522 298.565C400.207 298.565 399.931 298.497 399.693 298.36C399.454 298.224 399.268 298.028 399.134 297.772C398.999 297.516 398.932 297.21 398.932 296.852C398.932 296.499 398.993 296.189 399.114 295.923C399.236 295.656 399.411 295.448 399.641 295.299C399.873 295.149 400.151 295.074 400.476 295.074C400.792 295.074 401.06 295.143 401.279 295.279C401.498 295.416 401.663 295.609 401.776 295.858C401.891 296.105 401.948 296.398 401.948 296.738V296.959H399.54ZM399.543 296.553H401.37C401.37 296.36 401.337 296.187 401.272 296.033C401.207 295.877 401.108 295.755 400.973 295.666C400.841 295.575 400.674 295.529 400.473 295.529C400.263 295.529 400.088 295.58 399.95 295.682C399.813 295.782 399.71 295.911 399.641 296.069C399.574 296.225 399.541 296.386 399.543 296.553ZM403.986 298.565C403.55 298.565 403.205 298.415 402.949 298.116C402.693 297.817 402.566 297.381 402.566 296.807C402.566 296.458 402.617 296.153 402.718 295.893C402.822 295.633 402.976 295.432 403.18 295.289C403.384 295.146 403.637 295.074 403.94 295.074C404.101 295.074 404.243 295.095 404.366 295.136C404.492 295.177 404.6 295.229 404.691 295.292C404.782 295.355 404.856 295.42 404.912 295.487C404.971 295.554 405.014 295.616 405.042 295.672V293.67H405.647V298.5H405.188L405.123 297.811C405.102 297.876 405.067 297.952 405.019 298.038C404.972 298.123 404.905 298.206 404.818 298.289C404.731 298.369 404.62 298.435 404.483 298.487C404.349 298.539 404.183 298.565 403.986 298.565ZM404.093 298.103C404.433 298.103 404.676 298.001 404.821 297.795C404.968 297.587 405.042 297.248 405.042 296.777C405.04 296.515 405.006 296.292 404.941 296.108C404.879 295.924 404.779 295.784 404.642 295.689C404.508 295.591 404.329 295.542 404.106 295.542C403.829 295.542 403.603 295.641 403.43 295.838C403.257 296.035 403.17 296.348 403.17 296.777C403.17 297.198 403.248 297.524 403.404 297.756C403.562 297.988 403.792 298.103 404.093 298.103ZM410.035 295.139V295.578H409.22V298.5H408.615V295.578H407.907V295.139H408.615V294.619C408.615 294.353 408.683 294.15 408.82 294.012C408.956 293.871 409.16 293.8 409.431 293.8H410.065L410.068 294.226H409.564C409.428 294.226 409.334 294.263 409.285 294.337C409.235 294.41 409.21 294.522 409.21 294.671V295.139H410.035ZM410.778 298.5V295.139H411.35V295.786C411.406 295.626 411.485 295.494 411.587 295.39C411.689 295.284 411.805 295.204 411.935 295.152C412.067 295.1 412.204 295.074 412.345 295.074C412.394 295.074 412.443 295.078 412.491 295.084C412.538 295.091 412.575 295.102 412.601 295.117V295.698C412.569 295.683 412.527 295.674 412.475 295.669C412.425 295.663 412.382 295.659 412.348 295.659C412.213 295.651 412.088 295.659 411.971 295.685C411.854 295.709 411.751 295.752 411.662 295.812C411.573 295.873 411.503 295.953 411.451 296.053C411.401 296.15 411.376 296.269 411.376 296.41V298.5H410.778ZM414.558 298.565C414.248 298.565 413.977 298.499 413.745 298.367C413.513 298.232 413.333 298.036 413.206 297.778C413.078 297.521 413.014 297.205 413.014 296.833C413.014 296.482 413.073 296.174 413.193 295.91C413.312 295.645 413.486 295.441 413.716 295.295C413.948 295.148 414.228 295.074 414.558 295.074C414.867 295.074 415.136 295.143 415.364 295.279C415.593 295.414 415.771 295.612 415.897 295.874C416.022 296.136 416.085 296.456 416.085 296.833C416.085 297.175 416.027 297.476 415.91 297.736C415.795 297.996 415.624 298.2 415.396 298.347C415.171 298.492 414.891 298.565 414.558 298.565ZM414.558 298.09C414.759 298.09 414.929 298.04 415.068 297.938C415.207 297.836 415.312 297.69 415.383 297.499C415.455 297.308 415.49 297.082 415.49 296.82C415.49 296.579 415.459 296.364 415.396 296.173C415.333 295.98 415.233 295.827 415.094 295.715C414.957 295.602 414.779 295.546 414.558 295.546C414.354 295.546 414.182 295.597 414.041 295.698C413.9 295.798 413.793 295.943 413.719 296.134C413.648 296.325 413.612 296.553 413.612 296.82C413.612 297.056 413.644 297.27 413.709 297.463C413.774 297.656 413.876 297.809 414.015 297.921C414.154 298.034 414.334 298.09 414.558 298.09ZM416.872 298.5V295.139H417.45V295.627C417.543 295.48 417.671 295.351 417.834 295.24C417.996 295.13 418.208 295.074 418.468 295.074C418.589 295.074 418.712 295.095 418.838 295.136C418.966 295.177 419.083 295.239 419.189 295.321C419.295 295.404 419.378 295.505 419.436 295.624C419.54 295.459 419.681 295.327 419.859 295.227C420.036 295.125 420.237 295.074 420.46 295.074C420.577 295.074 420.699 295.093 420.827 295.13C420.955 295.164 421.073 295.227 421.181 295.318C421.292 295.407 421.382 295.532 421.451 295.692C421.52 295.85 421.555 296.054 421.555 296.303V298.5H420.951V296.361C420.951 296.158 420.918 296.001 420.853 295.89C420.788 295.778 420.702 295.698 420.596 295.653C420.492 295.607 420.381 295.585 420.262 295.585C420.158 295.585 420.047 295.605 419.93 295.646C419.813 295.688 419.713 295.757 419.631 295.854C419.549 295.952 419.508 296.085 419.508 296.254V298.5H418.91V296.186C418.91 296.054 418.874 295.943 418.802 295.854C418.733 295.766 418.645 295.698 418.539 295.653C418.435 295.607 418.331 295.585 418.227 295.585C418.112 295.585 417.996 295.607 417.879 295.653C417.764 295.698 417.667 295.771 417.587 295.871C417.509 295.968 417.47 296.096 417.47 296.254V298.5H416.872ZM424.281 299.573C424.084 299.573 423.948 299.558 423.875 299.53C423.801 299.502 423.764 299.488 423.764 299.488V299.098L424.105 299.105C424.231 299.109 424.335 299.1 424.417 299.079C424.5 299.057 424.566 299.028 424.616 298.991C424.665 298.954 424.703 298.913 424.729 298.867C424.758 298.822 424.78 298.778 424.798 298.737L424.915 298.419L423.602 295.139H424.209L425.201 297.733L426.185 295.139H426.774L425.357 298.754C425.27 298.966 425.172 299.132 425.064 299.251C424.958 299.37 424.839 299.453 424.707 299.501C424.577 299.549 424.435 299.573 424.281 299.573ZM428.63 298.565C428.321 298.565 428.05 298.499 427.818 298.367C427.586 298.232 427.406 298.036 427.278 297.778C427.151 297.521 427.087 297.205 427.087 296.833C427.087 296.482 427.146 296.174 427.265 295.91C427.385 295.645 427.559 295.441 427.789 295.295C428.02 295.148 428.301 295.074 428.63 295.074C428.94 295.074 429.209 295.143 429.436 295.279C429.666 295.414 429.844 295.612 429.969 295.874C430.095 296.136 430.158 296.456 430.158 296.833C430.158 297.175 430.099 297.476 429.982 297.736C429.868 297.996 429.696 298.2 429.469 298.347C429.244 298.492 428.964 298.565 428.63 298.565ZM428.63 298.09C428.832 298.09 429.002 298.04 429.141 297.938C429.279 297.836 429.384 297.69 429.456 297.499C429.527 297.308 429.563 297.082 429.563 296.82C429.563 296.579 429.532 296.364 429.469 296.173C429.406 295.98 429.305 295.827 429.167 295.715C429.03 295.602 428.851 295.546 428.63 295.546C428.427 295.546 428.254 295.597 428.114 295.698C427.973 295.798 427.866 295.943 427.792 296.134C427.72 296.325 427.685 296.553 427.685 296.82C427.685 297.056 427.717 297.27 427.782 297.463C427.847 297.656 427.949 297.809 428.088 297.921C428.226 298.034 428.407 298.09 428.63 298.09ZM432.122 298.565C431.947 298.563 431.781 298.538 431.625 298.49C431.471 298.44 431.335 298.368 431.216 298.272C431.096 298.177 431.002 298.059 430.933 297.918C430.866 297.775 430.832 297.609 430.832 297.421V295.139H431.433V297.359C431.433 297.578 431.501 297.756 431.635 297.892C431.771 298.029 431.976 298.097 432.249 298.097C432.496 298.097 432.694 298.033 432.844 297.905C432.996 297.775 433.071 297.582 433.071 297.327V295.139H433.669V298.5H433.192L433.13 297.856C433.089 298.025 433.018 298.162 432.919 298.266C432.821 298.37 432.703 298.447 432.564 298.497C432.428 298.544 432.281 298.567 432.122 298.565ZM434.652 298.5V295.139H435.224V295.786C435.28 295.626 435.359 295.494 435.461 295.39C435.563 295.284 435.679 295.204 435.809 295.152C435.941 295.1 436.077 295.074 436.218 295.074C436.268 295.074 436.317 295.078 436.364 295.084C436.412 295.091 436.449 295.102 436.475 295.117V295.698C436.442 295.683 436.4 295.674 436.348 295.669C436.298 295.663 436.256 295.659 436.221 295.659C436.087 295.651 435.961 295.659 435.844 295.685C435.727 295.709 435.624 295.752 435.536 295.812C435.447 295.873 435.376 295.953 435.324 296.053C435.274 296.15 435.25 296.269 435.25 296.41V298.5H434.652ZM326.427 307.565C326.21 307.565 326.018 307.527 325.852 307.451C325.685 307.373 325.554 307.262 325.458 307.116C325.365 306.971 325.319 306.796 325.319 306.59C325.319 306.217 325.449 305.94 325.709 305.758C325.969 305.576 326.386 305.478 326.96 305.465L327.561 305.449V305.186C327.561 304.98 327.499 304.818 327.376 304.698C327.252 304.577 327.061 304.516 326.801 304.516C326.608 304.519 326.438 304.564 326.29 304.653C326.145 304.742 326.051 304.887 326.008 305.088H325.478C325.491 304.87 325.553 304.685 325.663 304.536C325.774 304.384 325.927 304.269 326.125 304.191C326.324 304.113 326.559 304.074 326.83 304.074C327.122 304.074 327.365 304.116 327.558 304.198C327.753 304.28 327.898 304.402 327.993 304.562C328.091 304.722 328.14 304.919 328.14 305.153V307.5H327.626L327.584 306.869C327.454 307.132 327.288 307.314 327.087 307.415C326.887 307.515 326.667 307.565 326.427 307.565ZM326.609 307.133C326.721 307.133 326.833 307.112 326.944 307.071C327.056 307.03 327.159 306.975 327.252 306.905C327.345 306.834 327.419 306.755 327.473 306.668C327.53 306.579 327.559 306.488 327.561 306.395V305.82L327.061 305.83C326.805 305.834 326.59 305.86 326.417 305.907C326.246 305.955 326.117 306.03 326.03 306.132C325.946 306.234 325.904 306.367 325.904 306.531C325.904 306.72 325.969 306.867 326.099 306.973C326.231 307.08 326.401 307.133 326.609 307.133ZM330.505 304.074C330.746 304.074 330.962 304.121 331.155 304.214C331.348 304.305 331.505 304.435 331.626 304.604C331.75 304.773 331.827 304.973 331.857 305.202H331.324C331.305 305.085 331.259 304.978 331.188 304.88C331.118 304.783 331.026 304.705 330.911 304.646C330.797 304.588 330.662 304.559 330.508 304.559C330.22 304.559 329.986 304.663 329.806 304.871C329.627 305.079 329.537 305.397 329.537 305.826C329.537 306.214 329.619 306.525 329.784 306.759C329.951 306.991 330.195 307.107 330.518 307.107C330.672 307.107 330.805 307.077 330.918 307.019C331.033 306.958 331.125 306.879 331.194 306.782C331.264 306.682 331.308 306.576 331.327 306.463H331.851C331.823 306.689 331.747 306.884 331.623 307.048C331.5 307.213 331.342 307.341 331.149 307.432C330.958 307.521 330.744 307.565 330.505 307.565C330.204 307.565 329.936 307.499 329.702 307.367C329.471 307.235 329.289 307.04 329.156 306.782C329.024 306.524 328.958 306.208 328.958 305.833C328.958 305.482 329.018 305.175 329.137 304.913C329.258 304.649 329.434 304.443 329.663 304.295C329.895 304.148 330.176 304.074 330.505 304.074ZM334.009 304.074C334.25 304.074 334.466 304.121 334.659 304.214C334.852 304.305 335.009 304.435 335.13 304.604C335.254 304.773 335.331 304.973 335.361 305.202H334.828C334.809 305.085 334.763 304.978 334.692 304.88C334.622 304.783 334.53 304.705 334.415 304.646C334.301 304.588 334.166 304.559 334.012 304.559C333.724 304.559 333.49 304.663 333.31 304.871C333.131 305.079 333.041 305.397 333.041 305.826C333.041 306.214 333.123 306.525 333.288 306.759C333.454 306.991 333.699 307.107 334.022 307.107C334.176 307.107 334.309 307.077 334.422 307.019C334.537 306.958 334.629 306.879 334.698 306.782C334.767 306.682 334.812 306.576 334.831 306.463H335.355C335.326 306.689 335.251 306.884 335.127 307.048C335.004 307.213 334.845 307.341 334.653 307.432C334.462 307.521 334.247 307.565 334.009 307.565C333.708 307.565 333.44 307.499 333.206 307.367C332.975 307.235 332.793 307.04 332.66 306.782C332.528 306.524 332.462 306.208 332.462 305.833C332.462 305.482 332.522 305.175 332.641 304.913C332.762 304.649 332.938 304.443 333.167 304.295C333.399 304.148 333.68 304.074 334.009 304.074ZM337.51 307.565C337.2 307.565 336.929 307.499 336.697 307.367C336.465 307.232 336.286 307.036 336.158 306.778C336.03 306.521 335.966 306.205 335.966 305.833C335.966 305.482 336.026 305.174 336.145 304.91C336.264 304.645 336.438 304.441 336.668 304.295C336.9 304.148 337.18 304.074 337.51 304.074C337.82 304.074 338.088 304.143 338.316 304.279C338.545 304.414 338.723 304.612 338.849 304.874C338.974 305.136 339.037 305.456 339.037 305.833C339.037 306.175 338.979 306.476 338.862 306.736C338.747 306.996 338.576 307.2 338.348 307.347C338.123 307.492 337.843 307.565 337.51 307.565ZM337.51 307.09C337.711 307.09 337.881 307.04 338.02 306.938C338.159 306.836 338.264 306.69 338.335 306.499C338.407 306.308 338.443 306.082 338.443 305.82C338.443 305.579 338.411 305.364 338.348 305.173C338.285 304.98 338.185 304.827 338.046 304.715C337.91 304.602 337.731 304.546 337.51 304.546C337.306 304.546 337.134 304.597 336.993 304.698C336.852 304.798 336.745 304.943 336.671 305.134C336.6 305.325 336.564 305.553 336.564 305.82C336.564 306.056 336.597 306.27 336.662 306.463C336.727 306.656 336.828 306.809 336.967 306.921C337.106 307.034 337.287 307.09 337.51 307.09ZM341.002 307.565C340.826 307.563 340.661 307.538 340.505 307.49C340.351 307.44 340.214 307.368 340.095 307.272C339.976 307.177 339.882 307.059 339.812 306.918C339.745 306.775 339.712 306.609 339.712 306.421V304.139H340.313V306.359C340.313 306.578 340.38 306.756 340.514 306.892C340.651 307.029 340.856 307.097 341.129 307.097C341.376 307.097 341.574 307.033 341.723 306.905C341.875 306.775 341.951 306.582 341.951 306.327V304.139H342.549V307.5H342.071L342.009 306.856C341.968 307.025 341.898 307.162 341.798 307.266C341.701 307.37 341.582 307.447 341.444 307.497C341.307 307.544 341.16 307.567 341.002 307.565ZM343.531 307.5V304.139H344.113V304.627C344.167 304.534 344.242 304.446 344.337 304.364C344.434 304.281 344.551 304.215 344.688 304.165C344.827 304.116 344.986 304.091 345.166 304.091C345.378 304.091 345.573 304.133 345.751 304.218C345.931 304.302 346.074 304.434 346.18 304.614C346.288 304.792 346.342 305.021 346.342 305.303V307.5H345.741V305.361C345.741 305.099 345.672 304.905 345.533 304.78C345.396 304.652 345.219 304.588 345 304.588C344.848 304.588 344.706 304.613 344.574 304.663C344.442 304.71 344.335 304.784 344.252 304.884C344.17 304.981 344.129 305.105 344.129 305.254V307.5H343.531ZM348.831 304.578H348.074V306.668C348.074 306.787 348.086 306.875 348.11 306.931C348.136 306.985 348.178 307.02 348.236 307.035C348.297 307.05 348.379 307.058 348.483 307.058H348.851V307.461C348.809 307.476 348.747 307.489 348.662 307.5C348.58 307.511 348.477 307.516 348.353 307.516C348.121 307.516 347.942 307.485 347.814 307.422C347.686 307.359 347.596 307.266 347.544 307.142C347.494 307.019 347.469 306.867 347.469 306.688V304.578H346.923V304.139H347.486L347.632 303.161H348.074V304.136H348.831V304.578ZM351.843 304.139V307.5H351.261V304.139H351.843ZM351.856 302.804V303.428H351.241V302.804H351.856ZM354.093 307.565C353.859 307.565 353.641 307.529 353.44 307.458C353.24 307.384 353.074 307.27 352.942 307.116C352.81 306.96 352.727 306.762 352.692 306.522H353.238C353.268 306.654 353.323 306.764 353.401 306.853C353.481 306.94 353.58 307.006 353.7 307.051C353.819 307.095 353.949 307.116 354.09 307.116C354.315 307.116 354.497 307.074 354.636 306.99C354.774 306.905 354.844 306.775 354.844 306.6C354.844 306.476 354.807 306.378 354.733 306.304C354.662 306.228 354.55 306.173 354.398 306.138L353.703 305.966C353.432 305.901 353.215 305.799 353.053 305.66C352.89 305.522 352.809 305.328 352.809 305.079C352.807 304.882 352.853 304.708 352.949 304.559C353.044 304.409 353.187 304.291 353.378 304.204C353.568 304.118 353.806 304.074 354.09 304.074C354.454 304.074 354.747 304.157 354.97 304.321C355.196 304.484 355.313 304.723 355.321 305.04H354.792C354.77 304.879 354.697 304.753 354.574 304.659C354.452 304.564 354.289 304.516 354.083 304.516C353.869 304.516 353.694 304.56 353.56 304.646C353.425 304.731 353.358 304.863 353.358 305.043C353.358 305.162 353.406 305.256 353.501 305.326C353.597 305.393 353.737 305.449 353.924 305.495L354.597 305.664C354.753 305.705 354.88 305.759 354.98 305.826C355.082 305.893 355.162 305.968 355.221 306.05C355.281 306.133 355.323 306.219 355.347 306.31C355.373 306.399 355.386 306.485 355.386 306.567C355.386 306.773 355.334 306.951 355.23 307.1C355.128 307.248 354.981 307.362 354.788 307.445C354.598 307.525 354.366 307.565 354.093 307.565ZM361.393 305.709C361.393 306.088 361.331 306.418 361.208 306.697C361.084 306.975 360.884 307.189 360.607 307.341C360.332 307.49 359.966 307.565 359.511 307.565C359.054 307.565 358.688 307.489 358.413 307.337C358.138 307.184 357.938 306.966 357.815 306.684C357.694 306.403 357.633 306.067 357.633 305.677V302.8H358.598V305.748C358.598 306.099 358.683 306.356 358.852 306.518C359.021 306.679 359.241 306.759 359.511 306.759C359.691 306.759 359.851 306.724 359.989 306.655C360.128 306.583 360.236 306.474 360.314 306.327C360.394 306.177 360.434 305.984 360.434 305.748V302.8H361.393V305.709ZM364.101 307.565C363.869 307.565 363.642 307.536 363.419 307.477C363.196 307.419 362.992 307.331 362.808 307.214C362.624 307.097 362.471 306.951 362.35 306.775C362.23 306.6 362.159 306.394 362.135 306.158H363.107C363.139 306.301 363.201 306.421 363.292 306.518C363.383 306.616 363.498 306.691 363.637 306.743C363.775 306.795 363.929 306.821 364.098 306.821C364.271 306.821 364.43 306.799 364.573 306.756C364.716 306.712 364.83 306.647 364.917 306.561C365.004 306.472 365.047 306.361 365.047 306.229C365.047 306.11 365.011 306.013 364.94 305.937C364.87 305.861 364.776 305.799 364.657 305.751C364.538 305.704 364.402 305.665 364.251 305.634L363.438 305.469C363.083 305.402 362.801 305.261 362.593 305.046C362.385 304.83 362.278 304.541 362.272 304.182C362.269 303.887 362.347 303.632 362.506 303.418C362.666 303.201 362.883 303.034 363.156 302.917C363.431 302.8 363.738 302.742 364.079 302.742C364.484 302.742 364.824 302.806 365.099 302.934C365.376 303.059 365.587 303.231 365.73 303.447C365.875 303.662 365.949 303.901 365.954 304.165H365.002C364.984 304.001 364.934 303.87 364.852 303.772C364.77 303.675 364.664 303.604 364.534 303.561C364.406 303.518 364.259 303.496 364.095 303.496C363.969 303.496 363.854 303.51 363.75 303.538C363.648 303.566 363.562 303.606 363.49 303.658C363.419 303.708 363.364 303.768 363.325 303.837C363.286 303.907 363.266 303.985 363.266 304.071C363.266 304.208 363.312 304.318 363.403 304.403C363.494 304.487 363.664 304.557 363.913 304.611L364.719 304.776C365.007 304.833 365.236 304.916 365.405 305.027C365.576 305.137 365.704 305.262 365.788 305.4C365.875 305.539 365.931 305.681 365.957 305.826C365.985 305.969 365.999 306.101 365.999 306.223C365.999 306.476 365.919 306.705 365.759 306.908C365.601 307.11 365.38 307.27 365.096 307.389C364.812 307.507 364.48 307.565 364.101 307.565ZM369.992 307.565C369.429 307.565 368.972 307.452 368.621 307.227C368.27 306.999 368.068 306.65 368.016 306.177L369.004 306.158C369.056 306.372 369.168 306.536 369.339 306.648C369.512 306.759 369.729 306.814 369.989 306.814C370.145 306.814 370.282 306.789 370.402 306.739C370.523 306.687 370.618 306.618 370.688 306.531C370.757 306.443 370.792 306.342 370.792 306.229C370.792 306.056 370.736 305.927 370.626 305.842C370.515 305.756 370.345 305.686 370.116 305.634L369.345 305.469C368.988 305.397 368.701 305.255 368.484 305.043C368.27 304.828 368.16 304.541 368.156 304.182C368.154 303.887 368.233 303.632 368.393 303.418C368.556 303.201 368.776 303.034 369.053 302.917C369.332 302.8 369.645 302.742 369.992 302.742C370.347 302.742 370.654 302.806 370.912 302.934C371.172 303.059 371.371 303.229 371.51 303.444C371.651 303.656 371.719 303.891 371.715 304.149L370.756 304.165C370.726 303.957 370.656 303.794 370.548 303.675C370.44 303.556 370.26 303.496 370.008 303.496C369.878 303.496 369.762 303.51 369.661 303.538C369.559 303.566 369.471 303.606 369.397 303.658C369.324 303.708 369.267 303.768 369.228 303.837C369.192 303.907 369.173 303.985 369.173 304.071C369.173 304.208 369.219 304.316 369.31 304.396C369.403 304.474 369.577 304.547 369.833 304.614L370.59 304.799C371.017 304.901 371.325 305.075 371.513 305.322C371.704 305.569 371.799 305.87 371.799 306.223C371.799 306.494 371.724 306.73 371.575 306.931C371.428 307.133 371.218 307.289 370.948 307.399C370.677 307.51 370.358 307.565 369.992 307.565ZM369.586 302.128H370.408V302.973H369.586V302.128ZM369.57 307.276H370.389V308.121H369.57V307.276ZM373.237 307.5V303.98H372.398V303.444C372.667 303.444 372.883 303.419 373.048 303.369C373.215 303.317 373.34 303.244 373.422 303.148C373.504 303.051 373.553 302.935 373.568 302.8H374.199V307.5H373.237ZM376.998 302.735C377.557 302.735 377.998 302.945 378.321 303.363C378.644 303.779 378.805 304.378 378.805 305.16C378.805 305.938 378.646 306.535 378.328 306.951C378.009 307.365 377.566 307.572 376.998 307.572C376.429 307.572 375.983 307.365 375.663 306.951C375.344 306.537 375.185 305.941 375.185 305.163C375.185 304.643 375.259 304.202 375.406 303.84C375.553 303.479 375.762 303.205 376.033 303.018C376.304 302.83 376.626 302.735 376.998 302.735ZM376.998 306.795C377.278 306.795 377.483 306.67 377.613 306.421C377.743 306.17 377.808 305.75 377.808 305.163C377.808 304.563 377.742 304.133 377.609 303.873C377.477 303.613 377.273 303.483 376.995 303.483C376.718 303.483 376.511 303.614 376.374 303.876C376.24 304.138 376.173 304.567 376.173 305.163C376.173 305.748 376.24 306.166 376.374 306.418C376.509 306.669 376.717 306.795 376.998 306.795ZM381.484 302.8H382.417V305.664H383.142V306.46H382.417V307.5H381.504L381.507 306.46H379.342V305.68L381.484 302.8ZM380.22 305.664H381.507V303.941L380.22 305.664ZM383.65 307.5V306.466H384.69V307.5H383.65ZM387.092 307.572C386.8 307.572 386.527 307.515 386.273 307.402C386.02 307.29 385.813 307.132 385.653 306.928C385.492 306.722 385.402 306.482 385.383 306.206H386.286C386.325 306.388 386.412 306.537 386.546 306.652C386.681 306.764 386.85 306.821 387.053 306.821C387.279 306.821 387.476 306.768 387.645 306.661C387.816 306.555 387.944 306.386 388.028 306.154C388.115 305.923 388.145 305.619 388.119 305.244C388.059 305.359 387.974 305.46 387.866 305.547C387.76 305.631 387.635 305.697 387.492 305.745C387.349 305.79 387.19 305.813 387.014 305.813C386.696 305.813 386.413 305.754 386.166 305.634C385.921 305.513 385.728 305.342 385.588 305.121C385.449 304.898 385.38 304.633 385.38 304.328C385.38 304.02 385.453 303.746 385.601 303.506C385.748 303.265 385.954 303.077 386.218 302.94C386.482 302.804 386.792 302.735 387.148 302.735C387.546 302.735 387.89 302.831 388.178 303.021C388.468 303.21 388.69 303.479 388.844 303.828C389 304.174 389.078 304.583 389.078 305.053C389.078 305.614 388.998 306.082 388.838 306.457C388.679 306.829 388.452 307.109 388.155 307.295C387.858 307.479 387.504 307.572 387.092 307.572ZM387.177 305.059C387.309 305.059 387.437 305.03 387.56 304.971C387.686 304.911 387.789 304.835 387.869 304.744C387.949 304.653 387.989 304.559 387.989 304.461C387.991 304.251 387.958 304.071 387.889 303.922C387.821 303.77 387.726 303.654 387.603 303.574C387.481 303.494 387.339 303.454 387.177 303.454C387.027 303.454 386.894 303.488 386.777 303.558C386.66 303.627 386.568 303.725 386.501 303.85C386.434 303.976 386.4 304.121 386.4 304.286C386.4 304.531 386.472 304.721 386.615 304.858C386.758 304.992 386.945 305.059 387.177 305.059ZM391.446 302.735C392.005 302.735 392.446 302.945 392.768 303.363C393.091 303.779 393.253 304.378 393.253 305.16C393.253 305.938 393.093 306.535 392.775 306.951C392.456 307.365 392.013 307.572 391.446 307.572C390.876 307.572 390.431 307.365 390.11 306.951C389.791 306.537 389.632 305.941 389.632 305.163C389.632 304.643 389.706 304.202 389.853 303.84C390.001 303.479 390.21 303.205 390.48 303.018C390.751 302.83 391.073 302.735 391.446 302.735ZM391.446 306.795C391.725 306.795 391.93 306.67 392.06 306.421C392.19 306.17 392.255 305.75 392.255 305.163C392.255 304.563 392.189 304.133 392.057 303.873C391.925 303.613 391.72 303.483 391.442 303.483C391.165 303.483 390.958 303.614 390.822 303.876C390.687 304.138 390.62 304.567 390.62 305.163C390.62 305.748 390.687 306.166 390.822 306.418C390.956 306.669 391.164 306.795 391.446 306.795ZM393.893 307.5V306.733H394.608V307.5H393.893Z" fill="#36536B"/>
</g>
<defs>
<filter id="filter0_d_705_15" x="249.552" y="109.342" width="315.765" height="459.317" filterUnits="userSpaceOnUse" color-interpolation-filters="sRGB">
<feFlood flood-opacity="0" result="BackgroundImageFix"/>
<feColorMatrix in="SourceAlpha" type="matrix" values="0 0 0 0 0 0 0 0 0 0 0 0 0 0 0 0 0 0 127 0" result="hardAlpha"/>
<feOffset dx="25" dy="25"/>
<feGaussianBlur stdDeviation="40"/>
<feColorMatrix type="matrix" values="0 0 0 0 0.212302 0 0 0 0 0.32521 0 0 0 0 0.419299 0 0 0 0.300727 0"/>
<feBlend mode="normal" in2="BackgroundImageFix" result="effect1_dropShadow_705_15"/>
<feBlend mode="normal" in="SourceGraphic" in2="effect1_dropShadow_705_15" result="shape"/>
</filter>
<filter id="filter1_d_705_15" x="310.805" y="259" width="161.255" height="83.1914" filterUnits="userSpaceOnUse" color-interpolation-filters="sRGB">
<feFlood flood-opacity="0" result="BackgroundImageFix"/>
<feColorMatrix in="SourceAlpha" type="matrix" values="0 0 0 0 0 0 0 0 0 0 0 0 0 0 0 0 0 0 127 0" result="hardAlpha"/>
<feMorphology radius="10" operator="erode" in="SourceAlpha" result="effect1_dropShadow_705_15"/>
<feOffset dx="10" dy="10"/>
<feGaussianBlur stdDeviation="12.5"/>
<feColorMatrix type="matrix" values="0 0 0 0 0.212302 0 0 0 0 0.32521 0 0 0 0 0.419299 0 0 0 0.25 0"/>
<feBlend mode="normal" in2="BackgroundImageFix" result="effect1_dropShadow_705_15"/>
<feBlend mode="normal" in="SourceGraphic" in2="effect1_dropShadow_705_15" result="shape"/>
</filter>
<linearGradient id="paint0_linear_705_15" x1="309.055" y1="164" x2="309.055" y2="171.394" gradientUnits="userSpaceOnUse">
<stop stop-color="#454545"/>
<stop offset="0.226279" stop-color="#999999"/>
<stop offset="1" stop-color="white"/>
</linearGradient>
<linearGradient id="paint1_linear_705_15" x1="460.249" y1="215.448" x2="454.529" y2="215.448" gradientUnits="userSpaceOnUse">
<stop stop-color="white" stop-opacity="0.01"/>
<stop offset="0.222178" stop-color="#BABABA"/>
<stop offset="0.54678" stop-color="white" stop-opacity="0.01"/>
<stop offset="1" stop-color="white" stop-opacity="0.01"/>
</linearGradient>
<linearGradient id="paint2_linear_705_15" x1="304.552" y1="215.292" x2="310.281" y2="215.292" gradientUnits="userSpaceOnUse">
<stop stop-color="white" stop-opacity="0.01"/>
<stop offset="0.222178" stop-color="#BABABA"/>
<stop offset="0.54678" stop-color="white" stop-opacity="0.01"/>
<stop offset="1" stop-color="white" stop-opacity="0.01"/>
</linearGradient>
<linearGradient id="paint3_linear_705_15" x1="312.549" y1="171" x2="312.549" y2="447.828" gradientUnits="userSpaceOnUse">
<stop stop-color="#9CB6CD"/>
<stop offset="0.420564" stop-color="#9AB3CA"/>
<stop offset="0.716592" stop-color="#557496"/>
<stop offset="1" stop-color="#475178"/>
</linearGradient>
<clipPath id="clip0_705_15">
<rect width="132" height="54" fill="white" transform="translate(315.805 264)"/>
</clipPath>
</defs>
</svg>
