<svg width="375" height="483" viewBox="0 0 375 483" fill="none" xmlns="http://www.w3.org/2000/svg">
<g opacity="0.15">
<circle cx="188" cy="-132" r="390" fill="#36536B"/>
<circle cx="188" cy="-132" r="390" fill="#36536B"/>
<mask id="mask0_706_16" style="mask-type:alpha" maskUnits="userSpaceOnUse" x="-202" y="-522" width="780" height="780">
<circle cx="188" cy="-132" r="390" fill="white"/>
</mask>
<g mask="url(#mask0_706_16)">
</g>
</g>
<g filter="url(#filter0_d_706_16)">
<path fill-rule="evenodd" clip-rule="evenodd" d="M141.303 138.273H233.793C242.663 138.273 249.854 145.106 249.854 153.535V362.465C249.854 370.894 242.663 377.727 233.793 377.727H141.303C132.433 377.727 125.242 370.894 125.242 362.465V153.535C125.242 145.106 132.433 138.273 141.303 138.273Z" fill="#213648"/>
</g>
<path opacity="0.595562" fill-rule="evenodd" clip-rule="evenodd" d="M234.151 138H140.89C136.536 138.263 132.521 140.235 128.844 143.915C131.208 141.867 135.426 139.125 141.003 139.125C141.003 139.125 230.321 139.125 234.038 139.125C239.615 139.125 243.833 141.867 246.197 143.915C242.52 140.235 238.505 138.263 234.151 138Z" fill="url(#paint0_linear_706_16)" fill-opacity="0.65"/>
<path opacity="0.75" fill-rule="evenodd" clip-rule="evenodd" d="M247.331 360.082V154.791C247.331 149.283 245.291 147.247 244.074 145.94C242.857 144.632 242.805 143.965 244.554 144.952C246.302 145.94 249.799 148.815 249.799 154.791V360.082C249.799 366.059 246.302 368.934 244.554 369.921C242.805 370.908 242.857 370.241 244.074 368.934C245.291 367.626 247.331 365.59 247.331 360.082Z" fill="url(#paint1_linear_706_16)"/>
<path opacity="0.75" fill-rule="evenodd" clip-rule="evenodd" d="M127.71 360.082V154.791C127.71 149.283 129.75 147.247 130.967 145.94C132.184 144.632 132.236 143.965 130.487 144.952C128.739 145.94 125.242 148.815 125.242 154.791V360.082C125.242 366.059 128.739 368.934 130.487 369.921C132.236 370.908 132.184 370.241 130.967 368.934C129.75 367.626 127.71 365.59 127.71 360.082Z" fill="url(#paint2_linear_706_16)"/>
<path fill-rule="evenodd" clip-rule="evenodd" d="M124 187.948C124 187.285 124.538 186.748 125.201 186.748C125.864 186.748 126.401 187.285 126.401 187.948V216.435C126.401 217.098 125.864 217.636 125.201 217.636C124.538 217.636 124 217.098 124 216.435V187.948Z" fill="#2E423C"/>
<path fill-rule="evenodd" clip-rule="evenodd" d="M248.557 213.141C248.557 212.478 249.095 211.941 249.758 211.941C250.421 211.941 250.958 212.478 250.958 213.141V233.276C250.958 233.939 250.421 234.477 249.758 234.477C249.095 234.477 248.557 233.939 248.557 233.276V213.141Z" fill="#2E423C"/>
<path fill-rule="evenodd" clip-rule="evenodd" d="M176.561 143.973L140.575 143.973C135.204 143.973 131.291 147.604 131.291 152.345V355.092C131.291 361.274 137.337 366.752 144.175 366.752H230.909C237.495 366.752 243.793 361.232 243.793 355.092V152.893C243.793 147.21 239.542 144.007 234.509 143.973H197.952C197.814 143.996 195.302 145.02 194.241 147.604C193.18 150.187 191.044 152.246 188.706 152.246H185.99C184.879 152.246 181.953 151.176 180.471 147.604C178.99 144.031 176.7 143.996 176.561 143.973Z" fill="white"/>
<mask id="mask1_706_16" style="mask-type:alpha" maskUnits="userSpaceOnUse" x="131" y="143" width="113" height="224">
<path fill-rule="evenodd" clip-rule="evenodd" d="M176.561 143.973L140.575 143.973C135.204 143.973 131.291 147.604 131.291 152.345V355.092C131.291 361.274 137.337 366.752 144.175 366.752H230.909C237.495 366.752 243.793 361.232 243.793 355.092V152.893C243.793 147.21 239.542 144.007 234.509 143.973H197.952C197.814 143.996 195.302 145.02 194.241 147.604C193.18 150.187 191.044 152.246 188.706 152.246H185.99C184.879 152.246 181.953 151.176 180.471 147.604C178.99 144.031 176.7 143.996 176.561 143.973Z" fill="white"/>
</mask>
<g mask="url(#mask1_706_16)">
<rect x="131" y="144" width="113" height="223" fill="url(#paint3_linear_706_16)"/>
<path fill-rule="evenodd" clip-rule="evenodd" d="M182.762 203.311V205.2H174.543V203.526C174.543 202.962 174.649 202.475 174.861 202.063C175.072 201.65 175.352 201.292 175.7 200.987C176.048 200.683 176.43 200.415 176.846 200.185C177.261 199.954 177.677 199.737 178.095 199.532C178.513 199.327 178.896 199.121 179.244 198.914C179.593 198.706 179.873 198.475 180.084 198.219C180.296 197.963 180.401 197.661 180.401 197.312C180.401 196.867 180.245 196.503 179.933 196.222C179.621 195.94 179.194 195.799 178.652 195.799C178.09 195.799 177.613 195.961 177.221 196.283C176.829 196.606 176.586 197.092 176.493 197.743H174.334C174.345 197.036 174.511 196.395 174.834 195.819C175.156 195.243 175.64 194.786 176.284 194.448C176.929 194.11 177.739 193.941 178.714 193.941C179.55 193.941 180.271 194.082 180.877 194.363C181.483 194.645 181.952 195.037 182.282 195.538C182.612 196.04 182.777 196.626 182.777 197.297C182.777 197.855 182.674 198.336 182.467 198.741C182.261 199.145 181.988 199.491 181.647 199.778C181.307 200.064 180.933 200.315 180.525 200.53C180.118 200.745 179.711 200.945 179.306 201.129C178.901 201.314 178.529 201.502 178.188 201.694C177.848 201.886 177.574 202.102 177.368 202.343C177.161 202.583 177.058 202.873 177.058 203.211V203.311H182.762ZM171.997 194.095V205.2H169.707V196.882H167.71V195.615C168.35 195.615 168.867 195.555 169.262 195.435C169.657 195.314 169.952 195.14 170.148 194.912C170.344 194.685 170.46 194.412 170.496 194.095H171.997ZM186.739 199.855V197.451H184.263V199.855H186.739ZM186.739 202.758V205.154H184.263V202.758H186.739ZM195.654 205.2V202.742H197.379V200.861H195.654V194.095H193.433L188.333 200.899V202.742H193.487L193.479 205.2H195.654ZM190.423 200.861H193.487V196.79L190.423 200.861ZM202.611 205.369C203.591 205.369 204.434 205.15 205.141 204.712C205.848 204.274 206.391 203.614 206.77 202.731C207.149 201.847 207.339 200.743 207.339 199.417C207.339 198.306 207.154 197.339 206.785 196.518C206.417 195.696 205.888 195.061 205.199 194.613C204.51 194.165 203.691 193.941 202.742 193.941C201.896 193.941 201.158 194.102 200.529 194.425C199.9 194.747 199.409 195.193 199.059 195.761C198.708 196.329 198.532 196.977 198.532 197.704C198.532 198.426 198.699 199.049 199.032 199.574C199.364 200.099 199.823 200.503 200.409 200.788C200.994 201.072 201.666 201.214 202.425 201.214C202.843 201.214 203.222 201.159 203.562 201.049C203.903 200.939 204.201 200.783 204.456 200.58C204.712 200.378 204.911 200.141 205.056 199.87C205.118 200.756 205.047 201.472 204.843 202.02C204.639 202.568 204.335 202.967 203.93 203.218C203.525 203.469 203.054 203.595 202.518 203.595C202.033 203.595 201.63 203.46 201.31 203.191C200.991 202.923 200.784 202.573 200.691 202.143H198.54C198.587 202.793 198.801 203.36 199.182 203.844C199.564 204.328 200.057 204.703 200.66 204.969C201.264 205.236 201.914 205.369 202.611 205.369ZM201.473 198.952C201.813 199.272 202.26 199.432 202.812 199.432C203.126 199.432 203.432 199.362 203.729 199.221C204.025 199.08 204.269 198.902 204.46 198.687C204.651 198.472 204.746 198.249 204.746 198.019C204.751 197.522 204.673 197.096 204.51 196.74C204.348 196.384 204.121 196.112 203.829 195.922C203.538 195.733 203.199 195.638 202.812 195.638C202.456 195.638 202.138 195.72 201.86 195.884C201.581 196.048 201.362 196.278 201.202 196.575C201.042 196.872 200.962 197.215 200.962 197.604C200.962 198.183 201.132 198.632 201.473 198.952Z" fill="white"/>
</g>
<g clip-path="url(#clip0_706_16)">
<g filter="url(#filter1_d_706_16)">
<rect x="134.244" y="218" width="105.004" height="42.5532" rx="2" fill="#FBFCFE"/>
</g>
<path d="M142.115 235.31V234.885H144.85V235.31H143.748V238.5H143.283V235.31H142.115ZM145.351 238.5V234.785H145.801V236.295C145.845 236.223 145.903 236.157 145.976 236.095C146.05 236.032 146.139 235.981 146.244 235.942C146.349 235.902 146.47 235.882 146.609 235.882C146.777 235.882 146.93 235.914 147.066 235.977C147.203 236.039 147.311 236.127 147.391 236.242C147.471 236.357 147.511 236.494 147.511 236.652V238.5H147.049V236.745C147.049 236.59 146.995 236.471 146.889 236.387C146.784 236.302 146.646 236.26 146.476 236.26C146.361 236.26 146.253 236.279 146.151 236.317C146.05 236.354 145.967 236.411 145.904 236.487C145.842 236.562 145.811 236.658 145.811 236.775V238.5H145.351ZM148.562 237.315C148.562 237.478 148.589 237.627 148.642 237.76C148.697 237.892 148.78 237.997 148.89 238.075C149.001 238.153 149.14 238.192 149.307 238.192C149.472 238.192 149.614 238.154 149.732 238.077C149.852 238.001 149.929 237.89 149.962 237.745H150.4C150.368 237.92 150.298 238.067 150.19 238.188C150.081 238.307 149.95 238.398 149.797 238.46C149.644 238.52 149.484 238.55 149.317 238.55C149.075 238.55 148.863 238.498 148.68 238.392C148.496 238.287 148.353 238.137 148.25 237.94C148.146 237.743 148.095 237.507 148.095 237.232C148.095 236.961 148.141 236.722 148.235 236.517C148.328 236.312 148.463 236.152 148.64 236.037C148.818 235.922 149.032 235.865 149.282 235.865C149.525 235.865 149.731 235.917 149.9 236.022C150.068 236.127 150.195 236.276 150.282 236.467C150.37 236.657 150.415 236.883 150.415 237.145V237.315H148.562ZM148.565 237.002H149.97C149.97 236.854 149.945 236.721 149.895 236.602C149.845 236.482 149.768 236.388 149.665 236.32C149.563 236.25 149.435 236.215 149.28 236.215C149.118 236.215 148.984 236.254 148.877 236.332C148.772 236.409 148.693 236.508 148.64 236.63C148.588 236.75 148.563 236.874 148.565 237.002ZM152.168 239.305V235.915H152.628L152.633 236.365C152.663 236.312 152.701 236.256 152.748 236.197C152.796 236.139 152.854 236.085 152.923 236.035C152.993 235.985 153.073 235.944 153.165 235.912C153.258 235.881 153.364 235.865 153.483 235.865C153.689 235.865 153.871 235.912 154.028 236.007C154.186 236.101 154.309 236.244 154.398 236.437C154.486 236.631 154.53 236.876 154.53 237.172C154.53 237.469 154.487 237.72 154.4 237.925C154.315 238.128 154.192 238.283 154.03 238.39C153.868 238.497 153.673 238.55 153.445 238.55C153.33 238.55 153.228 238.533 153.138 238.5C153.049 238.468 152.972 238.427 152.905 238.375C152.84 238.322 152.785 238.265 152.74 238.205C152.697 238.145 152.661 238.087 152.633 238.032V239.305H152.168ZM153.358 238.19C153.571 238.19 153.745 238.109 153.88 237.947C154.015 237.784 154.083 237.531 154.083 237.187C154.083 236.892 154.021 236.658 153.898 236.485C153.774 236.312 153.594 236.225 153.358 236.225C153.118 236.225 152.936 236.314 152.813 236.492C152.689 236.669 152.628 236.901 152.628 237.187C152.628 237.372 152.655 237.541 152.71 237.692C152.765 237.844 152.847 237.965 152.955 238.055C153.063 238.145 153.198 238.19 153.358 238.19ZM155.817 238.55C155.651 238.55 155.503 238.521 155.375 238.462C155.246 238.402 155.146 238.317 155.072 238.205C155.001 238.093 154.965 237.958 154.965 237.8C154.965 237.513 155.065 237.3 155.265 237.16C155.465 237.02 155.786 236.945 156.227 236.935L156.69 236.922V236.72C156.69 236.562 156.642 236.437 156.547 236.345C156.452 236.252 156.305 236.205 156.105 236.205C155.956 236.207 155.826 236.242 155.712 236.31C155.601 236.378 155.528 236.49 155.495 236.645H155.087C155.097 236.477 155.145 236.335 155.23 236.22C155.315 236.103 155.433 236.015 155.585 235.955C155.738 235.895 155.919 235.865 156.127 235.865C156.352 235.865 156.539 235.897 156.687 235.96C156.837 236.023 156.949 236.117 157.022 236.24C157.097 236.363 157.135 236.515 157.135 236.695V238.5H156.74L156.707 238.015C156.607 238.217 156.48 238.357 156.325 238.435C156.171 238.512 156.002 238.55 155.817 238.55ZM155.957 238.217C156.044 238.217 156.13 238.202 156.215 238.17C156.301 238.138 156.381 238.096 156.452 238.042C156.524 237.987 156.581 237.927 156.622 237.86C156.666 237.792 156.688 237.722 156.69 237.65V237.207L156.305 237.215C156.108 237.218 155.943 237.238 155.81 237.275C155.678 237.312 155.579 237.369 155.512 237.447C155.447 237.526 155.415 237.628 155.415 237.755C155.415 237.9 155.465 238.013 155.565 238.095C155.666 238.177 155.797 238.217 155.957 238.217ZM158.096 239.325C157.945 239.325 157.841 239.314 157.784 239.293C157.727 239.271 157.699 239.26 157.699 239.26V238.96L157.961 238.965C158.058 238.968 158.138 238.962 158.201 238.945C158.265 238.928 158.316 238.906 158.354 238.878C158.392 238.849 158.421 238.818 158.441 238.783C158.463 238.748 158.481 238.714 158.494 238.683L158.584 238.437L157.574 235.915H158.041L158.804 237.91L159.561 235.915H160.014L158.924 238.695C158.857 238.858 158.782 238.986 158.699 239.078C158.617 239.169 158.526 239.233 158.424 239.27C158.324 239.307 158.215 239.325 158.096 239.325ZM160.508 238.5V235.915H160.953V236.29C161.024 236.177 161.123 236.077 161.248 235.992C161.373 235.907 161.535 235.865 161.735 235.865C161.828 235.865 161.923 235.881 162.02 235.912C162.118 235.944 162.208 235.992 162.29 236.055C162.372 236.118 162.435 236.196 162.48 236.287C162.56 236.161 162.668 236.059 162.805 235.982C162.942 235.904 163.096 235.865 163.268 235.865C163.358 235.865 163.452 235.879 163.55 235.907C163.648 235.934 163.739 235.982 163.823 236.052C163.908 236.121 163.977 236.217 164.03 236.34C164.083 236.462 164.11 236.618 164.11 236.81V238.5H163.645V236.855C163.645 236.698 163.62 236.577 163.57 236.492C163.52 236.406 163.454 236.345 163.373 236.31C163.293 236.275 163.207 236.257 163.115 236.257C163.035 236.257 162.95 236.273 162.86 236.305C162.77 236.337 162.693 236.39 162.63 236.465C162.567 236.54 162.535 236.642 162.535 236.772V238.5H162.075V236.72C162.075 236.618 162.048 236.533 161.993 236.465C161.939 236.397 161.872 236.345 161.79 236.31C161.71 236.275 161.63 236.257 161.55 236.257C161.462 236.257 161.373 236.275 161.283 236.31C161.194 236.345 161.119 236.401 161.058 236.477C160.998 236.552 160.968 236.651 160.968 236.772V238.5H160.508ZM165.164 237.315C165.164 237.478 165.19 237.627 165.244 237.76C165.299 237.892 165.381 237.997 165.491 238.075C165.603 238.153 165.742 238.192 165.909 238.192C166.074 238.192 166.215 238.154 166.334 238.077C166.454 238.001 166.53 237.89 166.564 237.745H167.001C166.97 237.92 166.9 238.067 166.791 238.188C166.683 238.307 166.552 238.398 166.399 238.46C166.245 238.52 166.085 238.55 165.919 238.55C165.677 238.55 165.465 238.498 165.281 238.392C165.098 238.287 164.955 238.137 164.851 237.94C164.748 237.743 164.696 237.507 164.696 237.232C164.696 236.961 164.743 236.722 164.836 236.517C164.93 236.312 165.065 236.152 165.241 236.037C165.42 235.922 165.634 235.865 165.884 235.865C166.127 235.865 166.333 235.917 166.501 236.022C166.67 236.127 166.797 236.276 166.884 236.467C166.972 236.657 167.016 236.883 167.016 237.145V237.315H165.164ZM165.166 237.002H166.571C166.571 236.854 166.546 236.721 166.496 236.602C166.446 236.482 166.37 236.388 166.266 236.32C166.165 236.25 166.036 236.215 165.881 236.215C165.72 236.215 165.585 236.254 165.479 236.332C165.374 236.409 165.295 236.508 165.241 236.63C165.19 236.75 165.165 236.874 165.166 237.002ZM167.651 238.5V235.915H168.099V236.29C168.14 236.218 168.198 236.151 168.271 236.087C168.346 236.024 168.436 235.973 168.541 235.935C168.648 235.897 168.77 235.877 168.909 235.877C169.072 235.877 169.222 235.91 169.359 235.975C169.497 236.04 169.607 236.142 169.689 236.28C169.772 236.417 169.814 236.593 169.814 236.81V238.5H169.351V236.855C169.351 236.653 169.298 236.504 169.191 236.407C169.086 236.309 168.949 236.26 168.781 236.26C168.664 236.26 168.555 236.279 168.454 236.317C168.352 236.354 168.269 236.411 168.206 236.487C168.143 236.562 168.111 236.657 168.111 236.772V238.5H167.651ZM171.728 236.252H171.146V237.86C171.146 237.952 171.155 238.019 171.173 238.062C171.193 238.104 171.226 238.131 171.271 238.142C171.317 238.154 171.381 238.16 171.461 238.16H171.743V238.47C171.711 238.482 171.663 238.492 171.598 238.5C171.535 238.508 171.456 238.513 171.361 238.513C171.182 238.513 171.044 238.488 170.946 238.44C170.847 238.392 170.778 238.32 170.738 238.225C170.7 238.13 170.681 238.013 170.681 237.875V236.252H170.261V235.915H170.693L170.806 235.162H171.146V235.912H171.728V236.252ZM173.545 238.5V234.785H173.995V236.295C174.038 236.223 174.096 236.157 174.17 236.095C174.243 236.032 174.332 235.981 174.437 235.942C174.542 235.902 174.664 235.882 174.802 235.882C174.97 235.882 175.123 235.914 175.26 235.977C175.396 236.039 175.505 236.127 175.585 236.242C175.665 236.357 175.705 236.494 175.705 236.652V238.5H175.242V236.745C175.242 236.59 175.189 236.471 175.082 236.387C174.977 236.302 174.84 236.26 174.67 236.26C174.555 236.26 174.446 236.279 174.345 236.317C174.243 236.354 174.16 236.411 174.097 236.487C174.035 236.562 174.005 236.658 174.005 236.775V238.5H173.545ZM177.131 238.55C176.964 238.55 176.817 238.521 176.688 238.462C176.56 238.402 176.459 238.317 176.386 238.205C176.314 238.093 176.278 237.958 176.278 237.8C176.278 237.513 176.378 237.3 176.578 237.16C176.778 237.02 177.099 236.945 177.541 236.935L178.003 236.922V236.72C178.003 236.562 177.956 236.437 177.861 236.345C177.766 236.252 177.618 236.205 177.418 236.205C177.27 236.207 177.139 236.242 177.026 236.31C176.914 236.378 176.842 236.49 176.808 236.645H176.401C176.411 236.477 176.458 236.335 176.543 236.22C176.628 236.103 176.747 236.015 176.898 235.955C177.052 235.895 177.232 235.865 177.441 235.865C177.666 235.865 177.852 235.897 178.001 235.96C178.151 236.023 178.262 236.117 178.336 236.24C178.411 236.363 178.448 236.515 178.448 236.695V238.5H178.053L178.021 238.015C177.921 238.217 177.793 238.357 177.638 238.435C177.485 238.512 177.316 238.55 177.131 238.55ZM177.271 238.217C177.357 238.217 177.443 238.202 177.528 238.17C177.615 238.138 177.694 238.096 177.766 238.042C177.837 237.987 177.894 237.927 177.936 237.86C177.979 237.792 178.002 237.722 178.003 237.65V237.207L177.618 237.215C177.422 237.218 177.257 237.238 177.123 237.275C176.992 237.312 176.892 237.369 176.826 237.447C176.761 237.526 176.728 237.628 176.728 237.755C176.728 237.9 176.778 238.013 176.878 238.095C176.98 238.177 177.111 238.217 177.271 238.217ZM180.112 238.55C179.932 238.55 179.764 238.523 179.609 238.467C179.456 238.411 179.328 238.323 179.227 238.205C179.125 238.085 179.061 237.932 179.034 237.747H179.454C179.477 237.849 179.519 237.934 179.579 238.002C179.641 238.069 179.717 238.12 179.809 238.155C179.901 238.188 180.001 238.205 180.109 238.205C180.282 238.205 180.422 238.172 180.529 238.107C180.636 238.042 180.689 237.942 180.689 237.807C180.689 237.712 180.661 237.637 180.604 237.58C180.549 237.522 180.463 237.479 180.347 237.452L179.812 237.32C179.603 237.27 179.437 237.192 179.312 237.085C179.187 236.978 179.124 236.829 179.124 236.637C179.122 236.486 179.158 236.352 179.232 236.237C179.305 236.122 179.415 236.032 179.562 235.965C179.708 235.898 179.891 235.865 180.109 235.865C180.389 235.865 180.615 235.928 180.787 236.055C180.96 236.18 181.05 236.364 181.057 236.607H180.649C180.632 236.484 180.577 236.387 180.482 236.315C180.388 236.242 180.262 236.205 180.104 236.205C179.939 236.205 179.805 236.238 179.702 236.305C179.598 236.37 179.547 236.472 179.547 236.61C179.547 236.702 179.583 236.774 179.657 236.827C179.73 236.879 179.838 236.922 179.982 236.957L180.499 237.088C180.619 237.119 180.717 237.161 180.794 237.212C180.872 237.264 180.934 237.322 180.979 237.385C181.026 237.448 181.058 237.515 181.077 237.585C181.097 237.653 181.107 237.719 181.107 237.782C181.107 237.941 181.067 238.077 180.987 238.192C180.908 238.306 180.795 238.394 180.647 238.457C180.5 238.519 180.322 238.55 180.112 238.55ZM184.163 238.55C184.011 238.55 183.883 238.53 183.778 238.49C183.675 238.45 183.59 238.399 183.523 238.337C183.456 238.274 183.405 238.21 183.368 238.145C183.331 238.078 183.305 238.02 183.288 237.97L183.238 238.5H182.885V234.785H183.35V236.325C183.372 236.282 183.405 236.234 183.448 236.182C183.493 236.131 183.55 236.081 183.62 236.032C183.69 235.984 183.773 235.944 183.868 235.912C183.965 235.881 184.075 235.865 184.198 235.865C184.521 235.865 184.778 235.977 184.968 236.202C185.16 236.427 185.255 236.759 185.255 237.197C185.255 237.469 185.215 237.707 185.133 237.91C185.051 238.112 184.93 238.269 184.768 238.382C184.606 238.494 184.405 238.55 184.163 238.55ZM184.08 238.195C184.29 238.195 184.461 238.114 184.593 237.952C184.725 237.789 184.79 237.53 184.79 237.175C184.79 236.873 184.729 236.64 184.605 236.475C184.484 236.308 184.305 236.225 184.07 236.225C183.899 236.225 183.76 236.262 183.655 236.337C183.552 236.411 183.475 236.518 183.425 236.66C183.377 236.802 183.352 236.973 183.35 237.175C183.35 237.537 183.406 237.797 183.518 237.957C183.631 238.116 183.819 238.195 184.08 238.195ZM186.189 237.315C186.189 237.478 186.216 237.627 186.269 237.76C186.324 237.892 186.407 237.997 186.517 238.075C186.628 238.153 186.767 238.192 186.934 238.192C187.099 238.192 187.241 238.154 187.359 238.077C187.479 238.001 187.556 237.89 187.589 237.745H188.027C187.995 237.92 187.925 238.067 187.817 238.188C187.708 238.307 187.577 238.398 187.424 238.46C187.271 238.52 187.111 238.55 186.944 238.55C186.702 238.55 186.49 238.498 186.307 238.392C186.123 238.287 185.98 238.137 185.877 237.94C185.773 237.743 185.722 237.507 185.722 237.232C185.722 236.961 185.768 236.722 185.862 236.517C185.955 236.312 186.09 236.152 186.267 236.037C186.445 235.922 186.659 235.865 186.909 235.865C187.152 235.865 187.358 235.917 187.527 236.022C187.695 236.127 187.822 236.276 187.909 236.467C187.997 236.657 188.042 236.883 188.042 237.145V237.315H186.189ZM186.192 237.002H187.597C187.597 236.854 187.572 236.721 187.522 236.602C187.472 236.482 187.395 236.388 187.292 236.32C187.19 236.25 187.062 236.215 186.907 236.215C186.745 236.215 186.611 236.254 186.504 236.332C186.399 236.409 186.32 236.508 186.267 236.63C186.215 236.75 186.19 236.874 186.192 237.002ZM189.006 237.315C189.006 237.478 189.033 237.627 189.086 237.76C189.141 237.892 189.224 237.997 189.334 238.075C189.446 238.153 189.585 238.192 189.751 238.192C189.916 238.192 190.058 238.154 190.176 238.077C190.296 238.001 190.373 237.89 190.406 237.745H190.844C190.812 237.92 190.742 238.067 190.634 238.188C190.526 238.307 190.395 238.398 190.241 238.46C190.088 238.52 189.928 238.55 189.761 238.55C189.52 238.55 189.307 238.498 189.124 238.392C188.941 238.287 188.797 238.137 188.694 237.94C188.591 237.743 188.539 237.507 188.539 237.232C188.539 236.961 188.586 236.722 188.679 236.517C188.772 236.312 188.907 236.152 189.084 236.037C189.262 235.922 189.476 235.865 189.726 235.865C189.97 235.865 190.176 235.917 190.344 236.022C190.512 236.127 190.64 236.276 190.726 236.467C190.815 236.657 190.859 236.883 190.859 237.145V237.315H189.006ZM189.009 237.002H190.414C190.414 236.854 190.389 236.721 190.339 236.602C190.289 236.482 190.212 236.388 190.109 236.32C190.007 236.25 189.879 236.215 189.724 236.215C189.562 236.215 189.428 236.254 189.321 236.332C189.216 236.409 189.137 236.508 189.084 236.63C189.032 236.75 189.007 236.874 189.009 237.002ZM191.494 238.5V235.915H191.941V236.29C191.983 236.218 192.04 236.151 192.114 236.087C192.189 236.024 192.279 235.973 192.384 235.935C192.49 235.897 192.613 235.877 192.751 235.877C192.915 235.877 193.065 235.91 193.201 235.975C193.34 236.04 193.45 236.142 193.531 236.28C193.615 236.417 193.656 236.593 193.656 236.81V238.5H193.194V236.855C193.194 236.653 193.14 236.504 193.034 236.407C192.929 236.309 192.792 236.26 192.624 236.26C192.507 236.26 192.398 236.279 192.296 236.317C192.195 236.354 192.112 236.411 192.049 236.487C191.985 236.562 191.954 236.657 191.954 236.772V238.5H191.494ZM195.532 239.305V235.915H195.992L195.997 236.365C196.027 236.312 196.065 236.256 196.112 236.197C196.16 236.139 196.219 236.085 196.287 236.035C196.357 235.985 196.438 235.944 196.529 235.912C196.623 235.881 196.729 235.865 196.847 235.865C197.054 235.865 197.235 235.912 197.392 236.007C197.55 236.101 197.674 236.244 197.762 236.437C197.85 236.631 197.894 236.876 197.894 237.172C197.894 237.469 197.851 237.72 197.764 237.925C197.679 238.128 197.556 238.283 197.394 238.39C197.233 238.497 197.038 238.55 196.809 238.55C196.694 238.55 196.592 238.533 196.502 238.5C196.414 238.468 196.336 238.427 196.269 238.375C196.204 238.322 196.149 238.265 196.104 238.205C196.061 238.145 196.025 238.087 195.997 238.032V239.305H195.532ZM196.722 238.19C196.935 238.19 197.109 238.109 197.244 237.947C197.379 237.784 197.447 237.531 197.447 237.187C197.447 236.892 197.385 236.658 197.262 236.485C197.139 236.312 196.959 236.225 196.722 236.225C196.482 236.225 196.3 236.314 196.177 236.492C196.054 236.669 195.992 236.901 195.992 237.187C195.992 237.372 196.019 237.541 196.074 237.692C196.129 237.844 196.211 237.965 196.319 238.055C196.428 238.145 196.562 238.19 196.722 238.19ZM198.501 238.5V235.915H198.941V236.412C198.984 236.289 199.045 236.187 199.123 236.107C199.201 236.026 199.291 235.965 199.391 235.925C199.492 235.885 199.597 235.865 199.706 235.865C199.744 235.865 199.781 235.867 199.818 235.873C199.855 235.877 199.883 235.886 199.903 235.897V236.345C199.878 236.333 199.846 236.326 199.806 236.322C199.767 236.317 199.735 236.315 199.708 236.315C199.605 236.308 199.508 236.315 199.418 236.335C199.328 236.353 199.249 236.386 199.181 236.432C199.112 236.479 199.058 236.541 199.018 236.617C198.98 236.692 198.961 236.784 198.961 236.892V238.5H198.501ZM201.408 238.55C201.17 238.55 200.961 238.499 200.783 238.397C200.605 238.294 200.466 238.143 200.368 237.945C200.27 237.747 200.221 237.504 200.221 237.217C200.221 236.947 200.266 236.711 200.358 236.507C200.45 236.304 200.584 236.147 200.761 236.035C200.939 235.922 201.155 235.865 201.408 235.865C201.646 235.865 201.853 235.917 202.028 236.022C202.205 236.126 202.341 236.278 202.438 236.48C202.535 236.682 202.583 236.927 202.583 237.217C202.583 237.481 202.538 237.712 202.448 237.912C202.36 238.112 202.228 238.269 202.053 238.382C201.88 238.494 201.665 238.55 201.408 238.55ZM201.408 238.185C201.563 238.185 201.694 238.146 201.801 238.067C201.907 237.989 201.988 237.877 202.043 237.73C202.098 237.583 202.126 237.409 202.126 237.207C202.126 237.022 202.101 236.857 202.053 236.71C202.005 236.562 201.927 236.444 201.821 236.357C201.716 236.271 201.578 236.227 201.408 236.227C201.251 236.227 201.119 236.267 201.011 236.345C200.902 236.422 200.82 236.533 200.763 236.68C200.708 236.827 200.681 237.002 200.681 237.207C200.681 237.389 200.706 237.554 200.756 237.702C200.806 237.851 200.884 237.968 200.991 238.055C201.097 238.142 201.236 238.185 201.408 238.185ZM204.218 235.865C204.403 235.865 204.57 235.901 204.718 235.972C204.866 236.042 204.987 236.142 205.081 236.272C205.176 236.402 205.235 236.556 205.258 236.732H204.848C204.833 236.642 204.798 236.56 204.743 236.485C204.69 236.41 204.619 236.35 204.531 236.305C204.442 236.26 204.339 236.237 204.221 236.237C203.999 236.237 203.819 236.317 203.681 236.477C203.542 236.637 203.473 236.882 203.473 237.212C203.473 237.511 203.536 237.75 203.663 237.93C203.791 238.108 203.98 238.197 204.228 238.197C204.346 238.197 204.449 238.175 204.536 238.13C204.624 238.083 204.695 238.022 204.748 237.947C204.801 237.871 204.836 237.789 204.851 237.702H205.253C205.231 237.876 205.173 238.026 205.078 238.152C204.983 238.279 204.861 238.377 204.713 238.447C204.566 238.516 204.401 238.55 204.218 238.55C203.986 238.55 203.781 238.499 203.601 238.397C203.422 238.296 203.282 238.146 203.181 237.947C203.079 237.749 203.028 237.506 203.028 237.217C203.028 236.947 203.074 236.712 203.166 236.51C203.259 236.307 203.394 236.148 203.571 236.035C203.749 235.922 203.965 235.865 204.218 235.865ZM206.213 237.315C206.213 237.478 206.24 237.627 206.293 237.76C206.348 237.892 206.431 237.997 206.541 238.075C206.653 238.153 206.792 238.192 206.958 238.192C207.123 238.192 207.265 238.154 207.383 238.077C207.503 238.001 207.58 237.89 207.613 237.745H208.051C208.019 237.92 207.949 238.067 207.841 238.188C207.733 238.307 207.602 238.398 207.448 238.46C207.295 238.52 207.135 238.55 206.968 238.55C206.727 238.55 206.514 238.498 206.331 238.392C206.148 238.287 206.004 238.137 205.901 237.94C205.798 237.743 205.746 237.507 205.746 237.232C205.746 236.961 205.793 236.722 205.886 236.517C205.979 236.312 206.114 236.152 206.291 236.037C206.469 235.922 206.683 235.865 206.933 235.865C207.177 235.865 207.383 235.917 207.551 236.022C207.719 236.127 207.847 236.276 207.933 236.467C208.022 236.657 208.066 236.883 208.066 237.145V237.315H206.213ZM206.216 237.002H207.621C207.621 236.854 207.596 236.721 207.546 236.602C207.496 236.482 207.419 236.388 207.316 236.32C207.214 236.25 207.086 236.215 206.931 236.215C206.769 236.215 206.635 236.254 206.528 236.332C206.423 236.409 206.344 236.508 206.291 236.63C206.239 236.75 206.214 236.874 206.216 237.002ZM209.599 238.55C209.419 238.55 209.251 238.523 209.096 238.467C208.943 238.411 208.815 238.323 208.714 238.205C208.612 238.085 208.548 237.932 208.521 237.747H208.941C208.965 237.849 209.006 237.934 209.066 238.002C209.128 238.069 209.205 238.12 209.296 238.155C209.388 238.188 209.488 238.205 209.596 238.205C209.77 238.205 209.91 238.172 210.016 238.107C210.123 238.042 210.176 237.942 210.176 237.807C210.176 237.712 210.148 237.637 210.091 237.58C210.036 237.522 209.95 237.479 209.834 237.452L209.299 237.32C209.09 237.27 208.924 237.192 208.799 237.085C208.674 236.978 208.611 236.829 208.611 236.637C208.61 236.486 208.645 236.352 208.719 236.237C208.792 236.122 208.902 236.032 209.049 235.965C209.195 235.898 209.378 235.865 209.596 235.865C209.876 235.865 210.102 235.928 210.274 236.055C210.447 236.18 210.537 236.364 210.544 236.607H210.136C210.12 236.484 210.064 236.387 209.969 236.315C209.875 236.242 209.75 236.205 209.591 236.205C209.426 236.205 209.292 236.238 209.189 236.305C209.085 236.37 209.034 236.472 209.034 236.61C209.034 236.702 209.07 236.774 209.144 236.827C209.217 236.879 209.325 236.922 209.469 236.957L209.986 237.088C210.106 237.119 210.205 237.161 210.281 237.212C210.36 237.264 210.421 237.322 210.466 237.385C210.513 237.448 210.545 237.515 210.564 237.585C210.584 237.653 210.594 237.719 210.594 237.782C210.594 237.941 210.554 238.077 210.474 238.192C210.395 238.306 210.282 238.394 210.134 238.457C209.987 238.519 209.809 238.55 209.599 238.55ZM212.113 238.55C211.933 238.55 211.766 238.523 211.611 238.467C211.458 238.411 211.33 238.323 211.228 238.205C211.127 238.085 211.063 237.932 211.036 237.747H211.456C211.479 237.849 211.521 237.934 211.581 238.002C211.643 238.069 211.719 238.12 211.811 238.155C211.903 238.188 212.003 238.205 212.111 238.205C212.284 238.205 212.424 238.172 212.531 238.107C212.638 238.042 212.691 237.942 212.691 237.807C212.691 237.712 212.663 237.637 212.606 237.58C212.551 237.522 212.465 237.479 212.348 237.452L211.813 237.32C211.605 237.27 211.438 237.192 211.313 237.085C211.188 236.978 211.126 236.829 211.126 236.637C211.124 236.486 211.16 236.352 211.233 236.237C211.307 236.122 211.417 236.032 211.563 235.965C211.71 235.898 211.893 235.865 212.111 235.865C212.391 235.865 212.617 235.928 212.788 236.055C212.962 236.18 213.052 236.364 213.058 236.607H212.651C212.634 236.484 212.578 236.387 212.483 236.315C212.39 236.242 212.264 236.205 212.106 236.205C211.941 236.205 211.807 236.238 211.703 236.305C211.6 236.37 211.548 236.472 211.548 236.61C211.548 236.702 211.585 236.774 211.658 236.827C211.732 236.879 211.84 236.922 211.983 236.957L212.501 237.088C212.621 237.119 212.719 237.161 212.796 237.212C212.874 237.264 212.936 237.322 212.981 237.385C213.028 237.448 213.06 237.515 213.078 237.585C213.098 237.653 213.108 237.719 213.108 237.782C213.108 237.941 213.068 238.077 212.988 238.192C212.91 238.306 212.797 238.394 212.648 238.457C212.502 238.519 212.323 238.55 212.113 238.55ZM214.085 237.315C214.085 237.478 214.111 237.627 214.165 237.76C214.22 237.892 214.302 237.997 214.412 238.075C214.524 238.153 214.663 238.192 214.83 238.192C214.995 238.192 215.136 238.154 215.255 238.077C215.375 238.001 215.451 237.89 215.485 237.745H215.922C215.89 237.92 215.82 238.067 215.712 238.188C215.604 238.307 215.473 238.398 215.32 238.46C215.166 238.52 215.006 238.55 214.84 238.55C214.598 238.55 214.385 238.498 214.202 238.392C214.019 238.287 213.875 238.137 213.772 237.94C213.669 237.743 213.617 237.507 213.617 237.232C213.617 236.961 213.664 236.722 213.757 236.517C213.85 236.312 213.985 236.152 214.162 236.037C214.34 235.922 214.555 235.865 214.805 235.865C215.048 235.865 215.254 235.917 215.422 236.022C215.59 236.127 215.718 236.276 215.805 236.467C215.893 236.657 215.937 236.883 215.937 237.145V237.315H214.085ZM214.087 237.002H215.492C215.492 236.854 215.467 236.721 215.417 236.602C215.367 236.482 215.29 236.388 215.187 236.32C215.085 236.25 214.957 236.215 214.802 236.215C214.64 236.215 214.506 236.254 214.4 236.332C214.295 236.409 214.215 236.508 214.162 236.63C214.11 236.75 214.085 236.874 214.087 237.002ZM217.504 238.55C217.169 238.55 216.904 238.435 216.707 238.205C216.51 237.975 216.412 237.639 216.412 237.197C216.412 236.929 216.451 236.695 216.529 236.495C216.609 236.295 216.728 236.14 216.884 236.03C217.041 235.92 217.236 235.865 217.469 235.865C217.593 235.865 217.702 235.881 217.797 235.912C217.894 235.944 217.977 235.984 218.047 236.032C218.117 236.081 218.174 236.131 218.217 236.182C218.262 236.234 218.295 236.282 218.317 236.325V234.785H218.782V238.5H218.429L218.379 237.97C218.363 238.02 218.336 238.078 218.299 238.145C218.263 238.21 218.211 238.274 218.144 238.337C218.078 238.399 217.992 238.45 217.887 238.49C217.784 238.53 217.656 238.55 217.504 238.55ZM217.587 238.195C217.849 238.195 218.035 238.116 218.147 237.957C218.26 237.797 218.317 237.537 218.317 237.175C218.315 236.973 218.289 236.802 218.239 236.66C218.191 236.518 218.114 236.411 218.009 236.337C217.906 236.262 217.769 236.225 217.597 236.225C217.384 236.225 217.21 236.301 217.077 236.452C216.944 236.604 216.877 236.845 216.877 237.175C216.877 237.498 216.937 237.749 217.057 237.927C217.179 238.106 217.355 238.195 217.587 238.195ZM219.438 238.5V237.91H219.988V238.5H219.438ZM142.115 242.31V241.885H144.85V242.31H143.748V245.5H143.283V242.31H142.115ZM145.351 245.5V241.785H145.801V243.295C145.845 243.223 145.903 243.157 145.976 243.095C146.05 243.032 146.139 242.981 146.244 242.942C146.349 242.902 146.47 242.882 146.609 242.882C146.777 242.882 146.93 242.914 147.066 242.977C147.203 243.039 147.311 243.127 147.391 243.242C147.471 243.357 147.511 243.494 147.511 243.652V245.5H147.049V243.745C147.049 243.59 146.995 243.471 146.889 243.387C146.784 243.302 146.646 243.26 146.476 243.26C146.361 243.26 146.253 243.279 146.151 243.317C146.05 243.354 145.967 243.411 145.904 243.487C145.842 243.562 145.811 243.658 145.811 243.775V245.5H145.351ZM148.562 244.315C148.562 244.478 148.589 244.627 148.642 244.76C148.697 244.892 148.78 244.997 148.89 245.075C149.001 245.153 149.14 245.192 149.307 245.192C149.472 245.192 149.614 245.154 149.732 245.077C149.852 245.001 149.929 244.89 149.962 244.745H150.4C150.368 244.92 150.298 245.067 150.19 245.188C150.081 245.307 149.95 245.398 149.797 245.46C149.644 245.52 149.484 245.55 149.317 245.55C149.075 245.55 148.863 245.498 148.68 245.392C148.496 245.287 148.353 245.137 148.25 244.94C148.146 244.743 148.095 244.507 148.095 244.232C148.095 243.961 148.141 243.722 148.235 243.517C148.328 243.312 148.463 243.152 148.64 243.037C148.818 242.922 149.032 242.865 149.282 242.865C149.525 242.865 149.731 242.917 149.9 243.022C150.068 243.127 150.195 243.276 150.282 243.467C150.37 243.657 150.415 243.883 150.415 244.145V244.315H148.562ZM148.565 244.002H149.97C149.97 243.854 149.945 243.721 149.895 243.602C149.845 243.482 149.768 243.388 149.665 243.32C149.563 243.25 149.435 243.215 149.28 243.215C149.118 243.215 148.984 243.254 148.877 243.332C148.772 243.409 148.693 243.508 148.64 243.63C148.588 243.75 148.563 243.874 148.565 244.002ZM153.481 243.252H152.898V244.86C152.898 244.952 152.908 245.019 152.926 245.062C152.946 245.104 152.978 245.131 153.023 245.142C153.07 245.154 153.133 245.16 153.213 245.16H153.496V245.47C153.464 245.482 153.416 245.492 153.351 245.5C153.288 245.508 153.208 245.513 153.113 245.513C152.935 245.513 152.797 245.488 152.698 245.44C152.6 245.392 152.531 245.32 152.491 245.225C152.453 245.13 152.433 245.013 152.433 244.875V243.252H152.013V242.915H152.446L152.558 242.162H152.898V242.912H153.481V243.252ZM155.104 245.55C154.866 245.55 154.658 245.499 154.479 245.397C154.301 245.294 154.163 245.143 154.064 244.945C153.966 244.747 153.917 244.504 153.917 244.217C153.917 243.947 153.963 243.711 154.054 243.507C154.146 243.304 154.28 243.147 154.457 243.035C154.635 242.922 154.851 242.865 155.104 242.865C155.343 242.865 155.549 242.917 155.724 243.022C155.901 243.126 156.038 243.278 156.134 243.48C156.231 243.682 156.279 243.927 156.279 244.217C156.279 244.481 156.234 244.712 156.144 244.912C156.056 245.112 155.924 245.269 155.749 245.382C155.576 245.494 155.361 245.55 155.104 245.55ZM155.104 245.185C155.259 245.185 155.39 245.146 155.497 245.067C155.604 244.989 155.684 244.877 155.739 244.73C155.794 244.583 155.822 244.409 155.822 244.207C155.822 244.022 155.798 243.857 155.749 243.71C155.701 243.562 155.624 243.444 155.517 243.357C155.412 243.271 155.274 243.227 155.104 243.227C154.948 243.227 154.815 243.267 154.707 243.345C154.599 243.422 154.516 243.533 154.459 243.68C154.404 243.827 154.377 244.002 154.377 244.207C154.377 244.389 154.402 244.554 154.452 244.702C154.502 244.851 154.58 244.968 154.687 245.055C154.794 245.142 154.933 245.185 155.104 245.185ZM158.115 243.252H157.532V244.86C157.532 244.952 157.541 245.019 157.56 245.062C157.58 245.104 157.612 245.131 157.657 245.142C157.704 245.154 157.767 245.16 157.847 245.16H158.13V245.47C158.098 245.482 158.05 245.492 157.985 245.5C157.921 245.508 157.842 245.513 157.747 245.513C157.569 245.513 157.431 245.488 157.332 245.44C157.234 245.392 157.165 245.32 157.125 245.225C157.086 245.13 157.067 245.013 157.067 244.875V243.252H156.647V242.915H157.08L157.192 242.162H157.532V242.912H158.115V243.252ZM159.474 245.55C159.308 245.55 159.16 245.521 159.032 245.462C158.904 245.402 158.803 245.317 158.729 245.205C158.658 245.093 158.622 244.958 158.622 244.8C158.622 244.513 158.722 244.3 158.922 244.16C159.122 244.02 159.443 243.945 159.884 243.935L160.347 243.922V243.72C160.347 243.562 160.299 243.437 160.204 243.345C160.109 243.252 159.962 243.205 159.762 243.205C159.614 243.207 159.483 243.242 159.369 243.31C159.258 243.378 159.185 243.49 159.152 243.645H158.744C158.754 243.477 158.802 243.335 158.887 243.22C158.972 243.103 159.09 243.015 159.242 242.955C159.395 242.895 159.576 242.865 159.784 242.865C160.009 242.865 160.196 242.897 160.344 242.96C160.494 243.023 160.606 243.117 160.679 243.24C160.754 243.363 160.792 243.515 160.792 243.695V245.5H160.397L160.364 245.015C160.264 245.217 160.137 245.357 159.982 245.435C159.829 245.512 159.659 245.55 159.474 245.55ZM159.614 245.217C159.701 245.217 159.787 245.202 159.872 245.17C159.959 245.138 160.038 245.096 160.109 245.042C160.181 244.987 160.238 244.927 160.279 244.86C160.323 244.792 160.345 244.722 160.347 244.65V244.207L159.962 244.215C159.765 244.218 159.6 244.238 159.467 244.275C159.335 244.312 159.236 244.369 159.169 244.447C159.104 244.526 159.072 244.628 159.072 244.755C159.072 244.9 159.122 245.013 159.222 245.095C159.324 245.177 159.454 245.217 159.614 245.217ZM162.234 245.533C162.094 245.533 161.981 245.513 161.894 245.475C161.809 245.437 161.743 245.385 161.697 245.32C161.652 245.255 161.621 245.181 161.604 245.097C161.589 245.012 161.582 244.925 161.582 244.835V241.785H162.037V244.79C162.037 244.92 162.062 245.017 162.112 245.082C162.163 245.147 162.235 245.183 162.327 245.19L162.467 245.192V245.492C162.428 245.504 162.388 245.513 162.347 245.52C162.305 245.528 162.268 245.533 162.234 245.533ZM164.938 245.55C164.772 245.55 164.624 245.521 164.496 245.462C164.367 245.402 164.267 245.317 164.193 245.205C164.122 245.093 164.086 244.958 164.086 244.8C164.086 244.513 164.186 244.3 164.386 244.16C164.586 244.02 164.907 243.945 165.348 243.935L165.811 243.922V243.72C165.811 243.562 165.763 243.437 165.668 243.345C165.573 243.252 165.426 243.205 165.226 243.205C165.077 243.207 164.947 243.242 164.833 243.31C164.722 243.378 164.649 243.49 164.616 243.645H164.208C164.218 243.477 164.266 243.335 164.351 243.22C164.436 243.103 164.554 243.015 164.706 242.955C164.859 242.895 165.04 242.865 165.248 242.865C165.473 242.865 165.66 242.897 165.808 242.96C165.958 243.023 166.07 243.117 166.143 243.24C166.218 243.363 166.256 243.515 166.256 243.695V245.5H165.861L165.828 245.015C165.728 245.217 165.601 245.357 165.446 245.435C165.292 245.512 165.123 245.55 164.938 245.55ZM165.078 245.217C165.165 245.217 165.251 245.202 165.336 245.17C165.422 245.138 165.502 245.096 165.573 245.042C165.645 244.987 165.702 244.927 165.743 244.86C165.787 244.792 165.809 244.722 165.811 244.65V244.207L165.426 244.215C165.229 244.218 165.064 244.238 164.931 244.275C164.799 244.312 164.7 244.369 164.633 244.447C164.568 244.526 164.536 244.628 164.536 244.755C164.536 244.9 164.586 245.013 164.686 245.095C164.787 245.177 164.918 245.217 165.078 245.217ZM167.046 245.5V242.915H167.491V243.29C167.562 243.177 167.661 243.077 167.786 242.992C167.911 242.907 168.073 242.865 168.273 242.865C168.366 242.865 168.461 242.881 168.558 242.912C168.656 242.944 168.746 242.992 168.828 243.055C168.91 243.118 168.973 243.196 169.018 243.287C169.098 243.161 169.206 243.059 169.343 242.982C169.48 242.904 169.634 242.865 169.806 242.865C169.896 242.865 169.99 242.879 170.088 242.907C170.186 242.934 170.277 242.982 170.361 243.052C170.446 243.121 170.515 243.217 170.568 243.34C170.621 243.462 170.648 243.618 170.648 243.81V245.5H170.183V243.855C170.183 243.698 170.158 243.577 170.108 243.492C170.058 243.406 169.992 243.345 169.911 243.31C169.831 243.275 169.745 243.257 169.653 243.257C169.573 243.257 169.488 243.273 169.398 243.305C169.308 243.337 169.231 243.39 169.168 243.465C169.105 243.54 169.073 243.642 169.073 243.772V245.5H168.613V243.72C168.613 243.618 168.586 243.533 168.531 243.465C168.477 243.397 168.41 243.345 168.328 243.31C168.248 243.275 168.168 243.257 168.088 243.257C168 243.257 167.911 243.275 167.821 243.31C167.732 243.345 167.657 243.401 167.596 243.477C167.536 243.552 167.506 243.651 167.506 243.772V245.5H167.046ZM172.399 245.55C172.161 245.55 171.953 245.499 171.774 245.397C171.596 245.294 171.458 245.143 171.359 244.945C171.261 244.747 171.212 244.504 171.212 244.217C171.212 243.947 171.258 243.711 171.349 243.507C171.441 243.304 171.575 243.147 171.752 243.035C171.93 242.922 172.146 242.865 172.399 242.865C172.638 242.865 172.844 242.917 173.019 243.022C173.196 243.126 173.333 243.278 173.429 243.48C173.526 243.682 173.574 243.927 173.574 244.217C173.574 244.481 173.529 244.712 173.439 244.912C173.351 245.112 173.219 245.269 173.044 245.382C172.871 245.494 172.656 245.55 172.399 245.55ZM172.399 245.185C172.554 245.185 172.685 245.146 172.792 245.067C172.898 244.989 172.979 244.877 173.034 244.73C173.089 244.583 173.117 244.409 173.117 244.207C173.117 244.022 173.093 243.857 173.044 243.71C172.996 243.562 172.918 243.444 172.812 243.357C172.707 243.271 172.569 243.227 172.399 243.227C172.243 243.227 172.11 243.267 172.002 243.345C171.893 243.422 171.811 243.533 171.754 243.68C171.699 243.827 171.672 244.002 171.672 244.207C171.672 244.389 171.697 244.554 171.747 244.702C171.797 244.851 171.875 244.968 171.982 245.055C172.088 245.142 172.228 245.185 172.399 245.185ZM175.085 245.55C174.95 245.548 174.823 245.529 174.703 245.492C174.585 245.454 174.48 245.398 174.388 245.325C174.296 245.252 174.224 245.161 174.17 245.052C174.119 244.942 174.093 244.815 174.093 244.67V242.915H174.555V244.622C174.555 244.791 174.607 244.927 174.71 245.032C174.815 245.137 174.973 245.19 175.183 245.19C175.373 245.19 175.525 245.141 175.64 245.042C175.757 244.942 175.815 244.794 175.815 244.597V242.915H176.275V245.5H175.908L175.86 245.005C175.829 245.135 175.775 245.24 175.698 245.32C175.623 245.4 175.532 245.459 175.425 245.497C175.32 245.534 175.207 245.552 175.085 245.55ZM177.031 245.5V242.915H177.478V243.29C177.52 243.218 177.578 243.151 177.651 243.087C177.726 243.024 177.816 242.973 177.921 242.935C178.028 242.897 178.15 242.877 178.288 242.877C178.452 242.877 178.602 242.91 178.738 242.975C178.877 243.04 178.987 243.142 179.068 243.28C179.152 243.417 179.193 243.593 179.193 243.81V245.5H178.731V243.855C178.731 243.653 178.678 243.504 178.571 243.407C178.466 243.309 178.329 243.26 178.161 243.26C178.044 243.26 177.935 243.279 177.833 243.317C177.732 243.354 177.649 243.411 177.586 243.487C177.523 243.562 177.491 243.657 177.491 243.772V245.5H177.031ZM181.108 243.252H180.525V244.86C180.525 244.952 180.535 245.019 180.553 245.062C180.573 245.104 180.605 245.131 180.65 245.142C180.697 245.154 180.76 245.16 180.84 245.16H181.123V245.47C181.091 245.482 181.043 245.492 180.978 245.5C180.915 245.508 180.835 245.513 180.74 245.513C180.562 245.513 180.424 245.488 180.325 245.44C180.227 245.392 180.158 245.32 180.118 245.225C180.08 245.13 180.06 245.013 180.06 244.875V243.252H179.64V242.915H180.073L180.185 242.162H180.525V242.912H181.108V243.252ZM183.794 245.55C183.459 245.55 183.193 245.435 182.996 245.205C182.799 244.975 182.701 244.639 182.701 244.197C182.701 243.929 182.74 243.695 182.819 243.495C182.899 243.295 183.017 243.14 183.174 243.03C183.33 242.92 183.525 242.865 183.759 242.865C183.882 242.865 183.991 242.881 184.086 242.912C184.183 242.944 184.266 242.984 184.336 243.032C184.406 243.081 184.463 243.131 184.506 243.182C184.551 243.234 184.584 243.282 184.606 243.325V241.785H185.071V245.5H184.719L184.669 244.97C184.652 245.02 184.625 245.078 184.589 245.145C184.552 245.21 184.5 245.274 184.434 245.337C184.367 245.399 184.281 245.45 184.176 245.49C184.073 245.53 183.945 245.55 183.794 245.55ZM183.876 245.195C184.138 245.195 184.324 245.116 184.436 244.957C184.549 244.797 184.606 244.537 184.606 244.175C184.604 243.973 184.579 243.802 184.529 243.66C184.48 243.518 184.404 243.411 184.299 243.337C184.195 243.262 184.058 243.225 183.886 243.225C183.673 243.225 183.499 243.301 183.366 243.452C183.233 243.604 183.166 243.845 183.166 244.175C183.166 244.498 183.226 244.749 183.346 244.927C183.468 245.106 183.644 245.195 183.876 245.195ZM186.165 244.315C186.165 244.478 186.191 244.627 186.245 244.76C186.3 244.892 186.382 244.997 186.492 245.075C186.604 245.153 186.743 245.192 186.91 245.192C187.075 245.192 187.216 245.154 187.335 245.077C187.455 245.001 187.531 244.89 187.565 244.745H188.002C187.97 244.92 187.9 245.067 187.792 245.188C187.684 245.307 187.553 245.398 187.4 245.46C187.246 245.52 187.086 245.55 186.92 245.55C186.678 245.55 186.465 245.498 186.282 245.392C186.099 245.287 185.955 245.137 185.852 244.94C185.749 244.743 185.697 244.507 185.697 244.232C185.697 243.961 185.744 243.722 185.837 243.517C185.93 243.312 186.065 243.152 186.242 243.037C186.42 242.922 186.635 242.865 186.885 242.865C187.128 242.865 187.334 242.917 187.502 243.022C187.67 243.127 187.798 243.276 187.885 243.467C187.973 243.657 188.017 243.883 188.017 244.145V244.315H186.165ZM186.167 244.002H187.572C187.572 243.854 187.547 243.721 187.497 243.602C187.447 243.482 187.37 243.388 187.267 243.32C187.165 243.25 187.037 243.215 186.882 243.215C186.72 243.215 186.586 243.254 186.48 243.332C186.375 243.409 186.295 243.508 186.242 243.63C186.19 243.75 186.165 243.874 186.167 244.002ZM189.585 245.55C189.25 245.55 188.984 245.435 188.787 245.205C188.59 244.975 188.492 244.639 188.492 244.197C188.492 243.929 188.531 243.695 188.61 243.495C188.69 243.295 188.808 243.14 188.965 243.03C189.121 242.92 189.316 242.865 189.55 242.865C189.673 242.865 189.782 242.881 189.877 242.912C189.974 242.944 190.057 242.984 190.127 243.032C190.197 243.081 190.254 243.131 190.297 243.182C190.342 243.234 190.375 243.282 190.397 243.325V241.785H190.862V245.5H190.51L190.46 244.97C190.443 245.02 190.416 245.078 190.38 245.145C190.343 245.21 190.291 245.274 190.225 245.337C190.158 245.399 190.072 245.45 189.967 245.49C189.864 245.53 189.736 245.55 189.585 245.55ZM189.667 245.195C189.929 245.195 190.115 245.116 190.227 244.957C190.34 244.797 190.397 244.537 190.397 244.175C190.395 243.973 190.37 243.802 190.32 243.66C190.271 243.518 190.195 243.411 190.09 243.337C189.986 243.262 189.849 243.225 189.677 243.225C189.464 243.225 189.29 243.301 189.157 243.452C189.024 243.604 188.957 243.845 188.957 244.175C188.957 244.498 189.017 244.749 189.137 244.927C189.259 245.106 189.435 245.195 189.667 245.195ZM192.576 245.55C192.441 245.548 192.313 245.529 192.193 245.492C192.075 245.454 191.97 245.398 191.878 245.325C191.786 245.252 191.714 245.161 191.661 245.052C191.609 244.942 191.583 244.815 191.583 244.67V242.915H192.046V244.622C192.046 244.791 192.097 244.927 192.201 245.032C192.306 245.137 192.463 245.19 192.673 245.19C192.863 245.19 193.016 245.141 193.131 245.042C193.247 244.942 193.306 244.794 193.306 244.597V242.915H193.766V245.5H193.398L193.351 245.005C193.319 245.135 193.265 245.24 193.188 245.32C193.113 245.4 193.022 245.459 192.916 245.497C192.811 245.534 192.697 245.552 192.576 245.55ZM195.517 242.865C195.702 242.865 195.869 242.901 196.017 242.972C196.165 243.042 196.286 243.142 196.379 243.272C196.474 243.402 196.534 243.556 196.557 243.732H196.147C196.132 243.642 196.097 243.56 196.042 243.485C195.989 243.41 195.918 243.35 195.829 243.305C195.741 243.26 195.638 243.237 195.519 243.237C195.298 243.237 195.118 243.317 194.979 243.477C194.841 243.637 194.772 243.882 194.772 244.212C194.772 244.511 194.835 244.75 194.962 244.93C195.09 245.108 195.279 245.197 195.527 245.197C195.645 245.197 195.748 245.175 195.834 245.13C195.923 245.083 195.994 245.022 196.047 244.947C196.1 244.871 196.134 244.789 196.149 244.702H196.552C196.53 244.876 196.472 245.026 196.377 245.152C196.282 245.279 196.16 245.377 196.012 245.447C195.865 245.516 195.7 245.55 195.517 245.55C195.285 245.55 195.079 245.499 194.899 245.397C194.721 245.296 194.581 245.146 194.479 244.947C194.378 244.749 194.327 244.506 194.327 244.217C194.327 243.947 194.373 243.712 194.464 243.51C194.558 243.307 194.693 243.148 194.869 243.035C195.048 242.922 195.264 242.865 195.517 242.865ZM198.413 243.252H197.83V244.86C197.83 244.952 197.839 245.019 197.858 245.062C197.878 245.104 197.91 245.131 197.955 245.142C198.002 245.154 198.065 245.16 198.145 245.16H198.428V245.47C198.396 245.482 198.348 245.492 198.283 245.5C198.219 245.508 198.14 245.513 198.045 245.513C197.867 245.513 197.728 245.488 197.63 245.44C197.532 245.392 197.463 245.32 197.423 245.225C197.384 245.13 197.365 245.013 197.365 244.875V243.252H196.945V242.915H197.378L197.49 242.162H197.83V242.912H198.413V243.252ZM199.338 244.315C199.338 244.478 199.365 244.627 199.418 244.76C199.473 244.892 199.556 244.997 199.666 245.075C199.778 245.153 199.917 245.192 200.083 245.192C200.248 245.192 200.39 245.154 200.508 245.077C200.628 245.001 200.705 244.89 200.738 244.745H201.176C201.144 244.92 201.074 245.067 200.966 245.188C200.858 245.307 200.727 245.398 200.573 245.46C200.42 245.52 200.26 245.55 200.093 245.55C199.852 245.55 199.639 245.498 199.456 245.392C199.273 245.287 199.129 245.137 199.026 244.94C198.923 244.743 198.871 244.507 198.871 244.232C198.871 243.961 198.918 243.722 199.011 243.517C199.104 243.312 199.239 243.152 199.416 243.037C199.594 242.922 199.808 242.865 200.058 242.865C200.302 242.865 200.508 242.917 200.676 243.022C200.844 243.127 200.972 243.276 201.058 243.467C201.147 243.657 201.191 243.883 201.191 244.145V244.315H199.338ZM199.341 244.002H200.746C200.746 243.854 200.721 243.721 200.671 243.602C200.621 243.482 200.544 243.388 200.441 243.32C200.339 243.25 200.211 243.215 200.056 243.215C199.894 243.215 199.76 243.254 199.653 243.332C199.548 243.409 199.469 243.508 199.416 243.63C199.364 243.75 199.339 243.874 199.341 244.002ZM202.758 245.55C202.423 245.55 202.158 245.435 201.961 245.205C201.764 244.975 201.666 244.639 201.666 244.197C201.666 243.929 201.705 243.695 201.783 243.495C201.863 243.295 201.982 243.14 202.138 243.03C202.295 242.92 202.49 242.865 202.723 242.865C202.847 242.865 202.956 242.881 203.051 242.912C203.148 242.944 203.231 242.984 203.301 243.032C203.371 243.081 203.428 243.131 203.471 243.182C203.516 243.234 203.549 243.282 203.571 243.325V241.785H204.036V245.5H203.683L203.633 244.97C203.617 245.02 203.59 245.078 203.553 245.145C203.517 245.21 203.465 245.274 203.398 245.337C203.332 245.399 203.246 245.45 203.141 245.49C203.038 245.53 202.91 245.55 202.758 245.55ZM202.841 245.195C203.103 245.195 203.289 245.116 203.401 244.957C203.514 244.797 203.571 244.537 203.571 244.175C203.569 243.973 203.543 243.802 203.493 243.66C203.445 243.518 203.368 243.411 203.263 243.337C203.16 243.262 203.023 243.225 202.851 243.225C202.638 243.225 202.464 243.301 202.331 243.452C202.198 243.604 202.131 243.845 202.131 244.175C202.131 244.498 202.191 244.749 202.311 244.927C202.433 245.106 202.609 245.195 202.841 245.195ZM207.412 242.915V243.252H206.784V245.5H206.319V243.252H205.774V242.915H206.319V242.515C206.319 242.31 206.372 242.154 206.477 242.047C206.582 241.939 206.739 241.885 206.947 241.885H207.434L207.437 242.212H207.049C206.944 242.212 206.873 242.241 206.834 242.297C206.796 242.354 206.777 242.44 206.777 242.555V242.915H207.412ZM207.983 245.5V242.915H208.423V243.412C208.466 243.289 208.527 243.187 208.606 243.107C208.684 243.026 208.773 242.965 208.873 242.925C208.975 242.885 209.08 242.865 209.188 242.865C209.226 242.865 209.264 242.867 209.301 242.873C209.337 242.877 209.366 242.886 209.386 242.897V243.345C209.361 243.333 209.328 243.326 209.288 243.322C209.25 243.317 209.217 243.315 209.191 243.315C209.087 243.308 208.991 243.315 208.901 243.335C208.811 243.353 208.731 243.386 208.663 243.432C208.595 243.479 208.541 243.541 208.501 243.617C208.462 243.692 208.443 243.784 208.443 243.892V245.5H207.983ZM210.89 245.55C210.652 245.55 210.444 245.499 210.265 245.397C210.087 245.294 209.949 245.143 209.85 244.945C209.752 244.747 209.703 244.504 209.703 244.217C209.703 243.947 209.749 243.711 209.84 243.507C209.932 243.304 210.066 243.147 210.243 243.035C210.421 242.922 210.637 242.865 210.89 242.865C211.129 242.865 211.335 242.917 211.51 243.022C211.687 243.126 211.824 243.278 211.92 243.48C212.017 243.682 212.065 243.927 212.065 244.217C212.065 244.481 212.02 244.712 211.93 244.912C211.842 245.112 211.71 245.269 211.535 245.382C211.362 245.494 211.147 245.55 210.89 245.55ZM210.89 245.185C211.045 245.185 211.176 245.146 211.283 245.067C211.39 244.989 211.47 244.877 211.525 244.73C211.58 244.583 211.608 244.409 211.608 244.207C211.608 244.022 211.584 243.857 211.535 243.71C211.487 243.562 211.41 243.444 211.303 243.357C211.198 243.271 211.06 243.227 210.89 243.227C210.734 243.227 210.601 243.267 210.493 243.345C210.385 243.422 210.302 243.533 210.245 243.68C210.19 243.827 210.163 244.002 210.163 244.207C210.163 244.389 210.188 244.554 210.238 244.702C210.288 244.851 210.366 244.968 210.473 245.055C210.58 245.142 210.719 245.185 210.89 245.185ZM212.671 245.5V242.915H213.116V243.29C213.187 243.177 213.286 243.077 213.411 242.992C213.536 242.907 213.698 242.865 213.898 242.865C213.991 242.865 214.086 242.881 214.183 242.912C214.281 242.944 214.371 242.992 214.453 243.055C214.535 243.118 214.598 243.196 214.643 243.287C214.723 243.161 214.831 243.059 214.968 242.982C215.105 242.904 215.259 242.865 215.431 242.865C215.521 242.865 215.615 242.879 215.713 242.907C215.811 242.934 215.902 242.982 215.986 243.052C216.071 243.121 216.14 243.217 216.193 243.34C216.246 243.462 216.273 243.618 216.273 243.81V245.5H215.808V243.855C215.808 243.698 215.783 243.577 215.733 243.492C215.683 243.406 215.617 243.345 215.536 243.31C215.456 243.275 215.37 243.257 215.278 243.257C215.198 243.257 215.113 243.273 215.023 243.305C214.933 243.337 214.856 243.39 214.793 243.465C214.73 243.54 214.698 243.642 214.698 243.772V245.5H214.238V243.72C214.238 243.618 214.211 243.533 214.156 243.465C214.102 243.397 214.035 243.345 213.953 243.31C213.873 243.275 213.793 243.257 213.713 243.257C213.625 243.257 213.536 243.275 213.446 243.31C213.357 243.345 213.282 243.401 213.221 243.477C213.161 243.552 213.131 243.651 213.131 243.772V245.5H212.671ZM218.37 246.325C218.218 246.325 218.114 246.314 218.057 246.293C218.001 246.271 217.972 246.26 217.972 246.26V245.96L218.235 245.965C218.332 245.968 218.412 245.962 218.475 245.945C218.538 245.928 218.589 245.906 218.627 245.878C218.666 245.849 218.695 245.818 218.715 245.783C218.737 245.748 218.754 245.714 218.767 245.683L218.857 245.437L217.847 242.915H218.315L219.077 244.91L219.835 242.915H220.287L219.197 245.695C219.131 245.858 219.056 245.986 218.972 246.078C218.891 246.169 218.799 246.233 218.697 246.27C218.597 246.307 218.488 246.325 218.37 246.325ZM221.716 245.55C221.477 245.55 221.269 245.499 221.091 245.397C220.912 245.294 220.774 245.143 220.676 244.945C220.577 244.747 220.528 244.504 220.528 244.217C220.528 243.947 220.574 243.711 220.666 243.507C220.757 243.304 220.891 243.147 221.068 243.035C221.246 242.922 221.462 242.865 221.716 242.865C221.954 242.865 222.161 242.917 222.336 243.022C222.512 243.126 222.649 243.278 222.746 243.48C222.842 243.682 222.891 243.927 222.891 244.217C222.891 244.481 222.846 244.712 222.756 244.912C222.667 245.112 222.536 245.269 222.361 245.382C222.187 245.494 221.972 245.55 221.716 245.55ZM221.716 245.185C221.871 245.185 222.001 245.146 222.108 245.067C222.215 244.989 222.296 244.877 222.351 244.73C222.406 244.583 222.433 244.409 222.433 244.207C222.433 244.022 222.409 243.857 222.361 243.71C222.312 243.562 222.235 243.444 222.128 243.357C222.023 243.271 221.886 243.227 221.716 243.227C221.559 243.227 221.426 243.267 221.318 243.345C221.21 243.422 221.127 243.533 221.071 243.68C221.016 243.827 220.988 244.002 220.988 244.207C220.988 244.389 221.013 244.554 221.063 244.702C221.113 244.851 221.191 244.968 221.298 245.055C221.405 245.142 221.544 245.185 221.716 245.185ZM224.402 245.55C224.267 245.548 224.139 245.529 224.019 245.492C223.901 245.454 223.796 245.398 223.704 245.325C223.613 245.252 223.54 245.161 223.487 245.052C223.435 244.942 223.409 244.815 223.409 244.67V242.915H223.872V244.622C223.872 244.791 223.924 244.927 224.027 245.032C224.132 245.137 224.289 245.19 224.499 245.19C224.689 245.19 224.842 245.141 224.957 245.042C225.074 244.942 225.132 244.794 225.132 244.597V242.915H225.592V245.5H225.224L225.177 245.005C225.145 245.135 225.091 245.24 225.014 245.32C224.939 245.4 224.849 245.459 224.742 245.497C224.637 245.534 224.524 245.552 224.402 245.55ZM226.347 245.5V242.915H226.787V243.412C226.831 243.289 226.892 243.187 226.97 243.107C227.048 243.026 227.137 242.965 227.237 242.925C227.339 242.885 227.444 242.865 227.552 242.865C227.591 242.865 227.628 242.867 227.665 242.873C227.702 242.877 227.73 242.886 227.75 242.897V243.345C227.725 243.333 227.692 243.326 227.652 243.322C227.614 243.317 227.582 243.315 227.555 243.315C227.452 243.308 227.355 243.315 227.265 243.335C227.175 243.353 227.096 243.386 227.027 243.432C226.959 243.479 226.905 243.541 226.865 243.617C226.827 243.692 226.807 243.784 226.807 243.892V245.5H226.347ZM143.098 252.55C142.931 252.55 142.783 252.521 142.655 252.462C142.527 252.402 142.426 252.317 142.353 252.205C142.281 252.093 142.245 251.958 142.245 251.8C142.245 251.513 142.345 251.3 142.545 251.16C142.745 251.02 143.066 250.945 143.508 250.935L143.97 250.922V250.72C143.97 250.562 143.923 250.437 143.828 250.345C143.733 250.252 143.585 250.205 143.385 250.205C143.237 250.207 143.106 250.242 142.993 250.31C142.881 250.378 142.808 250.49 142.775 250.645H142.367C142.378 250.477 142.425 250.335 142.51 250.22C142.595 250.103 142.713 250.015 142.865 249.955C143.018 249.895 143.199 249.865 143.408 249.865C143.633 249.865 143.819 249.897 143.968 249.96C144.118 250.023 144.229 250.117 144.303 250.24C144.378 250.363 144.415 250.515 144.415 250.695V252.5H144.02L143.988 252.015C143.888 252.217 143.76 252.357 143.605 252.435C143.452 252.512 143.283 252.55 143.098 252.55ZM143.238 252.217C143.324 252.217 143.41 252.202 143.495 252.17C143.582 252.138 143.661 252.096 143.733 252.042C143.804 251.987 143.861 251.927 143.903 251.86C143.946 251.792 143.968 251.722 143.97 251.65V251.207L143.585 251.215C143.388 251.218 143.223 251.238 143.09 251.275C142.958 251.312 142.859 251.369 142.793 251.447C142.728 251.526 142.695 251.628 142.695 251.755C142.695 251.9 142.745 252.013 142.845 252.095C142.947 252.177 143.078 252.217 143.238 252.217ZM146.235 249.865C146.42 249.865 146.586 249.901 146.735 249.972C146.883 250.042 147.004 250.142 147.097 250.272C147.192 250.402 147.251 250.556 147.275 250.732H146.865C146.85 250.642 146.815 250.56 146.76 250.485C146.706 250.41 146.636 250.35 146.547 250.305C146.459 250.26 146.356 250.237 146.237 250.237C146.016 250.237 145.836 250.317 145.697 250.477C145.559 250.637 145.49 250.882 145.49 251.212C145.49 251.511 145.553 251.75 145.68 251.93C145.808 252.108 145.996 252.197 146.245 252.197C146.363 252.197 146.466 252.175 146.552 252.13C146.641 252.083 146.711 252.022 146.765 251.947C146.818 251.871 146.852 251.789 146.867 251.702H147.27C147.248 251.876 147.19 252.026 147.095 252.152C147 252.279 146.878 252.377 146.73 252.447C146.583 252.516 146.418 252.55 146.235 252.55C146.003 252.55 145.797 252.499 145.617 252.397C145.439 252.296 145.299 252.146 145.197 251.947C145.096 251.749 145.045 251.506 145.045 251.217C145.045 250.947 145.091 250.712 145.182 250.51C145.276 250.307 145.411 250.148 145.587 250.035C145.766 249.922 145.981 249.865 146.235 249.865ZM148.93 249.865C149.115 249.865 149.282 249.901 149.43 249.972C149.578 250.042 149.699 250.142 149.793 250.272C149.888 250.402 149.947 250.556 149.97 250.732H149.56C149.545 250.642 149.51 250.56 149.455 250.485C149.402 250.41 149.331 250.35 149.243 250.305C149.154 250.26 149.051 250.237 148.933 250.237C148.711 250.237 148.531 250.317 148.393 250.477C148.254 250.637 148.185 250.882 148.185 251.212C148.185 251.511 148.248 251.75 148.375 251.93C148.503 252.108 148.692 252.197 148.94 252.197C149.058 252.197 149.161 252.175 149.248 252.13C149.336 252.083 149.407 252.022 149.46 251.947C149.513 251.871 149.548 251.789 149.563 251.702H149.965C149.943 251.876 149.885 252.026 149.79 252.152C149.695 252.279 149.573 252.377 149.425 252.447C149.278 252.516 149.113 252.55 148.93 252.55C148.698 252.55 148.493 252.499 148.313 252.397C148.134 252.296 147.994 252.146 147.893 251.947C147.791 251.749 147.74 251.506 147.74 251.217C147.74 250.947 147.786 250.712 147.878 250.51C147.971 250.307 148.106 250.148 148.283 250.035C148.461 249.922 148.677 249.865 148.93 249.865ZM151.623 252.55C151.385 252.55 151.176 252.499 150.998 252.397C150.82 252.294 150.681 252.143 150.583 251.945C150.485 251.747 150.435 251.504 150.435 251.217C150.435 250.947 150.481 250.711 150.573 250.507C150.665 250.304 150.799 250.147 150.975 250.035C151.154 249.922 151.37 249.865 151.623 249.865C151.861 249.865 152.068 249.917 152.243 250.022C152.42 250.126 152.556 250.278 152.653 250.48C152.75 250.682 152.798 250.927 152.798 251.217C152.798 251.481 152.753 251.712 152.663 251.912C152.575 252.112 152.443 252.269 152.268 252.382C152.095 252.494 151.88 252.55 151.623 252.55ZM151.623 252.185C151.778 252.185 151.909 252.146 152.015 252.067C152.122 251.989 152.203 251.877 152.258 251.73C152.313 251.583 152.34 251.409 152.34 251.207C152.34 251.022 152.316 250.857 152.268 250.71C152.22 250.562 152.142 250.444 152.035 250.357C151.93 250.271 151.793 250.227 151.623 250.227C151.466 250.227 151.334 250.267 151.225 250.345C151.117 250.422 151.035 250.533 150.978 250.68C150.923 250.827 150.895 251.002 150.895 251.207C150.895 251.389 150.92 251.554 150.97 251.702C151.02 251.851 151.099 251.968 151.205 252.055C151.312 252.142 151.451 252.185 151.623 252.185ZM154.309 252.55C154.174 252.548 154.047 252.529 153.927 252.492C153.808 252.454 153.703 252.398 153.612 252.325C153.52 252.252 153.447 252.161 153.394 252.052C153.342 251.942 153.317 251.815 153.317 251.67V249.915H153.779V251.622C153.779 251.791 153.831 251.927 153.934 252.032C154.039 252.137 154.197 252.19 154.407 252.19C154.597 252.19 154.749 252.141 154.864 252.042C154.981 251.942 155.039 251.794 155.039 251.597V249.915H155.499V252.5H155.132L155.084 252.005C155.052 252.135 154.998 252.24 154.922 252.32C154.847 252.4 154.756 252.459 154.649 252.497C154.544 252.534 154.431 252.552 154.309 252.55ZM156.255 252.5V249.915H156.702V250.29C156.744 250.218 156.801 250.151 156.875 250.087C156.95 250.024 157.04 249.973 157.145 249.935C157.251 249.897 157.374 249.877 157.512 249.877C157.675 249.877 157.825 249.91 157.962 249.975C158.1 250.04 158.21 250.142 158.292 250.28C158.375 250.417 158.417 250.593 158.417 250.81V252.5H157.955V250.855C157.955 250.653 157.901 250.504 157.795 250.407C157.69 250.309 157.553 250.26 157.385 250.26C157.268 250.26 157.159 250.279 157.057 250.317C156.955 250.354 156.873 250.411 156.81 250.487C156.746 250.562 156.715 250.657 156.715 250.772V252.5H156.255ZM160.332 250.252H159.749V251.86C159.749 251.952 159.758 252.019 159.777 252.062C159.797 252.104 159.829 252.131 159.874 252.142C159.921 252.154 159.984 252.16 160.064 252.16H160.347V252.47C160.315 252.482 160.267 252.492 160.202 252.5C160.138 252.508 160.059 252.513 159.964 252.513C159.786 252.513 159.647 252.488 159.549 252.44C159.451 252.392 159.382 252.32 159.342 252.225C159.303 252.13 159.284 252.013 159.284 251.875V250.252H158.864V249.915H159.297L159.409 249.162H159.749V249.912H160.332V250.252ZM162.648 249.915V252.5H162.201V249.915H162.648ZM162.658 248.887V249.367H162.186V248.887H162.658ZM164.379 252.55C164.199 252.55 164.032 252.523 163.877 252.467C163.723 252.411 163.596 252.323 163.494 252.205C163.392 252.085 163.328 251.932 163.302 251.747H163.722C163.745 251.849 163.787 251.934 163.847 252.002C163.908 252.069 163.985 252.12 164.077 252.155C164.168 252.188 164.268 252.205 164.377 252.205C164.55 252.205 164.69 252.172 164.797 252.107C164.903 252.042 164.957 251.942 164.957 251.807C164.957 251.712 164.928 251.637 164.872 251.58C164.817 251.522 164.731 251.479 164.614 251.452L164.079 251.32C163.871 251.27 163.704 251.192 163.579 251.085C163.454 250.978 163.392 250.829 163.392 250.637C163.39 250.486 163.426 250.352 163.499 250.237C163.572 250.122 163.682 250.032 163.829 249.965C163.976 249.898 164.158 249.865 164.377 249.865C164.657 249.865 164.882 249.928 165.054 250.055C165.227 250.18 165.317 250.364 165.324 250.607H164.917C164.9 250.484 164.844 250.387 164.749 250.315C164.656 250.242 164.53 250.205 164.372 250.205C164.207 250.205 164.072 250.238 163.969 250.305C163.866 250.37 163.814 250.472 163.814 250.61C163.814 250.702 163.851 250.774 163.924 250.827C163.997 250.879 164.106 250.922 164.249 250.957L164.767 251.088C164.887 251.119 164.985 251.161 165.062 251.212C165.14 251.264 165.202 251.322 165.247 251.385C165.293 251.448 165.326 251.515 165.344 251.585C165.364 251.653 165.374 251.719 165.374 251.782C165.374 251.941 165.334 252.077 165.254 252.192C165.176 252.306 165.062 252.394 164.914 252.457C164.767 252.519 164.589 252.55 164.379 252.55ZM169.995 251.123C169.995 251.414 169.947 251.667 169.852 251.882C169.757 252.096 169.603 252.261 169.39 252.377C169.178 252.493 168.897 252.55 168.547 252.55C168.196 252.55 167.914 252.492 167.702 252.375C167.491 252.257 167.337 252.089 167.242 251.872C167.149 251.656 167.102 251.397 167.102 251.097V248.885H167.845V251.152C167.845 251.422 167.91 251.62 168.04 251.745C168.17 251.868 168.339 251.93 168.547 251.93C168.686 251.93 168.808 251.903 168.915 251.85C169.021 251.795 169.105 251.711 169.165 251.597C169.226 251.482 169.257 251.334 169.257 251.152V248.885H169.995V251.123ZM172.078 252.55C171.9 252.55 171.725 252.528 171.553 252.482C171.381 252.437 171.225 252.37 171.083 252.28C170.941 252.19 170.824 252.077 170.73 251.942C170.639 251.807 170.584 251.649 170.565 251.467H171.313C171.338 251.577 171.385 251.67 171.455 251.745C171.525 251.82 171.614 251.877 171.72 251.917C171.827 251.957 171.945 251.977 172.075 251.977C172.209 251.977 172.33 251.961 172.44 251.927C172.55 251.894 172.639 251.844 172.705 251.777C172.772 251.709 172.805 251.624 172.805 251.522C172.805 251.431 172.778 251.356 172.723 251.297C172.67 251.239 172.597 251.192 172.505 251.155C172.414 251.118 172.31 251.088 172.193 251.065L171.568 250.938C171.295 250.886 171.078 250.777 170.918 250.612C170.758 250.446 170.675 250.224 170.67 249.947C170.669 249.721 170.729 249.525 170.85 249.36C170.974 249.193 171.14 249.065 171.35 248.975C171.562 248.885 171.799 248.84 172.06 248.84C172.372 248.84 172.634 248.889 172.845 248.987C173.059 249.084 173.22 249.216 173.33 249.382C173.442 249.547 173.5 249.732 173.503 249.935H172.77C172.757 249.808 172.719 249.707 172.655 249.632C172.592 249.557 172.51 249.503 172.41 249.47C172.312 249.437 172.2 249.42 172.073 249.42C171.976 249.42 171.888 249.431 171.808 249.452C171.73 249.474 171.663 249.505 171.608 249.545C171.553 249.583 171.51 249.629 171.48 249.682C171.45 249.736 171.435 249.796 171.435 249.862C171.435 249.967 171.47 250.052 171.54 250.117C171.61 250.182 171.741 250.236 171.933 250.277L172.553 250.405C172.775 250.448 172.95 250.512 173.08 250.597C173.212 250.682 173.31 250.778 173.375 250.885C173.442 250.992 173.485 251.101 173.505 251.212C173.527 251.322 173.538 251.424 173.538 251.517C173.538 251.712 173.476 251.888 173.353 252.045C173.231 252.2 173.061 252.323 172.843 252.415C172.625 252.505 172.37 252.55 172.078 252.55ZM176.609 252.55C176.176 252.55 175.824 252.463 175.554 252.29C175.284 252.115 175.129 251.846 175.089 251.482L175.849 251.467C175.889 251.632 175.975 251.758 176.107 251.845C176.24 251.93 176.407 251.972 176.607 251.972C176.727 251.972 176.833 251.953 176.924 251.915C177.018 251.875 177.091 251.822 177.144 251.755C177.198 251.687 177.224 251.609 177.224 251.522C177.224 251.389 177.182 251.29 177.097 251.225C177.012 251.158 176.881 251.105 176.704 251.065L176.112 250.938C175.837 250.882 175.616 250.773 175.449 250.61C175.284 250.445 175.2 250.224 175.197 249.947C175.195 249.721 175.256 249.525 175.379 249.36C175.504 249.193 175.673 249.065 175.887 248.975C176.102 248.885 176.343 248.84 176.609 248.84C176.883 248.84 177.118 248.889 177.317 248.987C177.517 249.084 177.67 249.215 177.777 249.38C177.885 249.543 177.938 249.724 177.934 249.922L177.197 249.935C177.173 249.775 177.12 249.649 177.037 249.557C176.953 249.466 176.815 249.42 176.622 249.42C176.522 249.42 176.433 249.431 176.354 249.452C176.276 249.474 176.208 249.505 176.152 249.545C176.095 249.583 176.052 249.629 176.022 249.682C175.993 249.736 175.979 249.796 175.979 249.862C175.979 249.967 176.014 250.051 176.084 250.112C176.156 250.172 176.29 250.228 176.487 250.28L177.069 250.422C177.398 250.501 177.634 250.635 177.779 250.825C177.926 251.015 177.999 251.246 177.999 251.517C177.999 251.726 177.942 251.907 177.827 252.062C177.713 252.217 177.553 252.337 177.344 252.422C177.136 252.508 176.891 252.55 176.609 252.55ZM176.297 248.367H176.929V249.017H176.297V248.367ZM176.284 252.327H176.914V252.978H176.284V252.327ZM179.105 252.5V249.792H178.46V249.38C178.667 249.38 178.833 249.361 178.96 249.322C179.088 249.282 179.184 249.226 179.248 249.152C179.311 249.077 179.348 248.988 179.36 248.885H179.845V252.5H179.105ZM181.999 248.835C182.429 248.835 182.768 248.996 183.016 249.317C183.265 249.637 183.389 250.098 183.389 250.7C183.389 251.298 183.266 251.757 183.021 252.077C182.776 252.396 182.435 252.555 181.999 252.555C181.56 252.555 181.218 252.396 180.971 252.077C180.726 251.759 180.604 251.301 180.604 250.702C180.604 250.302 180.66 249.963 180.774 249.685C180.887 249.407 181.048 249.196 181.256 249.052C181.465 248.907 181.712 248.835 181.999 248.835ZM181.999 251.957C182.214 251.957 182.371 251.862 182.471 251.67C182.571 251.477 182.621 251.154 182.621 250.702C182.621 250.241 182.57 249.91 182.469 249.71C182.367 249.51 182.21 249.41 181.996 249.41C181.783 249.41 181.624 249.511 181.519 249.712C181.415 249.914 181.364 250.244 181.364 250.702C181.364 251.152 181.415 251.474 181.519 251.667C181.622 251.861 181.782 251.957 181.999 251.957ZM185.449 248.885H186.167V251.088H186.724V251.7H186.167V252.5H185.464L185.467 251.7H183.802V251.1L185.449 248.885ZM184.477 251.088H185.467V249.762L184.477 251.088ZM187.116 252.5V251.705H187.916V252.5H187.116ZM189.763 252.555C189.538 252.555 189.328 252.512 189.133 252.425C188.938 252.338 188.779 252.217 188.656 252.06C188.532 251.902 188.463 251.717 188.448 251.505H189.143C189.173 251.645 189.24 251.759 189.343 251.847C189.447 251.934 189.577 251.977 189.733 251.977C189.907 251.977 190.058 251.937 190.188 251.855C190.32 251.773 190.418 251.643 190.483 251.465C190.55 251.287 190.573 251.053 190.553 250.765C190.507 250.853 190.442 250.931 190.358 250.997C190.277 251.062 190.181 251.113 190.071 251.15C189.961 251.185 189.838 251.202 189.703 251.202C189.458 251.202 189.241 251.157 189.051 251.065C188.862 250.972 188.714 250.84 188.606 250.67C188.499 250.498 188.446 250.295 188.446 250.06C188.446 249.823 188.502 249.612 188.616 249.427C188.729 249.242 188.887 249.097 189.091 248.992C189.294 248.887 189.532 248.835 189.806 248.835C190.112 248.835 190.377 248.908 190.598 249.055C190.822 249.2 190.992 249.407 191.111 249.675C191.231 249.942 191.291 250.256 191.291 250.617C191.291 251.049 191.229 251.409 191.106 251.697C190.984 251.984 190.809 252.199 190.581 252.342C190.352 252.484 190.08 252.555 189.763 252.555ZM189.828 250.622C189.93 250.622 190.028 250.6 190.123 250.555C190.22 250.508 190.299 250.45 190.361 250.38C190.422 250.31 190.453 250.237 190.453 250.162C190.455 250.001 190.429 249.862 190.376 249.747C190.324 249.631 190.251 249.542 190.156 249.48C190.062 249.418 189.953 249.387 189.828 249.387C189.713 249.387 189.611 249.414 189.521 249.467C189.431 249.521 189.36 249.596 189.308 249.692C189.257 249.789 189.231 249.901 189.231 250.027C189.231 250.216 189.286 250.362 189.396 250.467C189.506 250.571 189.65 250.622 189.828 250.622ZM193.112 248.835C193.542 248.835 193.881 248.996 194.13 249.317C194.378 249.637 194.502 250.098 194.502 250.7C194.502 251.298 194.38 251.757 194.135 252.077C193.89 252.396 193.549 252.555 193.112 252.555C192.674 252.555 192.331 252.396 192.085 252.077C191.84 251.759 191.717 251.301 191.717 250.702C191.717 250.302 191.774 249.963 191.887 249.685C192 249.407 192.161 249.196 192.37 249.052C192.578 248.907 192.825 248.835 193.112 248.835ZM193.112 251.957C193.327 251.957 193.485 251.862 193.585 251.67C193.685 251.477 193.735 251.154 193.735 250.702C193.735 250.241 193.684 249.91 193.582 249.71C193.48 249.51 193.323 249.41 193.11 249.41C192.896 249.41 192.737 249.511 192.632 249.712C192.529 249.914 192.477 250.244 192.477 250.702C192.477 251.152 192.529 251.474 192.632 251.667C192.735 251.861 192.895 251.957 193.112 251.957ZM194.995 252.5V251.91H195.545V252.5H194.995Z" fill="#36536B"/>
<path fill-rule="evenodd" clip-rule="evenodd" d="M143.909 230.228V228.741L145.12 226.691H144.352L143.56 228.125L142.758 226.691H141.997L143.206 228.738V230.228H143.909ZM146.536 230.277C146.79 230.277 147.006 230.221 147.185 230.11C147.365 229.999 147.502 229.847 147.597 229.652C147.693 229.457 147.741 229.232 147.741 228.978C147.741 228.707 147.692 228.473 147.594 228.274C147.496 228.075 147.357 227.921 147.177 227.813C146.997 227.704 146.785 227.65 146.539 227.65C146.293 227.65 146.08 227.706 145.899 227.816C145.719 227.927 145.579 228.082 145.48 228.281C145.382 228.48 145.332 228.712 145.332 228.978C145.332 229.244 145.382 229.474 145.48 229.668C145.579 229.862 145.719 230.012 145.899 230.118C146.08 230.224 146.292 230.277 146.536 230.277ZM146.228 229.631C146.304 229.708 146.407 229.746 146.539 229.746C146.662 229.746 146.762 229.709 146.837 229.636C146.913 229.563 146.968 229.466 147.002 229.346C147.037 229.226 147.054 229.095 147.054 228.954C147.054 228.82 147.039 228.694 147.007 228.575C146.976 228.455 146.923 228.359 146.847 228.286C146.772 228.213 146.669 228.176 146.539 228.176C146.415 228.176 146.315 228.211 146.239 228.28C146.163 228.349 146.107 228.443 146.072 228.561C146.036 228.679 146.019 228.81 146.019 228.954C146.019 229.086 146.035 229.212 146.067 229.334C146.099 229.455 146.153 229.554 146.228 229.631ZM149.125 230.277C149.223 230.277 149.323 230.262 149.425 230.231C149.527 230.201 149.618 230.147 149.697 230.068C149.777 229.988 149.831 229.875 149.86 229.726L149.942 230.228H150.472V227.699H149.776V229.345C149.776 229.475 149.735 229.577 149.654 229.649C149.573 229.722 149.463 229.758 149.325 229.758C149.179 229.758 149.068 229.721 148.993 229.646C148.917 229.571 148.88 229.474 148.88 229.357V227.699H148.177V229.448C148.177 229.583 148.204 229.702 148.26 229.805C148.315 229.907 148.388 229.994 148.48 230.064C148.571 230.134 148.673 230.187 148.785 230.223C148.896 230.259 149.01 230.277 149.125 230.277ZM151.746 228.844V230.228H151.042V227.699H151.719V228.298C151.759 228.169 151.816 228.056 151.889 227.959C151.962 227.862 152.051 227.787 152.155 227.732C152.259 227.677 152.377 227.65 152.509 227.65C152.532 227.65 152.553 227.651 152.573 227.654C152.593 227.656 152.608 227.66 152.618 227.665V228.345C152.603 228.338 152.586 228.334 152.566 228.332C152.546 228.331 152.528 228.329 152.512 228.328C152.373 228.316 152.255 228.32 152.158 228.34C152.06 228.359 151.98 228.393 151.919 228.44C151.858 228.487 151.814 228.545 151.787 228.614C151.759 228.682 151.746 228.759 151.746 228.844ZM154.559 230.228L154.85 229.408H156.102L156.387 230.228H157.087L155.842 226.691H155.101L153.853 230.228H154.559ZM155.007 228.785H155.934L155.474 227.381L155.007 228.785ZM158.224 231.015V229.849C158.259 229.909 158.301 229.965 158.348 230.016C158.396 230.068 158.449 230.113 158.51 230.152C158.57 230.191 158.635 230.222 158.706 230.244C158.776 230.266 158.852 230.277 158.932 230.277C159.128 230.277 159.304 230.229 159.46 230.135C159.615 230.04 159.738 229.895 159.827 229.698C159.916 229.502 159.961 229.25 159.961 228.944C159.961 228.649 159.919 228.405 159.837 228.214C159.754 228.022 159.64 227.88 159.496 227.788C159.351 227.696 159.187 227.65 159.002 227.65C158.917 227.65 158.836 227.66 158.759 227.681C158.682 227.701 158.61 227.73 158.544 227.767C158.479 227.805 158.419 227.849 158.365 227.898C158.311 227.948 158.266 228.003 158.229 228.063L158.227 227.699H157.521V231.015H158.224ZM158.461 229.641C158.541 229.716 158.642 229.753 158.764 229.753C158.916 229.753 159.044 229.689 159.148 229.56C159.251 229.431 159.303 229.227 159.303 228.949C159.303 228.704 159.254 228.513 159.155 228.375C159.056 228.237 158.926 228.169 158.764 228.169C158.582 228.169 158.447 228.243 158.358 228.392C158.269 228.541 158.224 228.727 158.224 228.949C158.224 229.091 158.244 229.223 158.283 229.345C158.323 229.467 158.382 229.566 158.461 229.641ZM161.131 231.015V229.849C161.166 229.909 161.208 229.965 161.255 230.016C161.302 230.068 161.356 230.113 161.416 230.152C161.477 230.191 161.542 230.222 161.613 230.244C161.683 230.266 161.759 230.277 161.839 230.277C162.035 230.277 162.211 230.229 162.367 230.135C162.522 230.04 162.645 229.895 162.734 229.698C162.823 229.502 162.867 229.25 162.867 228.944C162.867 228.649 162.826 228.405 162.743 228.214C162.661 228.022 162.547 227.88 162.403 227.788C162.258 227.696 162.094 227.65 161.909 227.65C161.824 227.65 161.743 227.66 161.666 227.681C161.589 227.701 161.517 227.73 161.451 227.767C161.386 227.805 161.326 227.849 161.272 227.898C161.218 227.948 161.173 228.003 161.136 228.063L161.133 227.699H160.428V231.015H161.131ZM161.368 229.641C161.448 229.716 161.548 229.753 161.671 229.753C161.823 229.753 161.951 229.689 162.055 229.56C162.158 229.431 162.21 229.227 162.21 228.949C162.21 228.704 162.161 228.513 162.062 228.375C161.963 228.237 161.833 228.169 161.671 228.169C161.489 228.169 161.354 228.243 161.265 228.392C161.176 228.541 161.131 228.727 161.131 228.949C161.131 229.091 161.151 229.223 161.19 229.345C161.229 229.467 161.289 229.566 161.368 229.641Z" fill="#BA4270"/>
<path opacity="0.5" fill-rule="evenodd" clip-rule="evenodd" d="M212.553 230.174C212.446 230.242 212.295 230.277 212.099 230.277C211.975 230.277 211.859 230.262 211.751 230.233C211.642 230.203 211.571 230.181 211.535 230.167L211.567 229.734C211.616 229.752 211.674 229.774 211.739 229.801C211.804 229.828 211.884 229.841 211.981 229.841C212.138 229.841 212.246 229.797 212.305 229.709C212.363 229.621 212.393 229.473 212.393 229.264V226.691H212.838V229.394C212.838 229.581 212.817 229.741 212.776 229.873C212.734 230.005 212.66 230.105 212.553 230.174ZM214.819 230.224C214.717 230.261 214.608 230.278 214.49 230.277C214.36 230.275 214.238 230.256 214.123 230.219C214.008 230.182 213.907 230.128 213.818 230.057C213.73 229.985 213.661 229.896 213.61 229.789C213.559 229.682 213.534 229.558 213.534 229.416V227.699H213.98V229.369C213.98 229.534 214.03 229.668 214.13 229.77C214.231 229.873 214.382 229.924 214.584 229.924C214.767 229.924 214.915 229.876 215.026 229.779C215.138 229.682 215.194 229.537 215.194 229.345V227.699H215.637V230.228H215.283L215.237 229.743C215.206 229.871 215.155 229.973 215.082 230.052C215.009 230.13 214.921 230.187 214.819 230.224ZM217.217 230.277C217.419 230.277 217.591 230.246 217.733 230.185C217.875 230.124 217.984 230.037 218.061 229.926C218.137 229.814 218.175 229.681 218.175 229.526C218.175 229.464 218.166 229.399 218.147 229.331C218.129 229.264 218.098 229.199 218.053 229.137C218.009 229.075 217.95 229.019 217.875 228.968C217.801 228.918 217.705 228.877 217.59 228.846L217.091 228.719C216.953 228.685 216.849 228.642 216.778 228.59C216.708 228.539 216.672 228.469 216.672 228.379C216.672 228.244 216.722 228.144 216.822 228.079C216.921 228.015 217.05 227.983 217.209 227.983C217.362 227.983 217.483 228.018 217.574 228.089C217.665 228.16 217.718 228.256 217.734 228.376H218.127C218.121 228.138 218.034 227.958 217.868 227.835C217.702 227.712 217.484 227.65 217.214 227.65C217.004 227.65 216.828 227.683 216.687 227.748C216.545 227.813 216.439 227.902 216.369 228.014C216.298 228.127 216.264 228.257 216.265 228.406C216.265 228.593 216.325 228.739 216.446 228.844C216.566 228.948 216.727 229.024 216.928 229.073L217.443 229.203C217.555 229.229 217.638 229.27 217.692 229.327C217.746 229.383 217.773 229.457 217.773 229.55C217.773 229.682 217.722 229.78 217.619 229.844C217.516 229.907 217.381 229.939 217.214 229.939C217.11 229.939 217.013 229.922 216.925 229.889C216.837 229.856 216.763 229.806 216.705 229.74C216.646 229.674 216.606 229.591 216.583 229.492H216.179C216.204 229.673 216.266 229.821 216.364 229.938C216.462 230.054 216.585 230.14 216.734 230.195C216.882 230.249 217.043 230.277 217.217 230.277ZM219.971 230.228C219.909 230.236 219.832 230.24 219.741 230.24C219.569 230.24 219.435 230.216 219.341 230.169C219.246 230.122 219.18 230.052 219.142 229.959C219.104 229.866 219.085 229.752 219.085 229.616V228.029H218.681V227.699H219.097L219.206 226.963H219.533V227.697H220.095V228.029H219.533V229.602C219.533 229.691 219.543 229.757 219.561 229.799C219.58 229.84 219.611 229.867 219.655 229.878C219.699 229.889 219.76 229.895 219.837 229.895H220.109V230.198C220.078 230.21 220.032 230.22 219.971 230.228ZM222.382 230.228V227.44L224.251 230.228H224.649V226.691H224.203V229.44L222.363 226.691H221.937V230.228H222.382ZM227.09 230.112C226.922 230.222 226.714 230.277 226.467 230.277C226.237 230.277 226.037 230.227 225.865 230.126C225.693 230.026 225.56 229.879 225.465 229.685C225.37 229.491 225.323 229.254 225.323 228.973C225.323 228.709 225.367 228.477 225.456 228.279C225.544 228.08 225.673 227.925 225.844 227.815C226.015 227.705 226.223 227.65 226.467 227.65C226.697 227.65 226.896 227.701 227.066 227.803C227.235 227.905 227.366 228.054 227.459 228.252C227.552 228.449 227.599 228.689 227.599 228.973C227.599 229.231 227.556 229.457 227.47 229.653C227.384 229.849 227.257 230.002 227.09 230.112ZM226.467 229.92C226.302 229.92 226.168 229.877 226.065 229.792C225.962 229.708 225.887 229.593 225.838 229.448C225.79 229.302 225.766 229.141 225.766 228.963C225.766 228.763 225.793 228.591 225.847 228.447C225.901 228.304 225.98 228.194 226.084 228.118C226.188 228.043 226.316 228.005 226.467 228.005C226.631 228.005 226.764 228.047 226.866 228.132C226.968 228.217 227.042 228.331 227.088 228.475C227.135 228.62 227.158 228.782 227.158 228.963C227.158 229.161 227.132 229.331 227.079 229.474C227.026 229.618 226.948 229.728 226.845 229.805C226.742 229.881 226.616 229.92 226.467 229.92ZM229.699 228.362L229.16 230.228H228.724L227.955 227.699H228.367L228.938 229.643H228.977L229.538 227.699H229.875L230.458 229.638H230.496L231.043 227.699H231.46L230.706 230.228H230.267L229.699 228.362Z" fill="#36536B"/>
</g>
<defs>
<filter id="filter0_d_706_16" x="70.2419" y="83.2734" width="284.612" height="399.453" filterUnits="userSpaceOnUse" color-interpolation-filters="sRGB">
<feFlood flood-opacity="0" result="BackgroundImageFix"/>
<feColorMatrix in="SourceAlpha" type="matrix" values="0 0 0 0 0 0 0 0 0 0 0 0 0 0 0 0 0 0 127 0" result="hardAlpha"/>
<feOffset dx="25" dy="25"/>
<feGaussianBlur stdDeviation="40"/>
<feColorMatrix type="matrix" values="0 0 0 0 0.212302 0 0 0 0 0.32521 0 0 0 0 0.419299 0 0 0 0.300727 0"/>
<feBlend mode="normal" in2="BackgroundImageFix" result="effect1_dropShadow_706_16"/>
<feBlend mode="normal" in="SourceGraphic" in2="effect1_dropShadow_706_16" result="shape"/>
</filter>
<filter id="filter1_d_706_16" x="129.244" y="213" width="135.004" height="72.5532" filterUnits="userSpaceOnUse" color-interpolation-filters="sRGB">
<feFlood flood-opacity="0" result="BackgroundImageFix"/>
<feColorMatrix in="SourceAlpha" type="matrix" values="0 0 0 0 0 0 0 0 0 0 0 0 0 0 0 0 0 0 127 0" result="hardAlpha"/>
<feMorphology radius="10" operator="erode" in="SourceAlpha" result="effect1_dropShadow_706_16"/>
<feOffset dx="10" dy="10"/>
<feGaussianBlur stdDeviation="12.5"/>
<feColorMatrix type="matrix" values="0 0 0 0 0.212302 0 0 0 0 0.32521 0 0 0 0 0.419299 0 0 0 0.25 0"/>
<feBlend mode="normal" in2="BackgroundImageFix" result="effect1_dropShadow_706_16"/>
<feBlend mode="normal" in="SourceGraphic" in2="effect1_dropShadow_706_16" result="shape"/>
</filter>
<linearGradient id="paint0_linear_706_16" x1="128.844" y1="138" x2="128.844" y2="143.915" gradientUnits="userSpaceOnUse">
<stop stop-color="#454545"/>
<stop offset="0.226279" stop-color="#999999"/>
<stop offset="1" stop-color="white"/>
</linearGradient>
<linearGradient id="paint1_linear_706_16" x1="249.799" y1="179.159" x2="245.223" y2="179.159" gradientUnits="userSpaceOnUse">
<stop stop-color="white" stop-opacity="0.01"/>
<stop offset="0.222178" stop-color="#BABABA"/>
<stop offset="0.54678" stop-color="white" stop-opacity="0.01"/>
<stop offset="1" stop-color="white" stop-opacity="0.01"/>
</linearGradient>
<linearGradient id="paint2_linear_706_16" x1="125.242" y1="179.034" x2="129.825" y2="179.034" gradientUnits="userSpaceOnUse">
<stop stop-color="white" stop-opacity="0.01"/>
<stop offset="0.222178" stop-color="#BABABA"/>
<stop offset="0.54678" stop-color="white" stop-opacity="0.01"/>
<stop offset="1" stop-color="white" stop-opacity="0.01"/>
</linearGradient>
<linearGradient id="paint3_linear_706_16" x1="131.44" y1="144" x2="131.44" y2="365.264" gradientUnits="userSpaceOnUse">
<stop stop-color="#9CB6CD"/>
<stop offset="0.420564" stop-color="#9AB3CA"/>
<stop offset="0.716592" stop-color="#557496"/>
<stop offset="1" stop-color="#475178"/>
</linearGradient>
<clipPath id="clip0_706_16">
<rect width="105" height="43" fill="white" transform="translate(134.244 218)"/>
</clipPath>
</defs>
</svg>
